<svg width="7387" height="5684" viewBox="0 0 7387 5684" fill="none" xmlns="http://www.w3.org/2000/svg">
<rect x="0.5" y="0.5" width="7385.67" height="5683" stroke="#B46C31"/>
<rect x="0.5" y="0.5" width="7385.67" height="5683" stroke="#6E2C2C" stroke-opacity="0.2"/>
<path d="M5243.47 89.6001C5240.27 92.8001 5237.87 97.6001 5234.67 107.333C5227.33 129.867 5217.33 145.733 5196.67 167.733C5145.73 221.867 5072.93 255.467 4979.33 268.133C4953.6 271.6 4893.33 273.067 4863.2 270.8C4816.53 267.467 4800.13 266.533 4754.4 265.333C4582.4 260.4 4419.47 280.667 4265.33 326C4103.87 373.6 4005.07 424.133 3905.33 509.867C3867.73 542.267 3812.27 601.067 3791.6 630.8C3789.87 633.067 3788.8 633.6 3787.47 632.667C3786.53 631.867 3777.87 626.133 3768.4 619.733L3751.2 608L3748.8 600.4C3747.2 595.333 3744.53 590.933 3741.33 587.733C3736.93 583.333 3735.47 582.667 3730 582.667C3725.07 582.667 3722.53 583.467 3718.93 586.267L3714.27 589.733L3708.13 587.333C3700.13 584.133 3673.33 576.133 3670.53 576C3669.33 576 3662.93 568 3655.6 556.933C3600.13 474.667 3520 407.2 3416.27 355.467C3300.93 297.867 3167.47 265.067 3016.67 257.2C2978.93 255.2 2896.53 256.4 2860.67 259.333C2719.87 270.8 2594.8 300 2465.33 351.333C2243.07 439.467 2070.4 578 1938.4 774.267C1904.93 823.867 1879.73 867.333 1844 937.333C1814.27 995.733 1803.33 1014.53 1785.33 1038.4C1757.47 1075.73 1728 1099.47 1696.67 1110.13C1681.47 1115.2 1659.73 1116.13 1644.4 1112.27C1631.2 1108.93 1621.6 1104.53 1612 1097.33L1604.67 1091.87L1601.73 1102.8C1596 1123.73 1594.27 1138.67 1595.07 1159.73C1595.87 1183.07 1597.87 1191.87 1606.67 1210C1617.6 1232.53 1633.33 1248.27 1656.67 1259.73C1679.73 1271.2 1710.53 1276.53 1737.33 1273.6C1743.6 1272.93 1748.8 1272.4 1748.8 1272.53C1748.93 1272.67 1745.33 1277.33 1740.8 1283.07C1725.2 1302.27 1714 1327.87 1709.87 1353.33C1707.07 1369.73 1708.13 1399.73 1711.87 1416.13C1717.2 1439.87 1728 1463.07 1739.33 1475.73C1747.2 1484.53 1754.53 1488 1764.8 1488C1786.8 1488 1807.47 1468.93 1878.53 1382.93C1889.07 1370.27 1897.87 1360 1898 1360.27C1898.27 1360.53 1897.6 1364.93 1896.53 1370C1890.93 1396.67 1888.93 1413.2 1888.8 1433.33C1888.67 1456.13 1890.4 1464.27 1897.07 1472.27C1909.87 1487.33 1932 1483.33 1966.67 1459.6C1973.6 1454.8 1979.47 1451.07 1979.6 1451.2C1980.53 1452.13 1992.67 1524.8 1997.33 1557.33C2002.93 1596.53 2006.93 1632.27 2009.47 1668.67C2011.6 1698 2011.6 1769.73 2009.47 1795.33C2006.4 1833.47 1998.8 1879.47 1990.67 1910C1976.27 1964.13 1975.6 2016.67 1988.67 2068C2018.67 2186.27 2119.87 2294.27 2279.47 2378.27C2305.33 2391.87 2323.6 2399.87 2358.8 2413.2C2493.47 2463.6 2635.2 2486.8 2767.87 2480.13C2794.93 2478.67 2800.53 2478.67 2801.47 2480.27C2804.13 2484.27 2802.13 2486 2794 2486.93C2783.87 2488 2772 2492 2758.13 2498.93C2721.87 2517.07 2703.07 2534.8 2689.87 2563.47C2686.4 2570.93 2684.27 2573.87 2680.93 2575.47C2666.4 2583.07 2645.07 2601.73 2628.53 2621.47C2621.2 2630.27 2619.2 2631.87 2613.73 2633.2C2596.27 2637.6 2558.13 2655.07 2535.47 2669.07C2506.4 2686.93 2485.2 2704.13 2459.33 2730.93C2419.2 2772.4 2388.27 2819.73 2345.47 2905.33C2314.67 2967.07 2291.73 3018.27 2270.67 3072.4C2258.13 3104.4 2259.07 3104.13 2241.07 3081.07C2224.27 3059.33 2199.33 3029.47 2170.13 2996C2146.27 2968.53 2120.27 2937.73 2080.67 2889.47C2046.8 2848.4 2032.4 2832.4 1993.73 2793.2L1957.33 2756.4L1956.8 2717.2C1956.4 2675.73 1955.2 2665.33 1948.67 2637.33C1946.8 2629.6 1943.47 2617.87 1941.33 2611.33C1939.2 2604.67 1937.07 2597.2 1936.53 2594.67C1934.8 2585.33 1913.33 2522.67 1903.6 2498C1880.27 2438.93 1862.53 2406.53 1821.07 2347.07C1801.07 2318.4 1792.8 2307.33 1759.73 2264.93C1733.73 2231.6 1716.13 2207.2 1698.67 2180C1673.47 2140.8 1653.47 2122.53 1630.93 2118.4C1617.6 2116 1606 2121.2 1600.4 2132C1590.8 2150.67 1591.33 2178.53 1602 2209.07C1615.73 2248.67 1634.93 2277.73 1677.07 2322.53C1700.13 2347.07 1710.93 2360.13 1722.53 2377.33C1737.87 2400 1737.47 2398.27 1726.93 2397.07C1708.67 2395.07 1681.07 2395.87 1670.13 2398.67C1651.2 2403.47 1634.53 2415.2 1626 2429.73C1622.8 2435.33 1622.13 2435.73 1614.27 2437.33C1579.47 2444.13 1550.67 2467.87 1538.93 2499.73C1535.87 2508.27 1534.4 2510.27 1528.53 2514.67C1513.2 2526.27 1502.93 2542 1497.07 2563.33C1494.67 2572.4 1494.13 2577.6 1494.13 2599.33C1494 2620.53 1494.53 2627.07 1496.93 2639.33C1504.53 2676.27 1517.07 2700.27 1539.2 2719.47C1557.07 2734.93 1573.6 2741.87 1591.2 2741.2L1602.13 2740.67L1612 2756.4C1644 2808.27 1678.8 2841.87 1716.93 2857.87C1734.53 2865.2 1747.73 2868.27 1765.33 2868.93C1780.27 2869.47 1783.33 2869.2 1794.67 2866C1801.6 2864.13 1808.53 2862.4 1809.87 2862.27C1811.87 2862 1817.2 2870.27 1835.73 2902.67C1948.13 3099.07 2045.87 3234 2154.53 3342.8C2196.53 3384.8 2225.07 3403.73 2260 3412.4C2275.73 3416.27 2301.6 3416.13 2316.67 3412.13C2331.07 3408.4 2348.93 3399.33 2363.2 3388.4C2383.2 3373.33 2426.53 3329.07 2451.33 3298.13L2455.33 3293.2L2469.87 3296.53C2477.73 3298.4 2484.53 3300.13 2484.8 3300.4C2485.07 3300.53 2485.87 3320.53 2486.67 3344.8C2490.53 3468.8 2501.87 3571.33 2521.33 3657.73C2523.6 3667.33 2525.33 3677.6 2525.33 3680.53C2525.33 3688.8 2521.73 3711.33 2514 3750.67C2510 3770.8 2506 3792.67 2505.2 3799.33C2502.93 3815.33 2502.93 3847.47 2505.07 3860.67L2506.93 3871.47L2502 3879.6L2497.2 3887.73L2482.27 3880.8C2464.27 3872.27 2441.73 3863.2 2382.67 3840.27C2287.2 3803.2 2246 3790.27 2183.33 3777.33C2168.67 3774.27 2122.27 3763.07 2080.13 3752.53C1989.87 3729.87 1960.53 3723.73 1898 3714.67C1811.47 3702.13 1785.87 3697.2 1771.6 3690.67C1759.73 3685.07 1748 3683.6 1720 3684.27C1698.67 3684.8 1695.87 3685.2 1686.93 3688.53L1677.07 3692.27L1651.6 3687.47C1589.07 3675.73 1537.6 3670.4 1462.53 3667.73C1367.33 3664.4 1276.67 3671.33 1204.27 3687.47C1093.87 3712 1035.33 3784 1021.07 3912.67C1020 3922.53 1019.33 3943.87 1019.33 3968.67C1019.47 4004.13 1019.87 4010.53 1022.53 4025.73C1027.47 4053.87 1035.2 4073.87 1047.73 4091.33C1064.67 4114.93 1119.6 4171.6 1156.67 4203.33C1166.93 4212.27 1185.2 4229.87 1197.2 4242.4C1209.2 4255.07 1230.8 4276.4 1245.2 4289.73C1259.6 4302.93 1298.4 4340.67 1331.33 4373.33C1388.8 4430.13 1439.33 4478.27 1501.33 4535.2C1517.07 4549.6 1530.13 4562 1530.4 4562.67C1530.8 4563.73 1468.93 4605.47 1298.67 4719.33C1167.2 4807.2 1136.8 4826 925.333 4951.47C829.467 5008.27 765.867 5047.73 762.133 5052.8C760.267 5055.33 760.133 5056.13 761.467 5055.87C762.533 5055.73 764.267 5056 765.467 5056.53C768 5057.6 828.8 5022.53 928.8 4962.27C1108.8 4854 1278.8 4745.07 1568.67 4552.53C1666.67 4487.47 1754.8 4440.67 1874.93 4390.13C1950.27 4358.53 2051.47 4322.4 2138.8 4296C2189.47 4280.67 2259.6 4261.73 2260.93 4263.07C2262 4264.27 2249.47 4288.67 2233.87 4316C2202.93 4370.27 2193.33 4395.47 2193.33 4422.93C2193.33 4444.4 2202.67 4450.93 2223.07 4443.6C2234.93 4439.2 2247.47 4432 2262.67 4420.53C2283.87 4404.67 2291.47 4393.87 2312.67 4350.13C2328.67 4317.07 2338.13 4301.73 2353.33 4284.27C2365.07 4270.8 2367.6 4271.2 2361.2 4285.47C2353.47 4303.33 2346.93 4321.87 2336.8 4355.47C2325.2 4393.87 2319.87 4409.07 2304.93 4446.67C2294.53 4472.8 2294.13 4474.53 2294 4484.67C2294 4494.67 2294.4 4496 2298.67 4503.2C2307.07 4517.2 2321.73 4522.4 2334 4515.87C2346.4 4509.33 2359.6 4495.87 2371.2 4478.27C2374.4 4473.2 2377.47 4468.8 2377.73 4468.53C2378.13 4468.13 2377.47 4471.33 2376.53 4475.6C2371.6 4496.53 2376.93 4508.8 2393.07 4514.13C2402 4516.93 2410.67 4516 2420.27 4511.2C2428.27 4507.07 2449.87 4486.13 2454 4478.27C2456.93 4472.67 2458.53 4472.13 2462.13 4476.13C2470.27 4485.2 2491.6 4488.13 2509.6 4482.67C2530.13 4476.53 2544 4466.93 2573.2 4438.67L2579.2 4432.93L2581.87 4436.27C2586.13 4441.33 2592.67 4449.47 2597.2 4455.33C2599.33 4458.27 2602.4 4462.27 2603.87 4464.13C2614 4477.33 2637.2 4514.8 2650.13 4538.93C2659.87 4557.2 2676.93 4593.07 2678.13 4597.87C2678.8 4600.67 2678.27 4600.93 2666.4 4603.07C2655.6 4604.93 2593.07 4614.8 2580 4616.53C2577.47 4616.93 2559.6 4619.87 2540.4 4623.2C2482.53 4633.2 2440.93 4642.53 2336.67 4668.4C2279.07 4682.8 2245.33 4690.4 2174.67 4704.67C2059.07 4728.13 2022 4737.47 1950 4760.93C1890.8 4780.27 1859.2 4793.87 1822 4816.13C1813.2 4821.33 1783.47 4840.53 1756 4858.67C1728.53 4876.67 1704.13 4892.67 1701.73 4894.13C1618.13 4945.07 1564.93 4974.8 1495.33 5009.73C1440.93 5036.93 1396.27 5057.47 1305.33 5096.67C1295.47 5100.93 1219.73 5131.2 1204.67 5136.93C1152 5156.93 1132 5164.4 1106 5173.47C1093.6 5177.87 1078.53 5183.2 1072.67 5185.33C1066.8 5187.47 1043.07 5195.6 1020 5203.33C996.933 5211.07 972.267 5219.47 965.333 5222C958.4 5224.4 923.467 5236.8 887.6 5249.47L822.667 5272.4V5277.6C822.667 5281.07 823.2 5282.67 824.533 5282.67C826.533 5282.67 860.4 5271.07 920.667 5249.6C941.2 5242.27 971.2 5232.27 987.333 5227.47C1097.07 5194 1152.53 5174.27 1226 5142.67C1240 5136.67 1277.47 5121.07 1309.33 5108C1415.07 5064.8 1453.6 5046.4 1552.67 4992.27C1630.53 4949.73 1684.4 4917.87 1750.67 4874.8C1769.33 4862.8 1791.87 4848.4 1800.53 4843.07L1816.4 4833.47L1838.93 4855.33C1851.33 4867.47 1862 4877.33 1862.67 4877.33C1863.33 4877.33 1866.53 4875.73 1869.73 4873.87L1875.47 4870.4L1852.93 4848.27C1832.4 4827.87 1830.67 4825.87 1832.93 4824.27C1836.8 4821.33 1875.47 4802.13 1889.33 4796.27C1906.93 4788.8 1936.13 4779.2 1974.67 4768.13C2053.6 4745.6 2102.4 4733.87 2247.33 4702.53C2261.33 4699.47 2312.27 4687.2 2360.53 4675.2C2493.07 4642.13 2507.2 4639.07 2597.33 4623.47C2624.93 4618.67 2654.27 4613.33 2662.67 4611.47C2670.93 4609.47 2677.87 4608.13 2678.13 4608.27C2679.2 4609.47 2687.33 4636 2690.53 4649.07C2696.4 4672 2704 4719.07 2704 4731.87C2704 4734.4 2720.4 4732.93 2732 4729.2C2736.8 4727.73 2744.8 4725.6 2749.87 4724.53C2754.93 4723.47 2769.33 4719.33 2781.73 4715.33C2794.27 4711.33 2805.2 4708 2806.27 4708C2809.73 4708 2810.67 4701.73 2809.47 4684.4C2808.93 4674.93 2808.53 4667.2 2808.67 4666.93C2808.93 4666.67 2820.4 4663.6 2834.27 4660C2871.47 4650.53 2961.73 4624.27 3020.67 4605.73C3123.47 4573.6 3248.53 4517.87 3336.53 4464.93C3406 4423.33 3449.6 4388 3487.47 4342.4C3568.13 4245.6 3626.53 4103.6 3638.67 3974.67C3640.27 3958.27 3640.67 3901.47 3639.33 3894.27C3638.53 3890.13 3638.93 3889.47 3648.67 3881.6C3665.73 3867.47 3676 3850.8 3680.93 3829.33C3683.6 3817.33 3684.67 3763.87 3682.8 3736.13C3679.73 3691.47 3674 3648.4 3663.87 3593.33C3657.07 3556.4 3639.33 3468.93 3630.8 3429.87C3625.07 3403.73 3624.13 3396.8 3623.73 3382.27L3623.33 3365.07L3643.07 3358.67C3690.4 3343.07 3713.73 3326.93 3725.87 3301.33C3730.67 3291.07 3732 3279.07 3729.07 3272C3726.4 3265.73 3711.47 3247.07 3708.27 3246.13C3705.73 3245.33 3705.6 3243.33 3704.8 3212.27C3702.53 3126.53 3696.8 3048.8 3687.33 2972.67C3672 2850.8 3645.2 2770.93 3596.8 2702.67C3560.8 2651.73 3514.93 2610.67 3463.87 2583.47L3449.73 2576L3448.8 2564.13C3448 2553.6 3445.87 2542.13 3443.33 2535.87C3442.8 2534.4 3445.47 2532 3453.33 2526.93C3465.47 2518.93 3492.27 2493.6 3504.27 2478.8C3531.6 2444.93 3549.87 2406 3556.8 2366.67C3560.4 2346.8 3559.47 2308.53 3555.2 2294.4C3554.67 2292.8 3558.13 2289.47 3567.6 2282.27C3620 2242.4 3670.93 2185.73 3716.4 2116.67C3724.13 2104.93 3731.33 2094.4 3732.4 2093.33C3733.33 2092.27 3742.27 2084.67 3752.13 2076.53C3762 2068.4 3776.4 2055.6 3784.4 2048L3798.67 2034.4L3808.8 2043.47C3869.33 2098.53 3931.33 2135.87 4009.33 2164.4C4119.87 2204.67 4255.47 2215.87 4365.6 2193.87L4382.53 2190.4L4396.27 2196.67C4426.67 2210.67 4464 2223.87 4501.6 2233.87L4522.53 2239.47L4511.07 2240.93C4490.27 2243.87 4476.67 2252.93 4469.07 2268.8C4464.93 2277.73 4462.27 2290.67 4463.33 2296.13C4464.13 2299.33 4463.07 2300.27 4450.4 2308C4413.87 2330.4 4368.93 2362.4 4335.33 2390C4257.87 2453.47 4214.53 2506.93 4183.87 2576.67C4161.47 2627.6 4146.8 2686.27 4118.67 2836.13C4105.33 2907.07 4098.13 2941.6 4083.2 3006.53C4059.87 3108 4037.87 3194 4026.53 3228.8C4022.93 3239.87 4020 3249.73 4020 3250.8C4020 3253.73 4032.67 3272.8 4042.27 3284.27C4052.27 3296.4 4065.87 3309.2 4079.47 3319.47C4086.67 3324.8 4089.33 3327.6 4089.33 3329.87C4089.33 3331.6 4086.67 3359.6 4083.33 3392.13C4062.53 3600.53 4044 3818.27 4013.33 4218.67C4007.47 4296 4002.27 4361.87 4001.87 4364.93C4001.07 4371.47 4003.33 4370.53 3972 4377.87C3922.93 4389.47 3861.73 4411.33 3746.67 4458.27C3667.47 4490.53 3594.67 4524.8 3547.87 4551.73C3497.73 4580.67 3460.67 4605.73 3444.53 4621.87C3420.53 4645.87 3417.87 4662.93 3436.67 4672.67C3444.13 4676.4 3445.33 4676.67 3459.87 4676.53C3473.73 4676.53 3477.07 4676 3492 4671.47C3523.2 4662.27 3565.47 4643.87 3633.33 4610.13L3667.33 4593.2L3660.67 4599.6C3656.93 4603.07 3640.13 4616.93 3623.33 4630.13C3576.27 4667.33 3549.6 4690.4 3523.2 4716.67C3490.13 4749.47 3477.2 4767.73 3473.2 4786.27C3470.27 4800.93 3476.67 4814.27 3490.27 4820.8C3497.6 4824.4 3498.93 4824.67 3515.33 4824.67C3537.07 4824.53 3550.67 4821.33 3571.33 4811.33C3585.47 4804.53 3591.6 4800.53 3632.67 4771.07C3657.2 4753.6 3741.2 4694.27 3743.73 4692.8C3745.2 4692 3745.47 4692.13 3744.67 4693.47C3741.87 4698.13 3731.2 4711.2 3719.87 4724C3662.4 4788.27 3630 4836.4 3628.4 4860C3627.87 4867.47 3628.13 4869.33 3630.93 4873.33C3634.8 4878.93 3640.53 4882.93 3650.4 4886.93C3656.8 4889.33 3660.67 4889.87 3674 4890C3690.67 4890 3697.2 4888.8 3710.8 4883.2C3741.73 4870.53 3780 4837.47 3828.13 4782C3873.33 4729.73 3919.2 4686.27 3967.33 4650C3985.33 4636.53 4009.6 4619.87 4010.27 4620.53C4010.93 4621.07 3945.47 4732.13 3896.13 4813.87C3848.8 4892.4 3847.2 4895.2 3843.73 4904C3839.87 4914 3838.93 4930.27 3842 4938.13C3846.4 4949.87 3860.53 4960.67 3875.73 4963.87C3885.33 4965.87 3891.6 4965.73 3903.6 4963.2C3931.07 4957.6 3952.93 4942.93 3977.47 4913.6C4003.73 4882.4 4031.47 4842.4 4058.67 4797.33C4088.67 4747.33 4100.4 4731.6 4129.33 4702.8C4146.27 4686 4191.73 4645.2 4219.33 4622.27C4228.13 4614.93 4240 4605.07 4245.73 4600.13C4257.87 4589.87 4268 4584 4273.87 4584C4280.53 4584 4294.67 4591.6 4328.8 4613.47C4365.47 4636.93 4392.93 4651.47 4409.33 4656C4423.87 4660 4446.8 4660.4 4459.87 4656.93C4484.4 4650.27 4502.93 4636.13 4511.87 4617.33C4514.67 4611.33 4515.33 4608.13 4515.33 4599.33C4515.33 4581.47 4511.6 4576.93 4486 4564.67C4476.53 4560 4464 4553.07 4458.4 4549.07C4452.8 4545.2 4425.2 4522.13 4397.2 4498C4324.27 4435.07 4294.53 4410.53 4282.13 4403.2C4268.93 4395.33 4252 4388.8 4239.07 4386.67C4233.73 4385.87 4229.33 4384.53 4229.33 4383.87C4229.33 4383.2 4233.87 4356.67 4239.33 4324.93C4260.67 4203.33 4282.4 4071.87 4298 3970C4301.47 3948 4304.4 3929.87 4304.67 3929.6C4304.8 3929.33 4309.33 3932 4314.53 3935.33C4320.4 3939.2 4324.27 3942.53 4324.67 3944.4C4324.93 3946 4326.27 3955.47 4327.47 3965.33C4337.07 4045.33 4358.13 4136 4383.2 4205.07C4428.8 4330.67 4495.33 4426.27 4582.93 4492.27C4679.73 4565.2 4865.87 4651.33 5093.33 4728.67C5144.13 4745.87 5217.33 4769.2 5250.93 4778.8L5261.2 4781.73L5271.6 4775.2C5349.6 4726.93 5416.93 4668.4 5478 4595.6L5492.4 4578.67L5541.87 4603.73C5646.67 4657.2 5730.8 4702.93 5857.33 4775.33C5977.33 4844.13 6030.13 4871.47 6100 4901.33C6229.73 4956.67 6422.13 5016.67 6571.07 5048.13L6598.8 5054L6598 5057.33C6597.47 5059.2 6596.8 5069.47 6596.4 5080.27C6595.73 5101.47 6596.93 5108.67 6603.47 5121.6C6607.87 5130.27 6621.2 5144.13 6632 5151.33C6667.87 5175.2 6723.33 5190.13 6815.33 5200.53C6902 5210.53 6937.6 5212.67 6957.33 5209.47C6991.6 5203.87 7021.73 5187.73 7049.47 5160C7071.6 5137.87 7088.8 5113.73 7106.8 5079.33C7151.73 4993.47 7190.8 4850.4 7204.67 4720.67C7207.47 4694.27 7206.93 4695.73 7213.73 4692.93C7224.27 4688.67 7240.93 4677.47 7249.2 4669.2C7254.53 4663.87 7258.93 4657.73 7262.27 4651.07C7267.2 4641.2 7267.33 4640.27 7267.6 4625.6C7267.87 4615.33 7268.53 4609.33 7269.73 4607.47C7274.53 4600.13 7275.33 4594.27 7275.33 4567.33C7275.33 4539.2 7272.53 4515.2 7266.53 4492.53C7259.07 4464.13 7242.4 4442.13 7218.53 4429.33C7214.13 4426.93 7210.27 4424.4 7209.87 4423.6C7209.6 4422.67 7207.87 4412.13 7206 4400C7204.27 4387.87 7201.73 4371.73 7200.53 4364C7199.47 4356.27 7196.67 4345.47 7194.4 4340C7192.27 4334.53 7189.2 4326.4 7187.73 4322C7183.6 4309.33 7176 4296.13 7168.27 4287.87C7162.8 4281.87 7158 4278.53 7146.93 4272.93C7114.27 4256.27 7078.53 4249.07 7043.6 4252.13C6978 4257.87 6927.73 4294.13 6894.67 4359.87C6889.6 4370.13 6888.93 4370.8 6885.6 4370.13C6883.6 4369.73 6869.73 4367.33 6854.67 4364.8C6789.87 4353.73 6748.53 4342.4 6718.67 4327.47C6710.93 4323.6 6694.53 4313.73 6682 4305.47C6637.47 4275.87 6611.2 4266.8 6575.73 4268.4C6560.93 4269.07 6560 4268.93 6560 4266.53C6560 4256.8 6548 4100.67 6539.87 4004C6516.93 3730.4 6491.07 3507.47 6469.87 3399.73C6436 3227.2 6383.6 3137.33 6303.47 3114C6250.53 3098.67 6189.2 3107.47 6111.33 3141.33C6034.4 3174.93 5965.07 3220.13 5896.67 3281.47C5880.67 3295.87 5842.53 3333.87 5825.47 3352.4L5818.4 3360.13L5810.13 3354.8C5800.4 3348.4 5795.47 3346.4 5792.4 3347.6C5788.13 3349.2 5770.13 3361.6 5759.87 3370.13C5749.07 3379.07 5722.53 3406.13 5716.4 3414.4C5707.73 3426.13 5683.33 3452.27 5660.13 3474.93C5646.4 3488.4 5626.93 3508 5617.07 3518.53L5598.93 3537.73L5600.8 3529.87C5602.8 3521.33 5602.4 3519.2 5597.87 3507.33C5596.13 3502.93 5588.4 3482.27 5580.67 3461.33C5546.93 3370.67 5500.27 3259.73 5483.87 3231.07C5480.27 3224.8 5479.73 3222.13 5478.53 3207.07C5476.67 3181.6 5473.73 3158 5469.47 3132.67C5467.33 3120.13 5464.8 3103.33 5464 3095.33C5449.2 2954.4 5408.53 2794.27 5354.4 2664C5347.87 2648.27 5339.47 2627.73 5336 2618.4C5329.87 2602.53 5304.93 2545.87 5297.87 2531.73C5296.13 2528.27 5294.67 2524.93 5294.67 2524.27C5294.67 2523.6 5301.73 2522.67 5310.4 2522.4C5352.13 2520.53 5406.53 2500.8 5457.47 2469.2C5495.47 2445.6 5530.53 2417.47 5594.67 2359.33C5647.73 2311.33 5704.67 2248.53 5710.93 2231.2C5712.27 2227.33 5713.2 2226.67 5718.53 2225.87C5758.93 2220.4 5781.2 2207.33 5787.47 2185.87C5789.07 2180 5789.2 2176.27 5788.13 2163.07C5783.73 2112.8 5765.33 2049.2 5734.8 1978.8L5729.73 1967.2L5744.93 1949.87C5822.4 1862.27 5893.33 1755.6 5963.73 1620.67C6033.2 1487.6 6093.07 1342.67 6160.4 1144.67C6168.13 1121.87 6175.73 1100.53 6177.07 1097.2L6179.73 1091.2L6198.93 1091.73C6247.73 1093.2 6280.67 1081.33 6308.13 1052.27C6335.47 1023.47 6350 984 6354.67 926C6355.47 916.4 6356.53 886.8 6357.2 860C6358.27 816.933 6358.67 810.133 6361.2 800.667C6368.4 773.6 6377.33 761.2 6420 718.667C6461.47 677.467 6473.73 661.6 6486.67 632C6505.47 589.2 6499.87 552.533 6473.73 547.6C6462.53 545.467 6438.27 554.8 6421.07 567.867C6399.47 584.267 6362.27 625.333 6328.27 670.267C6319.2 682.267 6311.73 692 6311.47 692C6311.2 692 6312.4 685.2 6314 676.933C6318 657.867 6321.73 631.067 6326 594C6327.73 577.867 6330.8 552 6332.53 536.667C6340.53 470 6340.8 418.267 6333.33 393.2C6328.27 376 6318.4 368 6304.13 369.733C6284.8 372 6270.27 386.667 6258.8 415.333C6251.73 433.467 6248 447.733 6239.47 490.133C6231.87 527.6 6201.73 664 6200.93 664.933C6200.67 665.2 6200 658 6199.47 649.067C6197.33 609.6 6190.4 502.533 6185.33 430C6182 382.933 6173.73 353.067 6159.87 338C6150.93 328.4 6145.47 326 6132 326C6122 326 6119.6 326.533 6111.47 330.4C6095.07 338.133 6082.27 353.867 6071.87 379.2C6056.67 416 6052.27 453.867 6054.67 525.067C6055.47 546.8 6056.93 590.133 6058 621.067C6060.4 688 6060.4 698.933 6058.53 695.733C6052.4 684.933 6038.8 644.4 6031.33 614C6025.47 590.133 6024.13 582.933 6010.13 505.333C5995.87 426.533 5990.53 406.133 5977.2 379.867C5965.33 356.267 5945.07 347.467 5924.67 357.2C5901.2 368.267 5888 401.333 5888 448.8C5888 479.467 5892.93 508.267 5906.13 555.6C5910.13 570.133 5918 598.133 5923.6 618C5935.6 661.2 5961.33 763.067 5960.4 764C5960.13 764.4 5959.2 763.6 5958.53 762.267C5954.27 754.8 5938.8 736.133 5926.67 723.867C5890.8 687.733 5855.87 670.8 5820 672.267C5807.47 672.8 5804.67 673.333 5797.87 676.8C5792.4 679.467 5788.8 682.533 5786 686.4C5782.4 691.733 5782 693.2 5782 703.067C5782 730.8 5798.53 755.2 5844.67 795.2C5893.33 837.333 5897.87 845.067 5911.2 907.467C5915.6 927.6 5918.8 937.867 5924.93 950.4C5928.93 958.533 5932 962.267 5942.93 972.4C5955.87 984.4 5956.13 984.8 5955.47 989.6C5953.47 1002.4 5919.87 1075.33 5885.2 1141.73C5831.73 1244.67 5773.47 1344.27 5699.07 1460.4C5662.13 1518.13 5548.13 1688 5542 1694.53C5540.8 1695.73 5536.67 1696.4 5529.73 1696.53C5518.8 1696.8 5512.53 1699.07 5502.93 1706.4C5492.53 1714.27 5479.6 1735.33 5471.87 1756.67C5468.13 1767.33 5467.6 1770.67 5466.93 1786.67L5466.4 1804.67L5455.47 1818.53C5439.47 1839.2 5385.47 1893.87 5383.33 1891.73C5382.93 1891.47 5385.87 1884.93 5389.73 1877.2C5446.4 1765.47 5464.13 1635.07 5439.33 1514C5438.4 1510 5438.53 1509.87 5445.73 1508.4C5467.87 1503.73 5484.4 1488.53 5497.47 1460.8C5521.33 1409.73 5515.07 1332.8 5482.4 1275.6C5463.6 1242.67 5443.07 1223.87 5418.13 1216.67C5408.4 1213.87 5387.6 1213.73 5376.67 1216.67C5365.2 1219.6 5346 1229.33 5336.4 1237.2L5328 1244L5325.87 1238.93C5316.4 1216.67 5303.6 1169.47 5298 1137.07C5291.33 1097.47 5290.13 1080.27 5290.13 1028.67C5290.27 1002.27 5290.8 976.8 5291.47 972L5292.67 963.333L5300.27 974C5313.2 992 5326.93 1021.07 5334.67 1046.4C5338.53 1059.33 5342.27 1064.53 5347.6 1065.07C5350 1065.33 5353.07 1064.8 5354.67 1064C5363.07 1059.47 5372.13 1026.13 5376 985.333C5380.13 941.733 5365.73 892.533 5338.4 857.6C5334.93 853.067 5332.4 849.333 5332.8 849.333C5334.8 849.333 5354.53 862.133 5364.8 870.133C5370.8 874.8 5387.6 890.133 5402.13 904.4C5416.8 918.533 5431.87 932.667 5435.87 935.867C5460.13 954.933 5466.8 949.067 5462.13 912.533C5458.13 881.867 5452.8 863.867 5440.53 840C5426.93 813.733 5405.07 787.333 5384.27 771.6C5379.6 768.133 5376.53 765.333 5377.33 765.333C5380.53 765.333 5411.33 774.933 5429.33 781.6C5452.8 790.133 5485.07 806.133 5496 814.667C5510.4 825.867 5514.27 828.267 5519.6 828.8C5527.2 829.733 5532.67 825.733 5537.33 815.6C5548.13 792.267 5548.13 755.6 5537.33 710.667C5526 664 5515.47 640.4 5494.13 613.867C5466.93 580 5420.67 549.467 5375.87 535.867C5370.67 534.267 5366.93 532.533 5367.6 531.867C5369.2 530.267 5392.93 521.867 5410.4 516.8C5442.67 507.467 5473.6 501.733 5512.53 498C5524.13 496.933 5534.53 495.333 5535.47 494.533C5540.53 490.4 5535.73 480 5523.2 468C5481.87 428.533 5438.93 408.667 5382 402.533C5367.6 401.067 5334.53 401.6 5323.47 403.467L5318.27 404.4L5328.4 394.133C5357.07 365.2 5381.33 309.733 5376.13 285.333C5374.27 276.8 5371.6 272.8 5366 270.133C5355.87 265.333 5344.53 268.267 5325.6 280.933C5300.27 297.867 5271.07 310.933 5226.93 324.8C5224.8 325.467 5225.2 324.8 5234.8 312C5258.93 279.6 5275.87 239.6 5282.8 198.667C5285.07 185.467 5285.07 150 5282.8 137.333C5280.27 123.067 5274.13 104.4 5269.47 96.9334C5261.73 84.9334 5251.2 81.8667 5243.47 89.6001ZM6136.67 330.533C6148.67 336 6160.8 354.267 6167.33 376.667C6171.47 391.067 6175.47 418.533 6177.33 445.333C6182.13 515.467 6188.13 610.533 6190 646C6192.53 696 6193.33 703.2 6196 703.733C6197.2 703.867 6199.07 703.333 6200.27 702.4C6201.73 701.2 6210.8 662.267 6232 566.667C6248.27 492.933 6263.07 427.867 6264.93 422C6271.73 400.4 6282.4 384.667 6295.2 377.333C6306.93 370.533 6314.4 372.8 6320.53 385.067C6326.4 396.8 6328.27 409.2 6329.07 439.467C6330 481.867 6328.27 501.867 6314.8 608C6308.13 660.533 6303.73 687.067 6298.67 704.667C6297.2 709.733 6296 714.4 6296 714.933C6296 716.667 6302 716.133 6304.27 714.267C6305.33 713.467 6316.8 698.533 6329.6 681.333C6362 637.867 6376.8 620.267 6403.2 593.867C6430.8 566.267 6441.87 558.267 6458.13 554C6467.73 551.467 6473.73 552.933 6479.6 558.933C6493.87 573.733 6490.93 603.067 6471.33 643.333C6459.87 666.933 6450.8 678.4 6411.87 718C6392.4 737.733 6374.13 757.6 6371.07 762C6353.2 788.533 6348 809.2 6348 855.333C6348 910.8 6344.53 950.133 6337.33 978.133C6323.47 1032 6295.2 1066.67 6253.6 1080.8C6234.67 1087.33 6224.53 1088.53 6197.07 1087.47L6173.33 1086.67L6171.2 1090.13C6169.87 1092 6162.13 1113.2 6154 1137.07C6100.27 1293.6 6056.67 1405.87 6009.2 1509.33C5990.4 1550.53 5948.93 1633.07 5928.67 1669.87C5861.73 1791.2 5794.67 1886.13 5714.93 1972.53C5695.2 1993.87 5661.87 2026.67 5659.87 2026.67C5658.4 2026.67 5640.67 1997.47 5628 1974C5583.73 1892.4 5555.6 1818.4 5540.8 1745.2C5534.8 1716 5532.8 1721.6 5566.27 1673.2C5627.2 1584.67 5705.33 1466.8 5750.27 1394.8C5830.27 1267.2 5907.33 1126 5948 1032.27C5963.73 996 5965.33 991.733 5965.33 986.133C5965.33 982.533 5964.53 981.333 5960.27 978.933C5947.87 972 5932 949.867 5925.6 930.533C5923.33 923.6 5919.6 908 5917.33 895.733C5915.2 883.467 5912 869.333 5910.53 864.4C5903.87 842.667 5889.87 823.6 5864 800.933C5819.47 762.133 5804.93 746.267 5795.47 726.667C5791.2 717.733 5790 713.6 5789.6 706.267C5788.67 690.533 5795.47 679.467 5808.27 675.867C5824.93 671.333 5865.07 685.467 5892.53 705.733C5906 715.733 5934.27 744 5944.13 757.333C5948.27 762.8 5955.33 775.333 5960 784.933L5968.53 802.667H5990.53C6062.53 802.667 6114.93 821.333 6154.4 860.933C6161.87 868.533 6168 874.4 6168 874C6168 872 6160.27 858.267 6154.4 849.733C6124 805.6 6055.47 780.267 5988.13 788C5981.87 788.667 5976.53 789.067 5976.27 788.667C5976 788.4 5972.8 775.733 5969.33 760.4C5958 711.2 5946.53 667.467 5923.73 585.333C5902.27 507.867 5898.13 484.933 5898 444.667C5898 413.733 5899.73 403.6 5908 385.6C5914.13 372.533 5925.87 359.733 5933.73 357.6C5946.13 354.133 5957.2 363.6 5968.67 387.2C5983.87 418.667 5994.27 459.067 6008 540.667C6021.07 618.533 6031.6 658.133 6048.8 694.133C6056.27 709.867 6064.8 717.2 6068.93 711.6C6069.73 710.667 6068.93 678.133 6067.07 626.667C6062.67 506.933 6062 462.533 6063.87 443.333C6068.4 398.933 6080.93 366.8 6102.53 343.6C6109.87 335.733 6114.8 332.133 6121.2 329.867C6127.73 327.467 6130.4 327.6 6136.67 330.533ZM5090.67 747.333C5100.67 770.267 5121.07 810.133 5131.6 827.733C5152.53 862.267 5180.93 895.6 5195.87 903.067C5214.27 912.267 5226.4 902.533 5227.73 877.733L5228.27 866.667L5240.67 886.533C5253.47 907.067 5265.6 925.6 5277.47 942.667L5284.27 952.667L5283.47 961.333C5280.53 992.933 5279.73 1011.73 5280.4 1040C5282.4 1114.67 5292.4 1170.67 5315.33 1233.73C5323.2 1255.73 5333.73 1279.07 5362.4 1338.67C5404.93 1427.33 5414 1450.67 5425.33 1501.47C5428.67 1516.27 5434.27 1546.8 5435.47 1556.53C5435.87 1560.27 5436.4 1564.8 5436.67 1566.67C5440.67 1594.8 5440.67 1656.13 5436.67 1689.33C5430.67 1738.8 5418.93 1785.47 5400.4 1832.67C5391.2 1856.27 5371.2 1896.4 5362.67 1908.67C5359.07 1913.73 5350.13 1926.93 5342.93 1938C5316.67 1977.47 5304 1993.07 5272.53 2024.53C5209.6 2087.47 5130.67 2139.73 5042.67 2176.67C4984 2201.2 4923.47 2220 4860.67 2233.2C4843.07 2236.93 4824.53 2240.8 4819.33 2242C4808.4 2244.4 4779.07 2248.4 4753.33 2250.93C4741.6 2252 4717.07 2252.67 4682.67 2252.53C4636.93 2252.53 4626.8 2252.13 4606 2249.6C4592.8 2248 4578.67 2246 4574.67 2245.33C4570.67 2244.67 4560.13 2242.8 4551.33 2241.47C4509.47 2234.53 4456.13 2218.4 4412.67 2199.2C4360.27 2176.13 4289.47 2132.93 4243.07 2095.73C4213.87 2072.27 4191.87 2048.4 4176.4 2023.33C4171.6 2015.73 4168.8 2012.53 4166.27 2011.87C4161.6 2010.67 4160.93 2012 4162 2021.07C4166 2056 4132.8 2093.2 4087.73 2104C4028.8 2118.13 3953.07 2076.67 3894 1998C3862.13 1955.6 3843.2 1907.87 3838.67 1858.27C3834.4 1812.93 3848.93 1766.4 3874.93 1741.87C3888.53 1728.93 3902.27 1722.53 3921.73 1720C3958.8 1715.07 4008.93 1735.2 4049.33 1771.2C4057.07 1778.13 4062.67 1780.53 4064.53 1777.6C4066.4 1774.53 4023.2 1572.67 4004.67 1497.33C4001.47 1484.53 3998.93 1473.87 3999.2 1473.73C3999.33 1473.6 4002.27 1478.8 4005.87 1485.33C4019.47 1511.07 4036.8 1534.53 4052.8 1549.2C4071.07 1565.87 4079.33 1568.93 4086.67 1561.6C4095.07 1553.07 4098 1530.8 4096.93 1482.67C4095.73 1434 4092.4 1395.73 4083.87 1336.27C4081.6 1320.53 4080 1307.47 4080.4 1307.2C4080.67 1306.93 4082.93 1312.13 4085.33 1318.93C4094.93 1346.27 4109.47 1371.6 4119.07 1377.33C4133.47 1386.13 4143.73 1372.67 4157.33 1327.33C4172.4 1277.47 4186.93 1212.67 4198.53 1144.67C4203.47 1115.33 4203.73 1114.27 4204.53 1122C4207.87 1152.27 4209.87 1167.6 4212.13 1178.67C4220 1217.2 4227.73 1232 4239.73 1232C4248.67 1231.87 4253.6 1225.6 4266 1198.67C4277.6 1173.33 4289.87 1140.53 4300.4 1106C4309.33 1077.07 4333.47 994.667 4338.93 974.667L4341.87 963.467L4344.13 982C4351.07 1039.2 4365.6 1090.93 4383.33 1121.2C4396 1142.8 4413.6 1150.8 4428.13 1141.6C4436.4 1136.27 4443.73 1127.6 4458.67 1105.2C4472.93 1083.6 4492.27 1046.4 4505.87 1014.53C4515.07 992.667 4547.07 910.533 4558.13 880.4C4561.73 870.667 4564.8 862.933 4564.93 863.2C4565.2 863.333 4564.13 876.133 4562.53 891.467C4559.2 926.4 4557.73 988.533 4559.87 1013.07C4562.4 1043.33 4567.07 1056.13 4577.73 1061.2C4584.67 1064.53 4588.27 1064.67 4596.13 1062C4605.87 1058.67 4618.93 1047.6 4637.73 1026.93C4667.33 994.267 4686.53 969.067 4721.6 917.333C4743.73 884.667 4760.53 856.4 4773.6 830.133C4779.47 818.4 4783.87 810.4 4783.47 812.667C4775.47 858.533 4763.47 906.533 4749.33 950C4740.67 976.533 4738.67 984.933 4738.67 993.867C4738.67 1008.27 4745.07 1014.27 4759.2 1012.93C4798.27 1009.33 4884.67 920.933 4935.33 832.8C4951.2 804.933 4963.2 778.933 4973.33 749.467L4979.6 731.733L4981.2 745.467C4984.8 775.6 4995.6 822 5004.4 845.333C5017.47 879.6 5030 900.267 5042.53 908.133C5050.8 913.467 5056 913.2 5062.53 907.333C5069.47 901.067 5072.8 892.533 5076 873.733C5080.27 847.333 5081.6 825.467 5081.87 776.4C5081.87 750.533 5082.4 729.867 5082.8 730.4C5083.33 730.933 5086.8 738.533 5090.67 747.333ZM2775.47 1209.33C2803.47 1298.8 2850.13 1372.8 2903.6 1412.67C2917.07 1422.67 2943.6 1436.27 2955.33 1439.2C2972.53 1443.6 2981.47 1435.47 2986 1411.33C2990.27 1389.33 2990 1358.8 2984.67 1270.67C2983.6 1252.67 2982.4 1232.53 2982 1226L2981.33 1214L2989.47 1229.2C3040.53 1324.53 3107.47 1392.67 3160.8 1403.6C3177.87 1407.07 3186.67 1401.73 3191.87 1384.8C3195.6 1372.53 3197.87 1345.6 3196.8 1323.33L3196 1304.67L3206.67 1329.33C3220.4 1361.07 3252.67 1426 3266.67 1450C3294.67 1497.87 3323.33 1536.8 3348.27 1560.8C3362.67 1574.8 3371.87 1576.67 3383.87 1568C3395.2 1559.73 3409.07 1536.8 3419.33 1509.33L3423.07 1499.47L3436.8 1564.67C3463.87 1692.93 3480.13 1762.13 3488 1782.53C3493.6 1797.2 3502.27 1806.67 3509.87 1806.67C3522 1806.67 3529.73 1797.87 3544.67 1766.8C3560.53 1733.87 3566.27 1723.2 3567.6 1724C3568.13 1724.27 3571.2 1731.47 3574.4 1740C3581.73 1760.13 3596.27 1789.47 3606.67 1805.2L3614.93 1817.73L3611.6 1823.87C3600.67 1844 3595.47 1864.27 3595.47 1887.33C3595.33 1903.73 3597.33 1919.87 3600.13 1924.13C3602.53 1927.87 3603.47 1922.8 3602.27 1911.73C3600.93 1898.67 3602.67 1880.4 3606.93 1864.67L3609.73 1854L3611.6 1861.73C3612.53 1865.87 3614.27 1871.2 3615.47 1873.47C3618.8 1880 3628 1889.33 3636.4 1894.8C3649.2 1903.07 3670.67 1906.27 3680 1901.33C3683.07 1899.73 3683.73 1891.87 3681.07 1889.6C3680.13 1888.93 3672 1887.07 3662.93 1885.47C3643.6 1882.13 3633.33 1877.6 3626.13 1869.2C3620.67 1862.8 3616 1851.47 3616 1844.53C3616 1839.87 3620.4 1829.33 3622.4 1829.33C3623.07 1829.33 3626.67 1833.2 3630.53 1837.87C3638.4 1847.6 3648 1853.47 3651.33 1850.67C3654 1848.4 3653.87 1846 3650.13 1835.2C3646.8 1825.87 3642.67 1807.6 3642.67 1802.8C3642.67 1800 3655.33 1788 3658.27 1788C3659.2 1788 3660 1788.93 3660 1790.13C3660 1794.13 3677.07 1843.2 3684.67 1861.2C3696.93 1890.27 3713.2 1921.47 3728.8 1945.73C3732 1950.67 3734.67 1955.07 3734.67 1955.33C3734.67 1955.6 3730.27 1958.8 3725.07 1962.4C3660.4 2005.87 3578.93 2010.53 3538 1973.07C3533.2 1968.67 3529.07 1965.2 3528.8 1965.47C3528.67 1965.73 3526.8 1971.73 3524.8 1978.67L3521.07 1991.47L3509.6 1998.93C3503.2 2002.93 3488.13 2011.87 3476 2018.67C3421.87 2049.07 3413.2 2054.13 3399.2 2063.33C3338 2104 3272 2174 3242.93 2229.33C3234.67 2244.93 3225.6 2268.27 3220.67 2286L3216.93 2299.33L3199.33 2307.87C3172 2320.93 3160 2331.6 3141.07 2359.73L3131.73 2373.6L3116.93 2380.67C3096.67 2390.27 3056.4 2406.13 3027.47 2416C2850.93 2475.73 2668.27 2482.13 2483.6 2435.2C2415.6 2417.87 2337.47 2389.87 2293.6 2367.2C2167.47 2301.73 2076.8 2220.67 2031.2 2132.53C2015.6 2102.13 2004.93 2070.4 1999.33 2037.33C1996.27 2019.2 1995.33 1985.2 1997.2 1966C1999.2 1946.4 1999.73 1943.73 2008.4 1908L2015.33 1879.33L2016.13 1898.67C2017.47 1930.4 2024.13 1956.93 2036.13 1978.13C2043.07 1990.53 2058.8 2007.2 2068.93 2012.8C2076.4 2016.93 2076.8 2018.67 2070.27 2018.67C2065.47 2018.67 2049.87 2022.67 2042.67 2025.87C2038.27 2027.73 2039.33 2027.87 2057.33 2027.07C2079.33 2026.13 2094.27 2027.73 2111.73 2032.8C2129.87 2038.13 2142 2044.13 2168 2061.2L2171.2 2063.33L2168.67 2058.93C2162.53 2048.53 2149.47 2037.2 2134.4 2029.33L2124.8 2024.27L2130.8 2022.67C2160.8 2014.67 2189.2 1980.8 2204.53 1934.53C2221.07 1884.93 2219.47 1839.33 2199.07 1776.67C2180.67 1720.13 2163.2 1698.8 2128 1689.87C2117.87 1687.33 2100.67 1687.87 2089.87 1691.2C2069.07 1697.6 2051.6 1718.13 2034.93 1755.2L2028.67 1769.33L2027.73 1723.73C2026.67 1665.87 2023.6 1627.07 2015.2 1565.33C2011.73 1539.47 2001.73 1477.87 1997.6 1455.6L1995.07 1442.53L2009.2 1431.07C2016.93 1424.67 2035.07 1407.73 2049.47 1393.47L2075.47 1367.33L2070.93 1384.67C2062.67 1416.53 2063.6 1438 2073.73 1447.73C2079.2 1452.93 2083.73 1454.67 2092.67 1454.67C2128.53 1454.67 2213.73 1395.2 2304.4 1306.8L2322.67 1288.93L2316.67 1301.73C2306.4 1323.47 2305.6 1334.13 2314.27 1337.47C2331.07 1344 2397.87 1323.2 2460 1292.13C2518 1263.07 2564 1230.53 2607.47 1187.73L2620.93 1174.4L2621.73 1201.6C2622.53 1232.27 2624.93 1251.47 2631.33 1276.8C2641.47 1316.53 2658 1348 2678.8 1367.33C2701.07 1387.87 2720.27 1387.07 2731.33 1365.2C2738.4 1351.47 2742.8 1328.13 2749.33 1271.33C2754.4 1227.73 2756.27 1214.27 2760.93 1190L2764.4 1171.33L2766.93 1180.67C2768.4 1185.73 2772.27 1198.67 2775.47 1209.33ZM5411.47 1219.2C5435.73 1225.6 5459.6 1249.33 5477.73 1285.07C5501.2 1331.07 5508.53 1386.67 5497.33 1434.27C5488.27 1472.8 5466.53 1501.07 5442.93 1504.8L5437.73 1505.6L5436 1498.53C5432.8 1484.8 5422.4 1452.53 5414.93 1433.33C5410.93 1422.67 5406.8 1410.27 5405.87 1405.6L5404.27 1397.2L5410.53 1398.27C5423.33 1400.4 5432.93 1398.27 5442.27 1391.2C5449.47 1385.73 5454.53 1372.67 5452.53 1364.67L5451.73 1361.2L5447.73 1366.53C5441.33 1375.33 5429.2 1381.87 5419.33 1381.87C5414.27 1381.87 5406.8 1379.6 5403.73 1377.07C5400.4 1374.27 5399.87 1372.67 5398.53 1360.93C5396.93 1346.67 5397.47 1327.47 5399.87 1319.87C5403.33 1308.53 5411.73 1300.8 5422.4 1299.2C5428 1298.4 5439.2 1299.6 5448 1302.13C5451.33 1303.07 5451.33 1303.07 5448.8 1300.13C5447.33 1298.53 5442.4 1295.33 5437.73 1293.07C5426 1287.33 5413.33 1287.07 5402.67 1292.27C5388.4 1299.33 5381.47 1313.07 5380.13 1337.07L5379.33 1352.27L5357.73 1307.73C5338.53 1268.53 5336 1262.4 5336 1256.67C5336 1248.27 5339.07 1243.2 5348.13 1236C5367.07 1221.07 5392.8 1214.27 5411.47 1219.2ZM2131.73 1702.93C2153.87 1710 2174 1731.87 2185.2 1761.33C2191.47 1777.73 2191.6 1778.8 2186.13 1771.87C2176.93 1760.27 2163.87 1753.33 2151.33 1753.33C2124.27 1753.33 2097.73 1789.33 2086.4 1841.73C2083.87 1853.2 2083.47 1859.47 2083.47 1881.33C2083.47 1905.33 2083.73 1908.4 2087.07 1920.53C2094.67 1948.67 2108 1967.87 2126.27 1976.93C2135.33 1981.47 2137.2 1981.87 2147.07 1981.87C2154.27 1981.73 2159.87 1980.93 2163.2 1979.6C2166 1978.27 2168.67 1977.33 2169.07 1977.33C2169.6 1977.33 2165.47 1981.87 2160 1987.47C2140.93 2006.67 2120.13 2016.4 2097.2 2016.53C2085.07 2016.67 2084 2016.4 2074.4 2011.6C2051.47 2000.4 2036 1972.67 2028.8 1930.67C2014.93 1848.67 2036.4 1755.73 2078.27 1717.47C2086.93 1709.47 2100.13 1701.6 2107.33 1700C2113.07 1698.8 2122.13 1699.87 2131.73 1702.93ZM3646 1718.67C3647.07 1727.87 3649.6 1743.6 3651.6 1753.6L3655.07 1771.87L3647.87 1778.4L3640.67 1785.07L3639.6 1777.6C3638.13 1767.87 3639.33 1728.53 3641.47 1711.33C3642.53 1704 3643.33 1698.93 3643.6 1700C3643.73 1701.07 3644.8 1709.47 3646 1718.67ZM2038.13 1766.13C2036.4 1770.4 2033.07 1780.13 2030.67 1787.6C2028.4 1795.2 2026.13 1801.33 2025.73 1801.33C2024.53 1801.33 2026.93 1787.87 2028.93 1782.8C2032.53 1773.73 2040.4 1757.33 2040.93 1757.73C2041.07 1758 2039.87 1761.73 2038.13 1766.13ZM2165.6 1760.53C2193.73 1774.13 2210.8 1822.8 2206.67 1877.47C2204.93 1899.2 2203.47 1906.8 2198.53 1920.53C2185.07 1957.73 2156 1974.8 2129.07 1961.6C2106.8 1950.67 2090.93 1921.07 2088.53 1886.13C2087.73 1874.53 2089.33 1842.8 2090.4 1851.33C2091.2 1858.4 2094.53 1868.93 2096.67 1870.67C2098.27 1872 2098.67 1875.6 2098.67 1887.33C2098.67 1912.93 2104.93 1930.67 2118.53 1944C2130.13 1955.2 2141.87 1958.27 2155.87 1953.73C2161.6 1952 2162.53 1951.2 2161.87 1949.07C2161.33 1947.33 2162.4 1945.2 2165.6 1942.27C2172.13 1936 2182.27 1923.33 2185.2 1917.6C2196.53 1895.33 2193.87 1844.13 2180.27 1822.93C2176.93 1817.47 2168.4 1808.67 2164.8 1806.8C2162.13 1805.33 2161.6 1803.87 2161.07 1796.13C2160.27 1784.93 2155.73 1774.67 2149.2 1768.67C2144.13 1764.13 2141.87 1763.47 2134.67 1763.73C2132.13 1763.87 2132.93 1763.07 2138 1760.53C2143.47 1757.87 2146.13 1757.33 2152.67 1757.73C2157.07 1758 2162.93 1759.2 2165.6 1760.53ZM2140.4 1780.4C2148 1788.13 2150.8 1802.93 2147.47 1818.67C2142.27 1843.2 2125.47 1864 2110.67 1864C2101.87 1864 2094.67 1851.47 2094.67 1836.13C2094.67 1822.53 2104.27 1798.27 2114.13 1786.8C2124.4 1774.93 2132.8 1772.93 2140.4 1780.4ZM5470.67 1833.73C5477.6 1873.87 5490.27 1914.67 5509.6 1959.33C5548.13 2048.4 5604.8 2129.47 5681.2 2204.4L5702.67 2225.47L5700.13 2230.4C5695.87 2238.53 5674.67 2266.53 5659.73 2283.47C5622.27 2325.87 5532 2406.8 5481.33 2443.33C5421.47 2486.53 5354.53 2515.07 5305.87 2518.13L5292.4 2519.07L5279.07 2493.87C5253.07 2444.8 5218.53 2389.87 5187.6 2348.13C5171.87 2327.07 5154.67 2306.13 5153.73 2307.07C5153.47 2307.47 5167.2 2332.53 5184.4 2362.93C5268.53 2511.33 5331.07 2628.67 5347.33 2668.53C5413.2 2830 5455.33 3020.67 5461.33 3184C5464.13 3258.53 5462.27 3346.8 5456.67 3414C5454.27 3442.8 5454.4 3441.73 5456 3440.67C5456.8 3440.13 5457.07 3441.33 5456.67 3443.6C5456.27 3445.6 5454.8 3455.47 5453.2 3465.33C5444.53 3522 5427.07 3586.67 5407.87 3634.13C5345.2 3789.33 5236.13 3885.33 5080 3922.53C5002 3941.07 4910.13 3943.6 4811.33 3929.87C4754.27 3921.87 4710.13 3910.93 4678.8 3896.8C4600.93 3861.6 4537.2 3794 4491.2 3698C4462.67 3638.27 4441.2 3568.4 4428 3493.33C4424.67 3473.47 4418.27 3425.2 4419.07 3424.53C4419.2 3424.4 4424.8 3422.13 4431.33 3419.33C4450.8 3411.33 4471.47 3400.13 4478.27 3394.13L4484.53 3388.4L4482.67 3373.07C4477.6 3328.8 4485.87 3254.53 4510 3125.87C4525.87 3041.6 4532.67 2985.6 4536.13 2908C4538.4 2857.07 4535.6 2776.8 4530 2730C4527.87 2712.53 4521.47 2681.33 4520 2681.33C4519.6 2681.33 4519.87 2686.93 4520.8 2693.6C4525.6 2728.8 4525.6 2732 4519.07 2772C4479.07 3020.27 4441.6 3192.13 4422 3217.87C4405.47 3239.6 4349.73 3254.67 4266.53 3260C4245.07 3261.33 4244 3261.33 4227.87 3258C4161.33 3244 4105.2 3216.93 4062.8 3178.4C4054.53 3171.07 4054.4 3170.67 4054.93 3165.07C4055.33 3161.87 4057.07 3154.27 4058.93 3148C4063.87 3131.73 4083.47 3049.73 4095.2 2996.67C4106.67 2944.8 4120.13 2880.4 4141.33 2775.33C4162.67 2669.6 4172.27 2632.13 4188.93 2590C4198.53 2565.6 4215.6 2532.27 4228.4 2513.2C4272.4 2447.07 4344.27 2383.33 4446.4 2319.47C4462.13 2309.6 4465.33 2308.53 4465.33 2312.8C4465.33 2313.87 4468.4 2323.87 4472 2335.07C4491.73 2394.8 4532.8 2454.13 4580.67 2492C4631.73 2532.4 4681.33 2549.87 4739.2 2547.6C4791.47 2545.6 4837.47 2525.87 4874 2490C4909.07 2455.47 4920.4 2426 4920.27 2369.33C4920.27 2345.6 4918.13 2328.13 4912.53 2302.93C4908.8 2286 4907.47 2281.6 4898 2254.93C4892 2237.73 4891.33 2232 4895.2 2232C4898.8 2232 4951.73 2216.93 4975.47 2209.2C5132.53 2158 5253.73 2076 5337.33 1964.67C5344.53 1955.07 5354.27 1941.33 5358.93 1934C5371.07 1915.33 5378.8 1906.67 5400 1888C5420.27 1870.27 5449.07 1841.2 5460.13 1827.47C5464 1822.67 5467.33 1818.93 5467.73 1819.2C5468 1819.6 5469.33 1826.13 5470.67 1833.73ZM1638.13 2132.13C1648.4 2137.2 1668.53 2156.27 1678 2169.87C1682.8 2176.67 1715.6 2221.33 1718.4 2224.67C1718.93 2225.33 1724.53 2232.8 1730.67 2241.2C1736.93 2249.6 1748.8 2265.6 1756.93 2276.53C1765.2 2287.6 1772.8 2297.87 1773.87 2299.33C1774.93 2300.8 1779.73 2307.33 1784.67 2314C1789.47 2320.53 1797.07 2331.33 1801.6 2338C1806 2344.53 1810.13 2350.27 1810.53 2350.67C1811.07 2351.07 1818 2361.2 1826 2373.33C1833.87 2385.47 1841.47 2396.8 1842.67 2398.67C1848.13 2406.93 1863.2 2434.67 1873.6 2456C1884.8 2478.8 1889.6 2489.73 1900.27 2516.67C1903.07 2524 1906.4 2532.13 1907.33 2534.67C1911.07 2543.73 1915.87 2557.87 1915.47 2558.4C1915.2 2558.67 1909.33 2553.07 1902.53 2546C1895.73 2538.93 1884.53 2528.8 1877.6 2523.6C1841.73 2495.87 1831.47 2490 1799.33 2478.8L1781.2 2472.4L1777.33 2461.87C1758.93 2410.27 1730.67 2366.13 1674.67 2301.33C1637.6 2258.4 1619.73 2229.87 1607.87 2194.67C1604 2183.33 1603.47 2179.87 1602.93 2162.8C1602.27 2140.93 1603.47 2135.07 1609.87 2129.73C1615.6 2124.93 1625.6 2125.73 1638.13 2132.13ZM4819.33 2270C4820 2271.47 4823.47 2277.47 4826.93 2283.2C4846.8 2315.87 4847.73 2367.6 4829.33 2406.13C4818.4 2428.8 4800.13 2445.73 4776.93 2454.67C4749.2 2465.47 4716.27 2466.53 4685.47 2457.87C4668.4 2453.07 4644.13 2440.4 4630 2428.93C4600 2404.53 4579.73 2367.33 4572.4 2324C4570.27 2310.8 4569.07 2251.87 4570.93 2250C4571.47 2249.47 4579.6 2250 4588.93 2251.2C4627.6 2256.13 4637.2 2256.67 4688.67 2256.53C4741.07 2256.53 4768.13 2254.8 4806 2248.93L4816.67 2247.33L4817.47 2257.33C4817.87 2262.8 4818.8 2268.53 4819.33 2270ZM1731.73 2406.27L1742.67 2407.07L1757.33 2436.53C1765.47 2452.67 1772 2466.67 1772 2467.47C1772 2468.67 1768.8 2467.87 1762.53 2465.33C1751.2 2460.67 1742.27 2455.47 1723.07 2442.4C1719.87 2440.27 1710.67 2435.07 1702.27 2430.8C1673.73 2416.27 1658.13 2417.07 1650.13 2433.73C1640.8 2452.93 1643.33 2482.53 1656.4 2504.53C1666.27 2521.47 1680.13 2536.4 1695.47 2546.67C1703.87 2552.27 1705.07 2553.87 1707.47 2562.4C1710 2570.8 1714.67 2576.67 1720.4 2578.53C1722.8 2579.2 1731.6 2580.8 1740 2581.87C1767.07 2585.33 1784.13 2595.6 1790.13 2612.13C1792.67 2619.2 1792.93 2636 1790.67 2647.47C1789.33 2654.4 1788.67 2655.73 1786.13 2655.73C1784.67 2655.73 1775.6 2658.13 1766 2661.07C1720.27 2675.07 1707.87 2674.13 1675.73 2653.87C1662.93 2645.73 1646.4 2630.53 1639.2 2620C1629.6 2606.13 1622.4 2587.6 1617.73 2564.53C1614.4 2548 1614.4 2498.13 1617.6 2480.67C1620.67 2464.67 1626 2446.27 1630.13 2437.6C1637.33 2422.8 1653.73 2411.2 1672.67 2407.47C1682.67 2405.47 1713.73 2404.8 1731.73 2406.27ZM3054 2430.93C3055.2 2434.8 3056.4 2441.6 3056.93 2446.13L3057.73 2454.27L3051.87 2458.93C3042.53 2466.4 3032.53 2472.67 2989.33 2498.67C2926.4 2536.4 2907.33 2550.13 2889.07 2570.93C2878.13 2583.6 2870 2594.93 2860.8 2610.67L2853.6 2622.93L2850.67 2616.53C2845.6 2605.2 2835.07 2572 2831.47 2555.6C2829.47 2546.93 2826.27 2529.6 2824.13 2517.07C2821.47 2501.33 2819.47 2493.33 2817.73 2490.8C2816.27 2488.93 2814.8 2485.07 2814.27 2482.4C2813.33 2476.4 2811.33 2477.07 2838.67 2474C2898.8 2467.2 2977.47 2449.33 3034.67 2429.47C3043.07 2426.53 3050.4 2424.13 3050.93 2424.13C3051.47 2424 3052.8 2427.2 3054 2430.93ZM1687.07 2431.87C1688.8 2432.53 1698.53 2438.93 1708.8 2446.13C1745.87 2472.27 1752.27 2475.47 1786.13 2484.8C1820 2494.13 1828.67 2498.93 1864.4 2528.4C1884.53 2544.93 1902.53 2562.53 1907.47 2570.13C1908.93 2572.27 1910.93 2575.07 1912.27 2576.4C1916.13 2580.8 1927.73 2605.6 1932.67 2620.13C1943.07 2651.33 1947.73 2681.47 1949.2 2725.33L1950.13 2754L1956.8 2764.13C1960.53 2769.6 1968.67 2780 1975.07 2787.2C1997.07 2811.87 2026.4 2846.27 2071.33 2900C2096.27 2929.73 2131.87 2972 2150.67 2994C2207.33 3060.27 2242.67 3103.73 2258.53 3126.27C2261.73 3130.93 2265.2 3134.67 2266.13 3134.67C2266.93 3134.67 2272.53 3139.87 2278.27 3146.27C2284 3152.8 2293.87 3163.33 2300 3169.87C2306.27 3176.27 2312.8 3183.87 2314.67 3186.4C2316.53 3189.07 2319.47 3192.93 2321.2 3194.93C2328.13 3202.93 2324.93 3196.8 2312.8 3178.4L2300.13 3159.33L2308.8 3158.93C2330.67 3158 2359.2 3166.4 2397.2 3185.33C2450 3211.6 2470.67 3230.13 2470.67 3251.2C2470.67 3256.13 2470 3258.93 2468.8 3259.6C2467.73 3260.13 2461.73 3268.4 2455.33 3278C2412.4 3341.87 2367.87 3382.53 2324.67 3397.07C2294.4 3407.33 2263.6 3404.93 2236.13 3390.4C2227.6 3385.87 2214.4 3377.33 2212 3374.67C2211.6 3374.27 2208 3371.33 2204 3368.13C2196.67 3362.13 2193.2 3358.93 2171.47 3338.53C2132.8 3302 2092.53 3257.73 2064 3220C2062.13 3217.6 2059.33 3214.13 2057.6 3212.13C2054 3208.13 2021.73 3165.87 2013.87 3154.8C2010.93 3150.67 2005.07 3142.8 2000.93 3137.33C1993.07 3126.93 1992 3125.47 1986.93 3118.4C1985.2 3116 1980.13 3108.8 1975.6 3102.4C1971.07 3096.13 1966.4 3089.6 1965.33 3088C1964.27 3086.4 1961.47 3082.53 1959.2 3079.47C1956.93 3076.53 1952.8 3070.4 1950 3066C1947.07 3061.6 1944.4 3057.73 1944 3057.33C1942.93 3056.4 1895.47 2985.2 1894.8 2983.47C1894.53 2982.67 1891.73 2978.4 1888.8 2974C1885.73 2969.6 1882.53 2964.8 1881.73 2963.33C1875.47 2953.33 1864.53 2935.87 1862 2932C1858.27 2926 1848.67 2910.4 1844 2902.67C1842 2899.33 1837.2 2891.6 1833.33 2885.33C1824.8 2871.33 1816.93 2857.33 1817.6 2856.8C1817.73 2856.53 1821.33 2854.13 1825.33 2851.33C1832.8 2846.27 1844.67 2834.8 1843.6 2833.87C1843.2 2833.47 1839.2 2835.73 1834.67 2838.8C1824.13 2845.73 1812.93 2850.8 1799.33 2854.8C1790.67 2857.33 1785.47 2857.87 1772 2857.87C1757.07 2857.87 1754.13 2857.47 1744.67 2854.13C1734.27 2850.53 1719.6 2843.6 1708.67 2837.33C1688.4 2825.87 1658.4 2798.53 1639.33 2774.13C1637.2 2771.33 1634 2767.47 1632.27 2765.47C1630.67 2763.6 1624.8 2756.27 1619.33 2749.07L1609.33 2736.27L1613.07 2733.87C1615.07 2732.53 1618.4 2729.73 1620.4 2727.47C1624.13 2723.6 1624.4 2723.6 1630.13 2725.07C1642 2728.27 1655.2 2726.53 1667.47 2720.27C1676.93 2715.33 1690.93 2702.27 1698.53 2691.33C1704.13 2683.07 1706.4 2680.8 1708.53 2681.07C1723.87 2683.2 1739.73 2680.67 1762.67 2672.4C1782 2665.33 1782.8 2665.07 1784.93 2662.8C1787.33 2660.4 1787.47 2659.07 1783.33 2685.33C1780.53 2702.8 1781.33 2730 1785.2 2746.67C1788.27 2759.73 1793.6 2776.4 1792.67 2769.6C1791.2 2759.07 1789.2 2707.87 1789.87 2698.67C1790.27 2693.07 1793.07 2680.27 1796 2670.13C1803.2 2645.2 1804.27 2637.87 1802.67 2623.6C1799.2 2593.33 1785.47 2577.87 1748 2562.13C1741.07 2559.2 1733.73 2555.73 1731.73 2554.4C1729.87 2553.07 1727.87 2552 1727.47 2552C1726 2552 1704.8 2538.4 1694.67 2530.93C1668.67 2511.6 1655.07 2489.2 1653.6 2463.2C1653.07 2452 1653.2 2450.8 1656.4 2445.87C1664.53 2433.2 1676.27 2427.73 1687.07 2431.87ZM1618 2447.6C1615.2 2454.4 1611.73 2467.33 1609.87 2478C1606.93 2494.4 1605.87 2544 1607.87 2560.67C1612.53 2596.8 1626 2625.6 1649.47 2649.47C1658.53 2658.53 1675.2 2669.07 1689.33 2674.53C1694.13 2676.4 1698.27 2678.53 1698.4 2679.33C1698.93 2682.8 1682.4 2700.93 1673.47 2706.53C1670.13 2708.67 1663.47 2711.73 1658.67 2713.33C1638.8 2720 1622.4 2713.6 1597.2 2688.93C1580.93 2673.2 1573.6 2662.93 1562.8 2640.67C1536.8 2587.47 1530.93 2519.47 1549.6 2488.67C1560.8 2470.27 1577.6 2457.73 1602 2449.47C1616.13 2444.67 1619.33 2444.27 1618 2447.6ZM2667.87 2471.47C2668.13 2471.73 2665.73 2472 2662.27 2472C2658.93 2472 2655.87 2471.47 2655.47 2470.8C2654.8 2469.73 2666.67 2470.4 2667.87 2471.47ZM1532.8 2521.6C1530.93 2532 1530.4 2560 1531.87 2573.07C1535.87 2606.8 1548.8 2642.53 1567.87 2672C1578.67 2688.67 1598.27 2707.73 1615.47 2718.27C1618 2719.73 1618 2719.73 1615.33 2721.87C1613.87 2723.07 1608.53 2725.2 1603.6 2726.8C1582.8 2733.33 1562.27 2727.33 1544.27 2709.47C1502.27 2668 1487.33 2582.67 1514 2538C1518.8 2530.13 1530.13 2517.33 1532.4 2517.33C1533.07 2517.33 1533.33 2519.33 1532.8 2521.6ZM3069.73 2554.53L3068.93 2569.47L3055.47 2576C3039.33 2583.87 3028 2587.6 3014.93 2589.6C3004 2591.2 3000.93 2590 3001.6 2584.13C3002 2581.2 3006.4 2578 3032 2562.67C3048.53 2552.8 3063.87 2543.33 3066 2541.73C3068.27 2540.13 3070.13 2539.07 3070.27 2539.2C3070.53 2539.33 3070.27 2546.27 3069.73 2554.53ZM2721.87 2550C2723.07 2553.33 2721.33 2561.33 2717.2 2571.47C2714.93 2576.8 2712.93 2582.8 2712.53 2584.8C2711.87 2589.2 2705.87 2598.4 2702.4 2600.53C2698.8 2602.8 2695.47 2599.87 2694.93 2594.27C2694.53 2589.07 2695.47 2586.8 2707.2 2565.07C2715.6 2549.2 2719.87 2544.93 2721.87 2550ZM1734.67 2569.87C1734.67 2570.4 1733.73 2570.53 1732.53 2570.13C1731.33 2569.73 1728.67 2569.33 1726.53 2569.33C1722.67 2569.33 1716 2564.4 1716 2561.47C1716 2560.8 1720.13 2562.13 1725.33 2564.4C1730.4 2566.8 1734.67 2569.2 1734.67 2569.87ZM2676.8 2600.93C2674.67 2610.53 2672 2627.73 2671.2 2636.4C2670.27 2647.73 2671.73 2654.27 2677.33 2663.07C2683.2 2672.27 2698.13 2680.93 2705.07 2679.07C2706.4 2678.8 2711.33 2672.93 2716 2666.27C2726.53 2651.2 2752.53 2625.07 2763.33 2618.67C2780.8 2608.4 2796.53 2605.73 2811.87 2610.53C2824.8 2614.53 2831.6 2619.6 2848.4 2637.47C2852.13 2641.6 2856.13 2640.4 2867.33 2631.87C2879.47 2622.8 2903.87 2610.4 2914.53 2608C2925.87 2605.33 2939.47 2606.8 2950 2611.87C2967.87 2620.13 2981.6 2631.87 3005.47 2658.8C3015.07 2669.6 3025.2 2680 3028 2682C3034.13 2686.27 3041.87 2689.2 3047.2 2689.33C3050.27 2689.33 3050.8 2689.73 3050 2691.6C3044.13 2706.93 3037.07 2742.27 3034.53 2768.4C3032.53 2789.87 3033.73 2849.33 3036.53 2870.53C3042.93 2918.67 3048.53 2938 3063.07 2961.6C3065.73 2966.13 3066.53 2968.8 3066 2970.93C3063.87 2978 3049.6 2996.67 3037.07 3008.8C2998.13 3046.8 2989.47 3055.73 2980.67 3067.2C2978.53 3070 2973.73 3076 2970.13 3080.53C2963.6 3088.67 2941.33 3121.73 2941.33 3123.2C2941.33 3123.6 2939.2 3127.2 2936.67 3131.2C2915.87 3163.87 2898 3217.33 2891.87 3266C2889.33 3286 2889.73 3328.8 2892.67 3342C2900.93 3380.27 2918.53 3422.13 2933.33 3439.07C2943.07 3450 2952.27 3453.07 2961.33 3448.13L2966 3445.73L2974.13 3470.53C2990 3518.93 3007.87 3545.33 3028.8 3550.93L3034.4 3552.53L3036 3562.53C3041.73 3598.93 3057.47 3641.73 3077.47 3675.6C3090.27 3697.2 3098.93 3705.33 3109.07 3705.33C3117.6 3705.33 3124.13 3695.33 3127.47 3677.47C3128.4 3671.87 3129.87 3652 3130.53 3633.33C3131.73 3604.53 3134.53 3578.4 3136.67 3576.27C3136.93 3575.87 3138.13 3576.67 3139.33 3577.87C3142 3580.4 3141.73 3580.4 3147.33 3578.13C3153.73 3575.47 3171.73 3557.07 3177.73 3547.07C3193.73 3520.67 3207.87 3478.8 3217.33 3430C3221.07 3410.93 3220.8 3411.47 3224.27 3410C3230.53 3407.2 3248 3370.53 3256.67 3342C3259.07 3334 3261.47 3327.33 3262 3327.47C3262.4 3327.6 3272.67 3332 3284.53 3337.47L3306.27 3347.2L3308.13 3375.2C3309.2 3392 3309.87 3418.27 3309.6 3440.53C3309.33 3461.07 3309.73 3487.73 3310.53 3499.87C3311.33 3512 3312.27 3529.87 3312.8 3539.33L3313.6 3556.67L3302.53 3564.13C3261.87 3591.2 3221.73 3628.4 3147.47 3707.87C3077.33 3782.93 3077.07 3783.2 3019.73 3852C3001.73 3873.6 2979.47 3899.47 2970.4 3909.33C2955.6 3925.2 2906.53 3972.4 2899.87 3977.07C2897.87 3978.4 2891.2 3978.53 2865.07 3977.33C2772.13 3973.47 2738.8 3969.2 2664 3951.87C2630.67 3944.13 2617.07 3940.4 2600.53 3934.53C2554.27 3918.27 2531.2 3896.4 2521.07 3859.33C2518.53 3849.87 2518.13 3845.33 2518.13 3818.67C2518.13 3791.33 2518.53 3785.47 2523.07 3752.67C2525.73 3732.8 2528.4 3711.87 2528.93 3706.13L2529.73 3695.47L2536.53 3719.47C2540.53 3733.6 2543.47 3742 2543.73 3740.13C2544 3738.27 2543.6 3729.33 2542.8 3720.13C2542 3710.8 2539.87 3684.27 2538 3660.8C2535.2 3624.4 2530.13 3583.33 2521.33 3524.67C2514 3476.27 2506 3394 2502.67 3331.33C2498.8 3260 2498.8 3103.47 2502.67 3037.73C2507.6 2953.33 2517.47 2872.53 2527.47 2834C2535.2 2804.13 2551.33 2761.2 2565.6 2732.93C2587.2 2689.73 2610.53 2656.13 2638 2628.53C2651.73 2614.67 2672.93 2597.6 2676.4 2597.33C2677.07 2597.33 2677.2 2598.93 2676.8 2600.93ZM3464.93 2606.67C3523.87 2638.4 3575.47 2693.87 3617.07 2770C3649.33 2829.07 3666.27 2894.27 3677.33 3001.33C3685.87 3085.2 3689.07 3132.67 3690.27 3194.53C3691.07 3239.33 3691.07 3240.4 3688.53 3239.6C3687.2 3239.07 3688.13 3240.27 3690.67 3242.27C3698.8 3248.53 3707.73 3258.53 3710.93 3265.07C3713.2 3269.87 3714 3273.6 3714 3280.67C3714 3292.8 3710.27 3300.53 3699.2 3311.73C3687.47 3323.47 3666.67 3333.07 3632.53 3342.4L3622.93 3345.07L3622.13 3332.27C3621.6 3325.07 3620.93 3316.13 3620.4 3312.13C3619.6 3304.13 3618.4 3304.67 3630 3307.47L3633.87 3308.4L3629.6 3302.67C3626.67 3298.53 3622.27 3295.2 3614.4 3291.07C3605.2 3286.13 3597.07 3283.47 3565.33 3275.33C3522.67 3264.27 3510.27 3261.73 3470.93 3255.87C3424.4 3248.93 3386 3249.07 3338.93 3256.13C3329.2 3257.6 3320.67 3258.4 3319.73 3257.87C3318.8 3257.2 3318.67 3257.47 3319.33 3258.67C3320.13 3260 3319.6 3260.27 3317.2 3259.6C3313.33 3258.53 3289.33 3270 3289.33 3272.93C3289.33 3274.27 3290 3274.4 3291.73 3273.6C3292.93 3272.93 3297.2 3272 3301.2 3271.47L3308.4 3270.53L3307.47 3296.13C3306.93 3310.27 3306.27 3322.13 3306 3322.53C3305.07 3323.33 3290.27 3319.07 3277.33 3314.27C3264.27 3309.33 3265.07 3311.87 3268.67 3286.67C3271.6 3265.87 3272.8 3206.93 3270.8 3184.4C3268.4 3158.67 3265.07 3143.2 3253.07 3100.13L3246.13 3075.6L3251.2 2995.47L3256.27 2915.33L3267.07 2905.33C3281.6 2892 3309.07 2864.53 3313.73 2858.67C3333.6 2833.87 3351.6 2802.67 3358.53 2781.33C3365.2 2760.67 3367.73 2741.2 3365.6 2726.67C3364.4 2718.67 3364.53 2717.87 3367.2 2716.13C3372.93 2712.13 3390 2695.07 3399.73 2683.33C3419.07 2660.4 3436 2630.8 3442.67 2608.4L3446 2597.6L3450.67 2599.47C3453.2 2600.53 3459.6 2603.73 3464.93 2606.67ZM2599.87 2657.2C2583.2 2680.93 2578.4 2688.13 2571.73 2699.87C2558.8 2722.13 2539.07 2763.6 2534.13 2778.67C2527.6 2798.8 2518.13 2836.93 2512.13 2867.47C2493.6 2960.8 2485.33 3069.07 2485.33 3220.53V3280.27L2482.4 3279.6C2480.67 3279.07 2476.8 3278.4 2473.73 3277.87C2470.53 3277.33 2468 3276.67 2468 3276.27C2468 3275.87 2469.47 3273.07 2471.33 3269.87C2476 3261.87 2479.07 3249.07 2478 3242.27C2476.27 3231.73 2470.8 3222.53 2459.47 3211.2C2443.07 3194.93 2419.6 3180.67 2387.2 3167.47C2358.67 3155.87 2335.2 3150.8 2309.33 3150.67L2295.33 3150.53L2287.07 3139.6C2282.53 3133.6 2274.53 3123.33 2269.33 3116.8C2264.27 3110.27 2260.27 3104.67 2260.53 3104.4C2260.8 3104.13 2263.87 3102.8 2267.47 3101.47C2271.6 3099.87 2273.87 3098.13 2274.13 3096.4C2274.8 3092.8 2303.2 3022 2312.67 3000.67C2324.13 2974.8 2344.93 2931.33 2363.47 2894.67C2399.87 2822 2426.4 2782.53 2463.2 2746C2499.07 2710.27 2541.07 2681.07 2585.33 2661.07C2601.2 2654 2602.4 2653.6 2599.87 2657.2ZM3242 2931.6C3241.2 2937.73 3236.4 3000 3235.2 3021.87L3234.27 3037.73L3223.87 3009.87C3214.27 2984.13 3208.4 2966 3206 2954.93C3205.33 2951.87 3205.6 2950.67 3206.93 2950.67C3207.87 2950.67 3215.87 2945.33 3224.67 2938.8C3233.47 2932.27 3241.07 2926.8 3241.73 2926.8C3242.27 2926.67 3242.4 2928.93 3242 2931.6ZM6279.07 3112.53C6366.93 3126.8 6426.27 3220.53 6461.2 3400C6478.27 3488 6501.6 3678 6519.87 3880C6525.87 3946.27 6526.27 3951.47 6524.53 3951.2C6497.07 3947.07 6483.07 3946.13 6452 3946.13C6415.47 3946.27 6401.33 3947.6 6372.67 3954C6340 3961.2 6308.67 3973.6 6281.07 3990.27L6265.33 3999.73L6262.53 3990.13C6256 3967.73 6243.73 3928.67 6225.2 3870.67C6185.2 3746.4 6173.47 3704.27 6164.53 3652.27L6161.2 3632.67L6162.53 3589.33C6164.93 3518.13 6165.73 3458.53 6164.67 3450L6163.6 3442L6161.73 3447.33C6155.73 3464.4 6150 3495.87 6147.6 3525.87L6146 3544.93L6111.47 3572.53C6038.27 3631.07 5988 3674.53 5932.53 3727.47L5909.73 3749.2L5900.93 3733.6C5849.07 3641.87 5815.87 3532.27 5804.67 3415.73C5802.8 3396 5802.67 3393.07 5804.53 3389.73C5810.4 3378.53 5870.93 3314.67 5902.67 3286.13C5976.13 3220 6050 3172.4 6129.33 3139.6C6163.73 3125.47 6193.47 3116.67 6220 3112.8C6236.93 3110.4 6264.67 3110.27 6279.07 3112.53ZM3464.13 3264C3498.27 3267.47 3534.4 3276 3593.33 3294.4C3609.07 3299.33 3610 3299.87 3610.8 3303.47C3612.27 3309.87 3612.13 3435.6 3610.67 3488.67C3607.73 3594.93 3607.33 3602.67 3603.2 3612.93C3594.53 3634.67 3575.33 3666.93 3558.13 3688.67C3554 3693.73 3548.67 3700.53 3546.13 3703.73C3532.93 3720.27 3480.8 3774 3457.33 3795.47C3444.53 3807.07 3419.73 3828.53 3408 3838C3401.73 3843.07 3395.47 3848.4 3394 3849.73C3392.53 3851.07 3388 3854.67 3384 3857.73C3380 3860.8 3374.8 3864.8 3372.53 3866.67C3370.13 3868.53 3366.53 3871.33 3364.53 3872.8C3354.13 3880.67 3334.93 3894.8 3331.33 3897.33C3329.2 3898.93 3323.47 3903.07 3318.67 3906.53C3308 3914.4 3268.8 3940.67 3252.93 3950.67C3246.4 3954.67 3238 3960 3234.27 3962.53C3226.93 3967.2 3182.13 3994.53 3168.67 4002.4C3164.27 4004.93 3154.4 4011.87 3146.67 4017.87C3133.87 4027.6 3120.4 4037.73 3097.73 4054.53C3093.33 4057.87 3084.13 4064.53 3077.33 4069.33C3070.67 4074.13 3058.93 4082.93 3051.33 4088.93C3043.73 4095.07 3036.93 4100 3036.27 4100C3035.6 4100 3033.47 4096.53 3031.6 4092.27C3029.6 4088.13 3028.4 4085.87 3028.8 4087.33C3030.93 4094.67 3030.93 4114.8 3028.8 4128.27C3019.73 4185.87 2987.73 4230.93 2936 4259.07C2902.93 4276.93 2838.27 4294.27 2749.73 4308.8C2699.87 4316.93 2684.8 4321.87 2659.33 4338.53C2646 4347.2 2639.47 4352.27 2626.8 4363.87C2604.13 4384.4 2594 4395.2 2579.2 4414.67C2557.33 4443.47 2532.53 4462.4 2507.73 4469.33C2489.87 4474.27 2472.4 4471.6 2469.33 4463.33C2464 4449.47 2471.33 4434 2500.27 4397.87C2507.87 4388.4 2518.8 4373.73 2524.67 4365.33C2564.4 4307.6 2576.13 4296.67 2629.47 4267.2C2684 4237.07 2681.47 4234.27 2624.93 4262.4C2574.4 4287.47 2553.07 4306.8 2516.93 4360.13C2501.47 4383.2 2499.2 4386.27 2488 4400.67C2469.07 4425.07 2460.8 4439.33 2457.2 4454C2455.47 4461.07 2454.27 4463.07 2442.53 4479.6C2435.47 4489.47 2434.27 4490.4 2421.73 4496.93C2405.87 4505.2 2400.67 4506.4 2394.8 4503.33C2388 4499.87 2385.33 4494.13 2385.33 4483.33C2385.33 4476.4 2386.27 4472 2388.8 4466C2403.73 4430.8 2418.4 4392.53 2429.33 4360.93C2439.2 4332 2443.07 4323.2 2452.4 4308.93C2461.2 4295.47 2472 4283.73 2491.33 4266.67C2499.47 4259.6 2515.87 4244.53 2528 4233.2C2540.13 4221.87 2555.87 4207.33 2563.07 4200.8C2575.6 4189.33 2579.87 4183.87 2572.4 4188.8C2568.4 4191.2 2543.87 4210.67 2542.67 4212.13C2542.27 4212.53 2538.13 4216.13 2533.33 4220C2528.53 4224 2523.73 4228.13 2522.53 4229.2C2514.27 4237.47 2494.8 4253.33 2475.73 4267.6C2472.53 4269.87 2466.4 4275.33 2461.87 4279.6C2438.8 4301.73 2428.4 4323.33 2405.33 4397.33C2401.47 4409.47 2395.6 4426.27 2392.27 4434.67C2387.2 4447.47 2384.93 4451.2 2379.07 4457.2C2375.2 4461.2 2369.73 4468 2367.07 4472.27C2355.73 4489.87 2353.6 4492 2339.07 4499.47C2333.47 4502.27 2320.4 4502.27 2314.93 4499.47C2312.53 4498.27 2309.73 4494.93 2308 4491.2C2302.67 4480.27 2305.47 4469.07 2324 4428C2327.87 4419.6 2337.33 4393.2 2345.33 4369.33C2361.2 4321.33 2365.87 4309.33 2377.6 4286.27C2386.53 4268.8 2396.13 4254.8 2409.07 4240.13C2417.6 4230.53 2451.87 4201.33 2490.67 4170.4C2501.33 4161.87 2513.6 4151.2 2518 4146.67L2526 4138.4L2512 4147.87C2504.27 4152.93 2497.33 4157.73 2496.53 4158.4C2495.87 4159.07 2491.33 4162.27 2486.8 4165.47C2482.13 4168.67 2476.13 4172.93 2473.47 4174.93C2470.8 4176.93 2467.2 4179.6 2465.33 4180.93C2463.47 4182.13 2458.67 4186 2454.53 4189.33C2450.53 4192.67 2445.2 4196.8 2442.67 4198.67C2440.27 4200.53 2437.2 4202.93 2436 4204C2434.67 4205.07 2431.07 4208.13 2428 4210.67C2424.93 4213.2 2421.33 4216.27 2420 4217.33C2409.33 4226.4 2406.27 4228.67 2404.8 4228.67C2397.87 4228.8 2353.73 4270.93 2333.33 4296.8C2324.4 4308.27 2312.67 4328.13 2301.6 4351.07C2294.27 4366.13 2286 4381.87 2283.33 4386.13C2278.13 4394.27 2260 4413.2 2249.33 4421.47C2229.73 4436.93 2214.67 4438.53 2205.07 4426.27C2201.2 4421.47 2200.67 4419.87 2200.8 4413.2C2200.93 4406.93 2202 4403.33 2207.73 4391.87C2211.47 4384.27 2216.4 4372.93 2218.8 4366.67C2221.2 4360.4 2234.53 4332.53 2248.53 4304.53C2262.53 4276.67 2277.73 4246.13 2282.13 4236.53C2298.27 4202.4 2321.33 4177.73 2363.33 4149.73C2378.67 4139.6 2391.2 4132.27 2442 4103.87C2510.8 4065.6 2543.73 4050.93 2585.47 4040.13C2617.2 4031.87 2635.2 4028.67 2710.67 4017.87C2819.6 4002.27 2819.73 4002.27 2869.73 4001.87C2904 4001.47 2914.93 4000.93 2920.27 3999.33C2924.13 3998.27 2928.8 3997.33 2930.93 3997.33C2932.93 3997.33 2934.67 3996.8 2934.67 3996.13C2934.67 3994.93 2911.73 3992 2902.67 3992H2897.47L2937.07 3952.27C2992.4 3896.93 3026.8 3859.2 3094.53 3779.33C3186.93 3670.4 3238.4 3618.53 3296.67 3575.73C3313.47 3563.33 3333.33 3547.87 3333.33 3547.07C3333.33 3546.8 3331.07 3548.13 3328.13 3549.87L3323.07 3553.07L3322.13 3512.27C3321.6 3489.73 3320.53 3446.67 3319.87 3416.67C3319.2 3386.53 3318 3356.93 3317.33 3350.67C3316.67 3344.4 3315.6 3323.33 3315.2 3303.87L3314.27 3268.4L3322.13 3267.6C3333.07 3266.53 3380.13 3264 3398.67 3263.6C3438.8 3262.67 3451.47 3262.8 3464.13 3264ZM4136.67 3351.73C4171.6 3365.47 4198.27 3370.27 4248.53 3371.47C4290.67 3372.67 4331.6 3370 4357.87 3364.53L4361.73 3363.73L4360.8 3378.8C4355.87 3461.07 4339.2 3615.6 4319.87 3756C4301.2 3892.4 4259.47 4156.27 4227.33 4340.4C4223.33 4363.87 4220 4384.4 4220 4386.13C4220 4389.2 4220.4 4389.33 4228.4 4389.47C4253.2 4389.73 4272.8 4399.87 4310 4432.13C4376.67 4489.87 4440.8 4544 4448 4548.67C4452.8 4551.73 4462.93 4557.47 4470.53 4561.33C4502.53 4577.33 4507.33 4582.4 4506.4 4598.67C4505.2 4619.73 4486.67 4642.93 4463.87 4652.13C4453.6 4656.27 4435.47 4657.07 4421.87 4654C4399.33 4649.07 4378.8 4638.8 4333.07 4609.73C4292.93 4584.4 4286 4580.93 4274.27 4580.27C4266.13 4579.73 4264.27 4580.13 4256.8 4584C4245.6 4589.6 4229.47 4601.87 4210 4619.6C4201.2 4627.47 4184.13 4642.67 4172 4653.2C4142.27 4679.2 4094.53 4727.07 4083.6 4742C4078.8 4748.53 4069.2 4763.2 4062.4 4774.4C4029.47 4828.67 4019.73 4844.53 4010.4 4858.67C3972.4 4916.27 3934.67 4951.2 3901.33 4959.47C3874.27 4966.27 3848.8 4949.07 3848.8 4924C3848.8 4912.53 3852.93 4902.27 3866.53 4880C3908.8 4810.4 3937.2 4763.07 3974.4 4700C3997.47 4660.8 4016.93 4628.4 4017.6 4628.27C4020.93 4626.93 4027.07 4620.4 4029.6 4615.47C4033.07 4608.8 4033.47 4596 4030.4 4590C4027.6 4584.67 4022.93 4580.53 4021.47 4582.13C4020.93 4582.8 4018.93 4588.93 4017.33 4595.6C4015.6 4602.4 4013.87 4608.53 4013.47 4609.07C4013.07 4609.73 4006.13 4614.67 3998 4620C3967.47 4640.4 3923.2 4675.6 3891.47 4704.67C3869.73 4724.67 3833.6 4761.87 3814.67 4784C3780.13 4824.4 3760.67 4843.47 3736.27 4860.93C3704.67 4883.6 3679.33 4890.93 3656.67 4883.87C3646.93 4880.93 3637.47 4873.07 3637.07 4867.6C3636.4 4857.87 3637.73 4853.2 3644.53 4839.33C3662.93 4802.13 3711.2 4739.33 3745.87 4707.73C3777.73 4678.53 3909.6 4550.4 3908.67 4549.6C3907.47 4548.4 3873.2 4569.87 3858.13 4581.2C3830.13 4602.27 3800.67 4629.07 3776.27 4655.87C3762.4 4671.2 3762.8 4670.93 3682.67 4727.47C3572.53 4805.07 3565.6 4809.47 3540.67 4816.67C3526.27 4820.93 3508 4822.4 3500.53 4820C3489.73 4816.53 3484 4809.6 3482 4797.73C3480.93 4791.2 3483.73 4779.07 3488.53 4769.73C3498.93 4748.93 3535.6 4711.73 3591.33 4665.33C3635.47 4628.67 3649.87 4617.73 3666.27 4608.53C3688 4596.53 3719.87 4574.93 3741.33 4557.87C3761.73 4541.6 3794.8 4509.87 3789.07 4511.87C3772.93 4517.73 3732.27 4542.53 3703.33 4564C3681.73 4580.13 3588.8 4627.2 3531.07 4651.33C3496.4 4665.87 3461.07 4675.87 3451.2 4674C3442.53 4672.4 3434.67 4662.67 3434.67 4653.73C3434.8 4639.2 3462.13 4613.2 3512.67 4579.33C3565.2 4544.27 3616.27 4518.93 3730.67 4471.33C3744.27 4465.73 3758 4459.87 3761.33 4458.4C3773.33 4452.93 3825.2 4431.6 3843.33 4424.4C3904.67 4400.53 3963.33 4382.53 4001.73 4376C4008.93 4374.67 4010.67 4373.87 4010.67 4371.87C4010.67 4370 4014.4 4321.33 4020.67 4240C4021.07 4235.2 4021.6 4228.27 4022 4224.67C4022.4 4220.93 4022.93 4213.47 4023.33 4208C4036.67 4022.4 4090.67 3393.2 4098 3339.07L4098.8 3333.47L4111.07 3340C4117.87 3343.6 4129.33 3348.8 4136.67 3351.73ZM6146.67 3565.07C6146.67 3570.93 6147.87 3587.47 6149.33 3602.13C6157.07 3679.2 6166.93 3719.2 6216 3871.33C6248 3970.4 6256.93 4000.67 6277.87 4078.8C6301.73 4168.13 6322.8 4255.07 6320.93 4256.93C6320.8 4257.07 6314.93 4258.27 6308 4259.73C6282.8 4264.93 6267.6 4273.47 6257.73 4287.73C6245.33 4305.87 6242 4329.2 6245.33 4374.67C6246 4384.53 6247.6 4411.87 6248.67 4435.33C6250.8 4479.2 6253.2 4507.73 6256.8 4528.67C6259.33 4544.13 6263.87 4564.53 6266.13 4571.2C6267.2 4574.13 6267.73 4576.67 6267.47 4576.93C6267.2 4577.2 6248.13 4566.67 6225.2 4553.6C6044.13 4450.27 5901.73 4374.67 5763.47 4308.53C5695.2 4275.87 5661.47 4259.33 5661.47 4258.53C5661.33 4258.13 5664.8 4256.4 5669.07 4254.67C5684.53 4248.4 5729.2 4224.93 5749.33 4212.67C5773.33 4197.73 5801.6 4177.73 5826 4158.27C5892 4105.47 5976.53 4018.4 6039.87 3938L6053.6 3920.67L6052.67 3906C6048.4 3831.6 6037.07 3759.33 6019.2 3694C6015.73 3681.47 6012.67 3669.73 6012.4 3667.87C6011.73 3664.27 6018 3658.53 6067.33 3617.2C6088.53 3599.33 6144.53 3554.67 6145.6 3554.67C6146.13 3554.67 6146.67 3559.33 6146.67 3565.07ZM1500.67 3681.33C1553.73 3684.13 1606.27 3689.73 1650.4 3697.2C1671.2 3700.8 1673.33 3701.47 1681.87 3706.67C1686.93 3709.73 1704.53 3718.8 1721.07 3726.8C1765.33 3748.27 1794.93 3766.8 1830.8 3795.47C1884.8 3838.53 1939.87 3901.6 1991.2 3979.2C2021.6 4025.07 2039.2 4056.27 2056.4 4094.67C2072.27 4130.53 2078.13 4148.67 2092.8 4207.33C2098.27 4229.33 2103.07 4248.4 2103.47 4249.87C2104.4 4252.93 2107.47 4253.33 2040 4240C1937.2 4219.6 1878.4 4205.47 1838.67 4191.87C1823.6 4186.67 1796.53 4177.33 1778.27 4171.2C1748 4160.93 1719.33 4150.13 1706 4144.13C1703.07 4142.8 1692.93 4138.8 1683.33 4135.33C1651.47 4123.6 1654.13 4125.87 1630 4091.33C1563.87 3996.67 1505.47 3924.27 1452 3870.67C1441.33 3860 1429.33 3848.53 1425.33 3845.2C1417.33 3838.4 1392.13 3821.33 1375.33 3811.33C1362 3803.33 1332.8 3783.87 1326.93 3779.07C1323.07 3776 1322.27 3775.73 1320.53 3777.47C1318.8 3779.2 1319.2 3780.13 1323.6 3784.53C1328.53 3789.47 1346.67 3803.6 1360.8 3813.33C1364.53 3815.87 1371.47 3820.67 1376.13 3823.87C1417.47 3852.4 1446 3881.2 1510.8 3959.33C1563.07 4022.4 1598.4 4070.27 1651.6 4150.13C1694.93 4214.93 1729.2 4269.6 1775.33 4346.67C1786.93 4366.13 1799.6 4387.07 1803.47 4393.33C1807.47 4399.47 1810.13 4404.93 1809.6 4405.47C1809.07 4405.87 1801.73 4409.47 1793.33 4413.33C1723.33 4445.2 1648.27 4487.2 1571.6 4537.2L1546.53 4553.6L1543.6 4551.07C1513.47 4524.4 1470.8 4483.73 1370 4385.33C1277.33 4294.8 1264.27 4282.27 1232 4252.67C1219.2 4241.07 1200.53 4223.07 1190.67 4212.8C1180.8 4202.67 1155.33 4178.13 1134.27 4158.27C1093.47 4120.13 1075.73 4101.47 1064.27 4084.93C1038.8 4048 1029.2 4005.6 1031.07 3937.33C1032.53 3882.93 1041.47 3842.13 1060.13 3804.27C1066.13 3792.13 1080.27 3770.53 1086.53 3764C1087.73 3762.8 1091.47 3758.8 1094.8 3755.2C1100.27 3749.33 1108.13 3742 1115.73 3735.87C1136 3719.07 1171.2 3703.87 1206.67 3696.53C1236.67 3690.4 1289.33 3684.4 1338 3681.47C1365.2 3679.87 1471.2 3679.73 1500.67 3681.33ZM1906.67 3728.67C1961.6 3736.93 1979.47 3741.07 2110.67 3774.53C2124.93 3778.13 2151.07 3784.27 2168.67 3788C2247.73 3804.93 2306.27 3822.8 2365.87 3848C2378 3853.07 2399.73 3861.87 2414.27 3867.47C2428.8 3873.07 2452.93 3882.93 2468 3889.33C2483.07 3895.73 2497.73 3901.87 2500.67 3902.93C2506.8 3905.33 2507.6 3907.2 2504.8 3913.73C2501.73 3921.2 2496.4 3923.33 2481.33 3923.2C2462.93 3922.8 2455.07 3920.4 2396.53 3896.27C2349.2 3876.67 2300.27 3863.6 2208 3846C2165.33 3837.73 2159.87 3836.4 2128.67 3826C2110.4 3819.87 2073.73 3808.4 2047.33 3800.67C1989.33 3783.6 1974.4 3778.8 1955.47 3771.07C1931.33 3761.33 1901.07 3745.2 1872.67 3726.93L1866 3722.53L1870.67 3723.33C1873.2 3723.73 1889.47 3726.13 1906.67 3728.67ZM3608.93 3728.93C3616.4 3732.4 3627.47 3743.47 3635.2 3755.2C3642.67 3766.4 3665.33 3810.8 3665.33 3814.27C3665.33 3818.53 3656.93 3835.73 3651.33 3843.33C3644.27 3852.67 3643.6 3858 3649.6 3858C3654.4 3857.87 3653.07 3860 3641.73 3870.8C3616 3895.07 3566.93 3917.33 3508.8 3931.33C3461.73 3942.67 3393.73 3953.33 3338 3958C3328.4 3958.8 3327.07 3960 3357.33 3942.13C3450 3887.73 3480.67 3864 3510.67 3823.33C3548.67 3771.87 3559.33 3758.27 3570.67 3746.27C3588.13 3727.87 3597.6 3723.47 3608.93 3728.93ZM6475.73 3949.33C6490.27 3950.13 6505.2 3951.33 6509.07 3952.13C6517.33 3953.73 6524.4 3959.33 6526.53 3965.73C6528.53 3971.6 6537.47 4078.13 6546.67 4204C6548.93 4234.4 6551.07 4261.47 6551.47 4264C6552.53 4270.27 6550 4272.27 6536.67 4275.33C6502.13 4283.07 6474.93 4296.8 6427.2 4330.27C6419.33 4335.87 6411.87 4337.87 6401.87 4336.93C6386.27 4335.47 6369.2 4326.4 6354.67 4311.87C6341.73 4298.93 6336.93 4288.67 6332.67 4264.67C6328.8 4242.53 6300.13 4127.33 6281.33 4058.27C6274 4031.33 6268 4008.8 6268 4008.13C6268 4006.4 6290.4 3992 6306 3983.87C6324.53 3974.13 6347.33 3965.2 6368.53 3959.47C6392.27 3952.93 6408.13 3950.67 6446.4 3948.13C6448.13 3948.13 6461.33 3948.67 6475.73 3949.33ZM2501.33 4060.67C2501.33 4061.07 2492.8 4065.6 2482.4 4070.8C2448.67 4087.6 2409.73 4110.67 2366.27 4139.2C2345.6 4152.8 2334.53 4161.33 2322.4 4173.07L2314.93 4180.4L2313.87 4174C2312.53 4164.93 2315.07 4152.8 2319.47 4147.07C2323.33 4142 2328 4139.6 2338.13 4137.33C2346.27 4135.47 2387.6 4118.93 2401.87 4111.73C2407.87 4108.8 2424.4 4099.73 2438.67 4091.6C2462.27 4078.27 2497.87 4060 2500.4 4060C2500.93 4060 2501.33 4060.27 2501.33 4060.67ZM1684.67 4151.2C1716.67 4165.73 1813.87 4202.4 1840.67 4210.13C1884.13 4222.67 1993.47 4246.93 2067.6 4260.53C2088.93 4264.53 2107.07 4268.13 2107.73 4268.53C2109.73 4269.73 2115.07 4288.13 2113.73 4289.33C2113.2 4289.87 2106.67 4292.27 2099.33 4294.67C2076.8 4302 1982.4 4335.6 1951.33 4347.33C1913.73 4361.47 1888.93 4371.47 1853.47 4386.53C1837.73 4393.2 1824.8 4398.53 1824.67 4398.4C1824.53 4398.13 1808 4370.4 1787.73 4336.67C1745.47 4265.87 1721.87 4227.87 1690.4 4179.6C1678.13 4160.67 1668 4144.93 1668 4144.53C1668 4143.6 1667.2 4143.33 1684.67 4151.2ZM5698.27 4282.53C5911.07 4382.53 6031.33 4446.8 6346 4628.4C6398.13 4658.4 6442 4683.6 6443.73 4684.4C6445.33 4685.2 6446.67 4686.27 6446.67 4686.8C6446.67 4687.33 6442.27 4693.73 6436.8 4700.93C6399.07 4751.2 6376.13 4812.13 6367.07 4886.67C6365.33 4901.33 6364.67 4916.13 6364.67 4948.4C6364.67 4976 6364.27 4990.53 6363.33 4990.27C6362.67 4990 6356.67 4988.13 6350 4986.13C6319.07 4976.67 6240.13 4950.53 6212 4940.4C6121.07 4907.6 6018.53 4862.4 5961.47 4830.13C5955.87 4826.93 5944.13 4820.27 5935.33 4815.33C5926.53 4810.27 5900.8 4795.33 5878 4782C5806.4 4739.87 5760.27 4714 5684 4672.93C5593.33 4624.27 5565.33 4610 5377.33 4516.93C5370.53 4513.6 5368.8 4512.13 5369.07 4510C5369.6 4506.4 5394.4 4469.6 5408.67 4451.33C5468.67 4374.13 5541.73 4314.27 5623.33 4275.33C5636.53 4269.07 5648.27 4263.33 5649.33 4262.67C5650.4 4262 5651.73 4261.47 5652.27 4261.47C5652.8 4261.33 5673.47 4270.8 5698.27 4282.53ZM6465.2 4697.6C6479.73 4705.6 6617.2 4784.4 6630.4 4792.4L6641.6 4799.07L6640.8 4805.2C6640.4 4808.53 6639.73 4813.07 6639.33 4815.33C6638.93 4817.47 6638.27 4826.53 6638 4835.33C6637.33 4854.93 6639.2 4867.33 6647.6 4898C6652.8 4917.2 6653.73 4922.53 6653.87 4934C6654 4952 6652.8 4959.6 6646.8 4978.27C6637.73 5006.27 6624.67 5029.73 6610.4 5043.6L6603.33 5050.53L6572.67 5043.87C6515.2 5031.47 6394.93 5000.27 6385.47 4995.47C6378.8 4992 6374.93 4986.13 6373.87 4977.87C6372.4 4965.33 6374.13 4902.27 6376.67 4884C6384.8 4823.6 6400.27 4776.4 6426.93 4731.07C6430.13 4725.73 6435.07 4718 6438 4713.87C6446.8 4701.6 6454 4692.13 6454.53 4692C6454.8 4692 6459.6 4694.53 6465.2 4697.6ZM6604.67 4742.53C6620 4743.33 6642.27 4744 6654.13 4744C6666 4744 6678.4 4744.4 6681.73 4744.8L6687.87 4745.73L6679.6 4751.07C6667.07 4759.07 6654.4 4772.67 6649.07 4783.87L6644.53 4793.2L6599.33 4767.33C6574.53 4753.07 6553.73 4740.93 6553.2 4740.4C6552.53 4739.73 6557.6 4739.73 6564.4 4740.27C6571.07 4740.8 6589.2 4741.87 6604.67 4742.53Z" fill="#7B4324"/>
<path d="M5026 1064C4974.93 1072 4936 1114.93 4927.33 1172.93C4922.67 1204.13 4926.67 1242 4935.73 1252.13C4942.53 1259.73 4952.67 1256.93 4958.27 1246.13C4959.33 1244 4962.27 1234.27 4964.8 1224.4C4974.4 1186.13 4994 1153.73 5018 1136.67C5028.27 1129.33 5035.87 1126 5048.53 1123.33C5061.07 1120.8 5067.33 1120.8 5081.6 1123.33C5097.87 1126.13 5113.47 1131.87 5132.8 1141.87C5142 1146.67 5153.47 1151.87 5158.27 1153.33C5168.53 1156.53 5180.27 1156.93 5182.53 1154.13C5190 1145.2 5153.87 1107.87 5116.67 1086C5086.4 1068.13 5052.4 1060 5026 1064Z" fill="#7B4324"/>
<path d="M5091.2 1209.2C5062.8 1213.73 5041.87 1232.13 5023.6 1268.67C5012.8 1290.4 5005.73 1314.13 5002.53 1340.27C5000.27 1359.47 5001.6 1402 5005.2 1421.87C5015.2 1477.47 5048.53 1529.07 5090.4 1553.6C5102.27 1560.53 5120.8 1568.4 5123.07 1567.47C5124 1567.2 5123.73 1566.8 5122.4 1566.8C5118.4 1566.53 5094.13 1553.6 5085.2 1546.8C5072 1536.67 5052.13 1515.33 5041.73 1499.87C5021.2 1469.07 5011.87 1443.07 5007.33 1404.53C5000.4 1345.07 5012.53 1286.27 5039.07 1250.67C5069.87 1209.47 5103.6 1200.4 5146.13 1221.73C5189.2 1243.47 5225.07 1289.2 5247.87 1351.73C5259.6 1383.73 5264.4 1409.07 5264.53 1439.47L5264.67 1460.93L5254.53 1471.6C5249.07 1477.33 5242.67 1484.8 5240.4 1488.13C5230.53 1502.53 5220 1527.87 5216.13 1546.93L5214.53 1554.4L5204.27 1559.73C5189.73 1567.2 5177.47 1570.8 5161.33 1572L5147.33 1573.2L5164 1572.67C5178.93 1572.27 5193.47 1569.73 5203.07 1566C5205.07 1565.2 5205.33 1565.87 5205.33 1571.2C5205.33 1580.13 5208 1602.8 5209.87 1610.27L5211.6 1616.67L5213.2 1602.67C5223.6 1516.27 5249.07 1471.6 5304.4 1442.67C5309.33 1440.13 5313.33 1437.6 5313.33 1437.2C5313.33 1435.2 5290.27 1440.8 5279.87 1445.33L5268.4 1450.27L5267.6 1430.8C5266 1389.73 5256.53 1354.67 5236.67 1314.67C5208.8 1259.07 5169.73 1221.47 5129.33 1211.47C5118.67 1208.93 5100.27 1207.73 5091.2 1209.2Z" fill="#7B4324"/>
<path d="M5067.73 1267.87C5058.13 1271.6 5052.8 1275.33 5044.8 1284.13C5010.53 1321.07 5011.2 1405.07 5046 1474.53C5068.13 1518.4 5098.53 1542.67 5131.6 1542.67C5167.73 1542.67 5195.6 1518 5206.8 1476C5210.93 1460.8 5211.33 1424.13 5207.6 1406.67C5193.47 1340.93 5148.27 1280.93 5102.8 1267.47C5092.93 1264.53 5075.87 1264.8 5067.73 1267.87ZM5057.2 1315.2C5063.07 1318.27 5070.13 1327.07 5073.47 1335.47C5076 1342 5076.53 1345.87 5076.53 1358C5076.53 1377.07 5073.87 1385.73 5064.27 1396.27C5051.87 1410 5038.8 1408.27 5030.8 1391.6C5020.8 1370.93 5022.53 1338.93 5034.4 1324C5042.27 1314.27 5049.73 1311.33 5057.2 1315.2ZM5161.33 1333.33C5164 1334.8 5166.93 1341.87 5165.87 1344.67C5163.87 1349.6 5156.67 1347.2 5153.87 1340.53C5150.93 1333.6 5154.8 1329.87 5161.33 1333.33ZM5179.2 1366.53C5190.93 1389.33 5196.27 1410.4 5196.27 1434C5196.27 1456.27 5191.33 1471.6 5179.87 1484.67C5174.8 1490.4 5167.2 1495.2 5164.67 1494.13C5163.2 1493.6 5164.4 1491.07 5169.87 1483.33C5182.27 1466.27 5186.27 1450.8 5184.93 1426C5184 1409.2 5179.87 1391.33 5172.13 1369.47C5169.07 1361.07 5166.67 1353.07 5166.67 1351.6C5166.67 1348.93 5166.8 1348.93 5170 1352C5171.73 1353.73 5176 1360.27 5179.2 1366.53Z" fill="#7B4324"/>
<path d="M4408.67 1315.47C4396.67 1318.13 4379.87 1326.27 4371.2 1333.6C4351.6 1350.4 4338.4 1374.67 4329.6 1410C4324.8 1429.07 4324.27 1432.13 4322.67 1452.27C4321.33 1470.53 4322.53 1481.2 4327.33 1490.8C4332.4 1500.67 4338.4 1502.53 4346.8 1496.93C4353.2 1492.67 4358.8 1482.53 4365.2 1463.73C4379.6 1422.13 4398.93 1394.4 4421.73 1383.07C4434.13 1376.8 4443.87 1374.67 4459.47 1374.67C4480 1374.67 4503.47 1380.67 4517.33 1389.33C4534.4 1400.13 4552.4 1406.27 4556.67 1402.67C4559.6 1400.27 4559.07 1392.53 4555.6 1384C4544.53 1357.07 4509.2 1328.53 4473.87 1317.87C4463.47 1314.8 4459.2 1314.27 4440 1313.87C4423.73 1313.47 4415.6 1314 4408.67 1315.47Z" fill="#7B4324"/>
<path d="M4503.87 1453.47C4461.07 1463.6 4420 1518.13 4406.8 1582.67C4400.4 1613.47 4399.73 1656.53 4405.2 1682.27C4410.53 1707.07 4420.93 1731.73 4434.93 1752.53C4442.93 1764.53 4459.47 1782.53 4469.33 1790.13C4472.93 1792.93 4475.73 1795.33 4475.6 1795.6C4475.33 1795.73 4468.93 1796.8 4461.2 1798C4433.33 1802.13 4408.8 1809.87 4385.47 1822C4373.2 1828.27 4366 1833.07 4371.33 1831.33C4372.8 1830.8 4380.93 1828.8 4389.33 1826.67C4458.53 1809.47 4518.53 1808.53 4580 1824C4596.4 1828.13 4625.87 1837.6 4639.87 1843.2C4644.67 1845.07 4648.67 1846.4 4649.07 1846.13C4650 1845.07 4622.13 1827.07 4610.67 1821.33L4599.47 1815.73L4610.53 1810.13C4649.33 1791.07 4673.07 1747.6 4677.2 1688.13C4680.53 1640.8 4670.67 1593.33 4647.87 1547.87C4626 1504 4595.47 1472.27 4563.33 1459.87C4557.47 1457.6 4548.8 1454.93 4544 1453.87C4534.53 1451.87 4511.47 1451.6 4503.87 1453.47ZM4544.53 1456C4581.6 1465.47 4619.47 1500.8 4643.2 1548.13C4667.07 1595.73 4678.27 1651.47 4673.2 1696.93C4667.33 1750.27 4642.27 1789.73 4602.4 1808.67L4592.4 1813.47L4581.87 1809.47C4558.4 1800.53 4531.87 1796 4501.07 1795.47L4480.13 1795.07L4473.47 1789.47C4441.6 1762.67 4416 1717.87 4408.4 1675.47C4405.47 1658.8 4405.47 1621.73 4408.53 1600.8C4415.6 1551.73 4433.33 1511.87 4460.13 1485.07C4486.93 1458.27 4515.2 1448.4 4544.53 1456Z" fill="#7B4324"/>
<path d="M4483.87 1508.53C4461.6 1514.67 4442.4 1535.2 4431.87 1564.13C4417.6 1603.07 4418.53 1653.33 4434.67 1701.47C4453.33 1757.47 4486.27 1788 4528 1788C4548.4 1788 4565.87 1781.33 4580.53 1767.73C4590.93 1758.27 4596.8 1750.53 4603.2 1737.87C4627.47 1689.47 4618.67 1618.93 4581.6 1562.67C4573.2 1550.13 4556.27 1531.6 4545.87 1524C4525.87 1509.07 4502.8 1503.33 4483.87 1508.53ZM4486.27 1554.53C4499.47 1560.53 4506.8 1583.6 4502.27 1604.8C4498.67 1621.87 4489.47 1635.87 4478.13 1641.2C4466.27 1647.07 4457.33 1643.6 4451.2 1631.2C4448 1624.67 4447.33 1621.33 4446.93 1610.67C4446.27 1595.07 4448.13 1585.47 4454 1573.6C4459.33 1563.2 4465.6 1556.53 4472.8 1554C4479.47 1551.6 4479.6 1551.6 4486.27 1554.53ZM4576 1581.33C4577.33 1582 4579.07 1584.53 4579.87 1586.8C4582.53 1594.67 4576.4 1599.07 4570.67 1593.33C4563.47 1586.13 4567.6 1576.8 4576 1581.33ZM4592 1617.73C4598.13 1633.47 4601.33 1648.4 4602.27 1665.33C4603.6 1693.2 4597.07 1714.53 4582.13 1730L4574.4 1738L4578 1732C4588.8 1713.6 4591.33 1703.07 4591.07 1677.33C4590.93 1655.33 4588.8 1638.93 4583.33 1617.2C4581.47 1610 4580 1602.8 4580 1601.07C4580.13 1598.13 4580.4 1598.27 4584.13 1602.67C4586.27 1605.2 4589.87 1612 4592 1617.73Z" fill="#7B4324"/>
<path d="M5018.53 1679.2C5002.27 1683.73 4985.6 1694.8 4974.93 1708.4C4967.6 1717.47 4960 1729.2 4960 1731.07C4960 1731.73 4965.47 1727.2 4972 1720.93C4991.33 1702.53 5008.93 1693.47 5028.13 1692.27C5056.4 1690.53 5085.07 1710.27 5093.47 1737.47C5096.67 1747.47 5096.8 1766.8 5094 1778C5087.73 1802.53 5070.4 1825.07 5047.87 1838C5041.2 1841.73 5042 1842.13 5051.07 1839.33C5075.73 1831.87 5095.2 1813.87 5105.73 1788.53C5110.53 1777.2 5112.4 1766.53 5112.4 1752C5112.27 1723.07 5098.13 1699.73 5073.2 1686.67C5067.6 1683.73 5059.2 1680.53 5054.53 1679.33C5044.27 1676.93 5027.07 1676.93 5018.53 1679.2Z" fill="#7B4324"/>
<path d="M5224.13 1805.07C5211.07 1842.8 5191.07 1880.8 5168.93 1909.87C5158.8 1923.2 5136 1946.93 5122.4 1958.13C5086.4 1988.13 5036.67 2012.27 4985.33 2024.67C4947.07 2033.87 4918.13 2037.33 4871.33 2038.27C4828.8 2039.07 4773.2 2036.27 4770 2033.07C4768.67 2031.73 4773.47 2015.2 4777.87 2006.13C4782 1997.73 4782 1997.33 4779.47 1997.33C4776.4 1997.33 4768.93 2001.47 4764.13 2005.87C4755.47 2013.87 4750.13 2032.93 4752.27 2048.93C4753.73 2059.2 4755.73 2064.53 4761.73 2073.87L4766 2080.53L4766.93 2075.33C4767.47 2072.4 4767.87 2063.33 4767.87 2055.07C4768 2046.93 4768.27 2039.33 4768.67 2038.4C4769.33 2036.8 4772.53 2037.07 4787.73 2040.27C4826.13 2048.27 4844.4 2049.87 4893.33 2049.87C4932.53 2049.87 4940.4 2049.47 4956.93 2046.93C5021.47 2037.2 5072.67 2016.93 5117.2 1984C5131.33 1973.6 5154 1951.6 5165.2 1937.47C5194.4 1900.67 5215.33 1856.13 5226 1807.87C5227.87 1799.6 5229.2 1792.8 5228.93 1792.53C5228.8 1792.4 5226.67 1798 5224.13 1805.07Z" fill="#7B4324"/>
<path d="M3955.33 1811.73C3944.13 1815.2 3936.67 1819.33 3929.2 1826.27C3912.8 1841.6 3906 1864.27 3911.2 1886L3912.8 1892.67L3913.73 1882.67C3917.07 1847.33 3938 1826.67 3970.53 1826.67C3992.13 1826.67 4014.13 1837.6 4030.93 1856.67C4035.73 1862 4036 1863.07 4038 1877.87C4042.53 1912.4 4039.2 1930.27 4026.27 1942.8C4023.2 1945.6 4017.47 1949.2 4013.47 1950.67C4002.13 1955.07 3982 1954.4 3968.53 1949.33L3964.67 1947.87L3969.33 1952.67C3979.2 1962.8 3999.07 1969.07 4014 1966.67C4024.4 1964.93 4032.27 1961.07 4039.87 1954C4052.8 1941.87 4058 1927.33 4057.07 1906.13L4056.53 1894.27L4061.07 1904.13C4066.93 1917.07 4078 1948.53 4083.6 1968.67L4088 1984.67L4087.2 1965.33C4085.07 1910 4062.27 1856.27 4030.13 1830.8C4020.8 1823.33 4006.53 1816 3996 1812.93C3983.87 1809.47 3964.8 1808.93 3955.33 1811.73Z" fill="#7B4324"/>
<path d="M2506 1450.67C2472.67 1455.6 2440.4 1478.27 2411.33 1517.47C2401.2 1531.07 2387.6 1553.07 2380.13 1567.87L2376 1575.87L2383.6 1580.13C2388.4 1582.93 2391.33 1583.87 2391.73 1582.93C2393.2 1578.53 2410.13 1556.53 2420.67 1545.47C2448.4 1516.27 2476 1502.13 2504.67 1502.4C2519.6 1502.53 2529.33 1505.07 2544.67 1512.67C2565.07 1522.67 2586.53 1541.07 2601.6 1561.47C2610.27 1573.2 2612.53 1575.2 2619.2 1578C2624.93 1580.4 2631.2 1579.73 2635.2 1576.13C2638.27 1573.47 2641.33 1566.53 2641.33 1562C2641.33 1560.13 2641.73 1558.67 2642.27 1558.67C2642.8 1558.67 2646.27 1561.6 2650 1565.33L2656.67 1572L2663.73 1567.33L2670.67 1562.67L2667.2 1556.93C2653.73 1535.47 2633.07 1510.13 2616.13 1494.53C2579.07 1460.4 2541.47 1445.47 2506 1450.67Z" fill="#7B4324"/>
<path d="M2077.73 1549.07C2060.13 1555.33 2044.93 1576.4 2034 1609.87C2026.8 1632.13 2026.8 1631.33 2034.13 1633.87C2037.6 1635.07 2041.2 1636 2042.13 1636C2043.07 1636 2046.4 1631.2 2049.47 1625.47C2063.87 1598.4 2079.2 1587.47 2092.8 1594.4C2098.8 1597.6 2108.4 1607.2 2114.53 1616.4C2118.53 1622.27 2129.47 1644.27 2137.73 1662.93C2140.4 1668.8 2142 1670.8 2144.8 1671.47C2150.4 1672.93 2154.93 1670.67 2156.67 1665.33L2158.27 1660.67L2159.07 1664.27L2160 1667.73L2167.6 1665.47C2175.2 1663.2 2175.33 1663.07 2175.07 1658.4C2174.13 1643.07 2154 1597.87 2139.2 1578.4C2119.87 1552.67 2097.6 1542 2077.73 1549.07Z" fill="#7B4324"/>
<path d="M2524.67 1605.33C2482 1611.47 2459.47 1637.07 2436.8 1705.6C2424.8 1741.47 2419.07 1771.6 2418.13 1804C2417.87 1813.87 2417.87 1819.33 2418.13 1816C2420.67 1789.47 2427.73 1754.8 2436 1728.67C2441.33 1711.87 2450.8 1687.6 2451.6 1688.4C2451.87 1688.8 2451.6 1690.27 2450.93 1691.6C2448.27 1696.4 2440.13 1726.4 2436.8 1743.47C2431.33 1771.07 2429.33 1789.47 2428.53 1820C2427.33 1863.73 2431.6 1897.07 2442.67 1931.33C2457.47 1976.53 2483.73 2008.8 2517.2 2022.53C2537.73 2031.07 2564.4 2033.73 2582 2028.93C2586.27 2027.73 2590 2026.93 2590.13 2027.07C2590.4 2027.2 2589.33 2030.13 2587.73 2033.33C2583.87 2041.87 2578.67 2063.2 2578.67 2070.53C2578.67 2076.67 2578.67 2076.67 2585.87 2061.07C2598.27 2034.13 2607.07 2021.33 2628.13 1999.87C2648.4 1979.47 2660.4 1970.67 2690.67 1955.07L2699.33 1950.53L2688.53 1951.2C2681.07 1951.6 2674.53 1953.07 2667.33 1955.87C2661.6 1958.13 2656.67 1959.73 2656.4 1959.6C2656.27 1959.33 2658.8 1952.67 2662 1944.53C2679.47 1901.47 2686.27 1844.67 2678.8 1803.33C2672.4 1767.73 2663.2 1738.8 2646.13 1700.8C2630.93 1666.93 2620.93 1650.4 2607.47 1636.13C2585.6 1613.2 2553.47 1601.2 2524.67 1605.33ZM2552.53 1620.67C2584.27 1627.33 2611.33 1652.27 2630.67 1692.67C2652.13 1737.33 2668 1799.87 2668 1839.2C2668 1899.73 2648.27 1955.33 2615.2 1988.4C2591.6 2012 2565.6 2023.47 2538.13 2022.4C2525.87 2022 2523.73 2021.47 2514.27 2016.93C2469.07 1995.47 2438.67 1915.33 2438.67 1817.33C2438.67 1734.13 2462.27 1665.47 2501.6 1634C2520.4 1619.07 2531.47 1616.13 2552.53 1620.67Z" fill="#7B4324"/>
<path d="M2559.6 1684.53C2522.27 1698.4 2495.07 1766.53 2497.73 1839.33C2500 1898.27 2522.8 1946.53 2556.67 1964.13C2569.2 1970.67 2577.87 1972.53 2591.47 1971.6C2614.67 1970.27 2633.07 1956.4 2646 1930.67C2656.8 1909.2 2661.73 1883.33 2661.87 1848C2661.87 1812.93 2658.13 1787.2 2648.8 1759.33C2640.27 1733.73 2630 1716.27 2614.8 1701.33C2600.93 1687.6 2592.67 1683.6 2576.67 1683.07C2568.67 1682.8 2562.93 1683.2 2559.6 1684.53ZM2594.4 1692C2620.8 1704.93 2642.4 1742.93 2651.33 1792C2654.8 1811.33 2655.6 1857.2 2652.8 1874.13C2648.4 1900 2639.6 1918.93 2625.07 1934.13C2612.8 1946.93 2598 1952.93 2581.6 1951.6C2547.33 1949.07 2517.73 1914.27 2507.33 1864C2504.8 1851.87 2502.27 1821.2 2503.47 1816.53C2504.27 1813.6 2504.67 1814.4 2507.2 1821.87C2508.93 1826.67 2512 1832.93 2514.27 1835.6C2518 1840.27 2518.27 1841.6 2519.07 1854.67C2520.53 1882.8 2529.87 1906.13 2545.87 1922C2559.2 1935.2 2565.33 1938 2581.33 1938C2592.67 1938 2594.8 1937.6 2601.87 1934C2606.13 1931.87 2608.93 1929.87 2608.13 1929.6C2605.2 1928.67 2606.8 1924.4 2614 1915.33C2622.93 1903.87 2629.73 1892.27 2633.6 1881.87C2636.27 1874.8 2636.53 1871.47 2636.53 1848.67C2636.53 1824.67 2636.27 1822.53 2632.4 1807.87C2626.53 1785.87 2618.93 1770.93 2608.13 1760C2603.33 1755.2 2597.2 1750.13 2594.53 1748.93C2590.13 1746.93 2589.73 1746.13 2588.13 1738C2583.2 1710.53 2567.73 1693.73 2551.07 1697.33L2546 1698.53L2550 1695.2C2561.87 1685.6 2578.53 1684.4 2594.4 1692ZM2557.47 1716.4C2566.8 1722.67 2573.33 1739.07 2573.33 1756.4C2573.33 1790.8 2551.73 1826.67 2530.93 1826.67C2525.73 1826.67 2524.27 1826 2519.33 1820.93C2511.73 1813.33 2508.8 1803.87 2509.07 1786.67C2509.33 1758.4 2523.73 1726.27 2540.67 1715.87C2546 1712.53 2552 1712.67 2557.47 1716.4Z" fill="#7B4324"/>
<path d="M2280.67 1951.07C2281.47 1957.73 2281.33 1958.53 2276.8 1964.4C2271.6 1971.33 2270 1980 2274.13 1980C2280.4 1980 2288.67 1963.2 2286.8 1954.4C2284.13 1942.8 2279.33 1940.13 2280.67 1951.07Z" fill="#7B4324"/>
<path d="M2216.53 1974.8C2208.27 1978 2198.13 1986.53 2194.8 1993.2C2188.93 2004.8 2187.73 2023.47 2192 2040.93C2199.07 2070.4 2219.2 2093.6 2245.6 2102.8C2256.53 2106.67 2258.67 2105.87 2258.67 2098.4C2258.67 2095.2 2258.13 2092 2257.6 2091.2C2257.07 2090.4 2251.2 2086.67 2244.53 2082.8C2214.93 2066.27 2203.33 2052.93 2197.87 2029.87C2194.53 2015.07 2197.73 2002.53 2208.13 1991.33C2211.33 1987.87 2216.13 1984 2218.8 1982.67C2224.13 1979.87 2237.33 1977.33 2246.4 1977.33C2254.4 1977.33 2254 1974 2245.87 1972.8C2234.67 1971.33 2223.6 1972 2216.53 1974.8Z" fill="#7B4324"/>
<path d="M2761.33 2102.27C2761.33 2103.73 2764.67 2109.07 2767.6 2112.13L2770.93 2115.73L2759.73 2124.93C2694.4 2179.73 2615.33 2219.47 2534 2238.53C2494.8 2247.6 2468.53 2250.8 2423.33 2251.6C2374.4 2252.53 2345.07 2250 2308.93 2242C2297.87 2239.47 2293.87 2239.07 2291.33 2240.27C2288.67 2241.47 2285.6 2240.27 2269.07 2232C2258.67 2226.67 2244.27 2218.93 2237.33 2214.8C2230.4 2210.67 2223.73 2206.93 2222.67 2206.4C2221.6 2205.87 2215.6 2202 2209.6 2198C2203.47 2193.87 2198.67 2191.07 2198.93 2191.6C2203.6 2201.73 2207.47 2207.33 2216.53 2216.53C2230.27 2230.4 2232.8 2232.27 2247.47 2239.33C2260.53 2245.6 2267.2 2247.73 2278.93 2249.33C2283.6 2250 2288.27 2251.73 2290.93 2253.73C2296.53 2257.87 2308.13 2264.4 2334.67 2278.27C2342.4 2282.4 2353.47 2288.27 2359.33 2291.33C2373.07 2298.67 2419.47 2320.67 2442.67 2330.93C2524.13 2366.8 2603.73 2389.33 2648.4 2389.33C2660.8 2389.33 2681.2 2386.53 2691.87 2383.33C2705.6 2379.2 2730 2366.13 2737.07 2359.07C2738.13 2358.13 2740.93 2355.73 2743.47 2353.73C2754.27 2345.6 2773.73 2317.73 2782 2298.93C2787.6 2285.87 2790.13 2278.4 2794 2262.67C2800 2238.53 2800.67 2231.47 2800.67 2196.67C2800.53 2164.8 2799.47 2152.13 2794.4 2127.73C2794.13 2126.67 2796.8 2125.73 2802.13 2125.2C2810 2124.27 2820.27 2120.27 2822 2117.47C2822.4 2116.67 2820.13 2115.47 2817.07 2114.67C2813.87 2113.87 2810.53 2112.93 2809.6 2112.67C2802.4 2110.13 2761.33 2101.33 2761.33 2102.27ZM2786.4 2132C2789.07 2144.27 2791.07 2158.93 2792.67 2177.73L2793.47 2186.8L2771.07 2209.07C2737.2 2242.93 2703.73 2266.8 2662 2286.8C2621.07 2306.4 2591.2 2315.33 2561.2 2316.93C2526.8 2318.8 2499.2 2309.2 2476.27 2287.47C2466.13 2277.87 2453.87 2261.47 2455.73 2259.87C2456.27 2259.47 2463.6 2258.4 2472.13 2257.6C2564.27 2248.4 2659.47 2210.53 2739.33 2151.33C2747.47 2145.33 2760.27 2135.33 2767.87 2128.93C2775.6 2122.53 2782.27 2117.73 2782.8 2118.27C2783.33 2118.93 2784.93 2125.07 2786.4 2132ZM2781.73 2238.27C2781.33 2241.07 2780.27 2246.93 2779.2 2251.33C2778.13 2255.73 2776.93 2260.8 2776.53 2262.67C2773.6 2276.13 2761.2 2303.87 2751.87 2317.47C2745.07 2327.47 2732.67 2340.8 2723.6 2347.73C2711.2 2357.33 2691.73 2366.53 2679.73 2368.67C2677.47 2369.07 2675.07 2369.73 2674.53 2370C2674 2370.4 2669.07 2371.07 2663.47 2371.47L2653.33 2372.27L2656 2366.13C2657.47 2362.8 2659.87 2357.2 2661.33 2353.87C2666 2343.33 2678.27 2323.33 2688.53 2309.6C2700.8 2293.47 2726.13 2268.67 2742.4 2257.33C2754 2249.2 2779.6 2233.47 2781.6 2233.33C2782.13 2233.33 2782.13 2235.6 2781.73 2238.27Z" fill="#7B4324"/>
<path d="M2878.27 3331.2C2877.2 3333.73 2878.13 3334.4 2882 3333.6C2883.87 3333.33 2885.33 3332.13 2885.33 3331.2C2885.33 3328.8 2879.2 3328.8 2878.27 3331.2Z" fill="#7B4324"/>
</svg>
