<svg width="238" height="206" xmlns="http://www.w3.org/2000/svg">
 <!-- Created with SVG Editor - http://github.com/mzalive/SVG Editor/ -->
 <defs>
  <linearGradient spreadMethod="pad" y2="0.888306" x2="1" y1="0" x1="0" id="svg_41">
   <stop offset="0" stop-color="#17b2b2"/>
   <stop offset="1" stop-color="#e84d4d"/>
  </linearGradient>
 </defs>
 <g>
  <title>background</title>
  <rect fill="none" id="canvas_background" height="208" width="240" y="-1" x="-1"/>
  <g display="none" overflow="visible" y="0" x="0" height="100%" width="100%" id="canvasGrid">
   <rect fill="url(#gridpattern)" stroke-width="0" y="2" x="123.983292" height="400" width="580"/>
  </g>
 </g>
 <g>
  <title>Layer 1</title>
  <g stroke="null" id="svg_23">
   <g stroke="null" id="svg_4" fill="#000000" transform="matrix(-0.00484231134636302,0,0,-0.005252932307425086,24705.926176717385,-17764.77829228261) ">
    <path stroke="#17b2b2" fill="url(#svg_41)" id="svg_5" d="m5086647.908819,-3381993.78059c-24,-24 -42,-60 -66,-133c-55,-169 -130,-288 -285,-453c-382,-406 -928,-658 -1630,-753c-193,-26 -645,-37 -871,-20c-350,25 -473,32 -816,41c-1290,37 -2512,-115 -3668,-455c-1211,-357 -1952,-736 -2700,-1379c-282,-243 -698,-684 -853,-907c-13,-17 -21,-21 -31,-14c-7,6 -72,49 -143,97l-129,88l-18,57c-12,38 -32,71 -56,95c-33,33 -44,38 -85,38c-37,0 -56,-6 -83,-27l-35,-26l-46,18c-60,24 -261,84 -282,85c-9,0 -57,60 -112,143c-416,617 -1017,1123 -1795,1511c-865,432 -1866,678 -2997,737c-283,15 -901,6 -1170,-16c-1056,-86 -1994,-305 -2965,-690c-1667,-661 -2962,-1700 -3952,-3172c-251,-372 -440,-698 -708,-1223c-223,-438 -305,-579 -440,-758c-209,-280 -430,-458 -665,-538c-114,-38 -277,-45 -392,-16c-99,25 -171,58 -243,112l-55,41l-22,-82c-43,-157 -56,-269 -50,-427c6,-175 21,-241 87,-377c82,-169 200,-287 375,-373c173,-86 404,-126 605,-104c47,5 86,9 86,8c1,-1 -26,-36 -60,-79c-117,-144 -201,-336 -232,-527c-21,-123 -13,-348 15,-471c40,-178 121,-352 206,-447c59,-66 114,-92 191,-92c165,0 320,143 853,788c79,95 145,172 146,170c2,-2 -3,-35 -11,-73c-42,-200 -57,-324 -58,-475c-1,-171 12,-232 62,-292c96,-113 262,-83 522,95c52,36 96,64 97,63c7,-7 98,-552 133,-796c42,-294 72,-562 91,-835c16,-220 16,-758 0,-950c-23,-286 -80,-631 -141,-860c-108,-406 -113,-800 -15,-1185c225,-887 984,-1697 2181,-2327c194,-102 331,-162 595,-262c1010,-378 2073,-552 3068,-502c203,11 245,11 252,-1c20,-30 5,-43 -56,-50c-76,-8 -165,-38 -269,-90c-272,-136 -413,-269 -512,-484c-26,-56 -42,-78 -67,-90c-109,-57 -269,-197 -393,-345c-55,-66 -70,-78 -111,-88c-131,-33 -417,-164 -587,-269c-218,-134 -377,-263 -571,-464c-301,-311 -533,-666 -854,-1308c-231,-463 -403,-847 -561,-1253c-94,-240 -87,-238 -222,-65c-126,163 -313,387 -532,638c-179,206 -374,437 -671,799c-254,308 -362,428 -652,722l-273,276l-4,294c-3,311 -12,389 -61,599c-14,58 -39,146 -55,195c-16,50 -32,106 -36,125c-13,70 -174,540 -247,725c-175,443 -308,686 -619,1132c-150,215 -212,298 -460,616c-195,250 -327,433 -458,637c-189,294 -339,431 -508,462c-100,18 -187,-21 -229,-102c-72,-140 -68,-349 12,-578c103,-297 247,-515 563,-851c173,-184 254,-282 341,-411c115,-170 112,-157 33,-148c-137,15 -344,9 -426,-12c-142,-36 -267,-124 -331,-233c-24,-42 -29,-45 -88,-57c-261,-51 -477,-229 -565,-468c-23,-64 -34,-79 -78,-112c-115,-87 -192,-205 -236,-365c-18,-68 -22,-107 -22,-270c-1,-159 3,-208 21,-300c57,-277 151,-457 317,-601c134,-116 258,-168 390,-163l82,4l74,-118c240,-389 501,-641 787,-761c132,-55 231,-78 363,-83c112,-4 135,-2 220,22c52,14 104,27 114,28c15,2 55,-60 194,-303c843,-1473 1576,-2485 2391,-3301c315,-315 529,-457 791,-522c118,-29 312,-28 425,2c108,28 242,96 349,178c150,113 475,445 661,677l30,37l109,-25c59,-14 110,-27 112,-29c2,-1 8,-151 14,-333c29,-930 114,-1699 260,-2347c17,-72 30,-149 30,-171c0,-62 -27,-231 -85,-526c-30,-151 -60,-315 -66,-365c-17,-120 -17,-361 -1,-460l14,-81l-37,-61l-36,-61l-112,52c-135,64 -304,132 -747,304c-716,278 -1025,375 -1495,472c-110,23 -458,107 -774,186c-677,170 -897,216 -1366,284c-649,94 -841,131 -948,180c-89,42 -177,53 -387,48c-160,-4 -181,-7 -248,-32l-74,-28l-191,36c-469,88 -855,128 -1418,148c-714,25 -1394,-27 -1937,-148c-828,-184 -1267,-724 -1374,-1689c-8,-74 -13,-234 -13,-420c1,-266 4,-314 24,-428c37,-211 95,-361 189,-492c127,-177 539,-602 817,-840c77,-67 214,-199 304,-293c90,-95 252,-255 360,-355c108,-99 399,-382 646,-627c431,-426 810,-787 1275,-1214c118,-108 216,-201 218,-206c3,-8 -461,-321 -1738,-1175c-986,-659 -1214,-800 -2800,-1741c-719,-426 -1196,-722 -1224,-760c-14,-19 -15,-25 -5,-23c8,1 21,-1 30,-5c19,-8 475,255 1225,707c1350,812 2625,1629 4799,3073c735,488 1396,839 2297,1218c565,237 1324,508 1979,706c380,115 906,257 916,247c8,-9 -86,-192 -203,-397c-232,-407 -304,-596 -304,-802c0,-161 70,-210 223,-155c89,33 183,87 297,173c159,119 216,200 375,528c120,248 191,363 305,494c88,101 107,98 59,-9c-58,-134 -107,-273 -183,-525c-87,-288 -127,-402 -239,-684c-78,-196 -81,-209 -82,-285c0,-75 3,-85 35,-139c63,-105 173,-144 265,-95c93,49 192,150 279,282c24,38 47,71 49,73c3,3 -2,-21 -9,-53c-37,-157 3,-249 124,-289c67,-21 132,-14 204,22c60,31 222,188 253,247c22,42 34,46 61,16c61,-68 221,-90 356,-49c154,46 258,118 477,330l45,43l20,-25c32,-38 81,-99 115,-143c16,-22 39,-52 50,-66c76,-99 250,-380 347,-561c73,-137 201,-406 210,-442c5,-21 1,-23 -88,-39c-81,-14 -550,-88 -648,-101c-19,-3 -153,-25 -297,-50c-434,-75 -746,-145 -1528,-339c-432,-108 -685,-165 -1215,-272c-867,-176 -1145,-246 -1685,-422c-444,-145 -681,-247 -960,-414c-66,-39 -289,-183 -495,-319c-206,-135 -389,-255 -407,-266c-627,-382 -1026,-605 -1548,-867c-408,-204 -743,-358 -1425,-652c-74,-32 -642,-259 -755,-302c-395,-150 -545,-206 -740,-274c-93,-33 -206,-73 -250,-89c-44,-16 -222,-77 -395,-135c-173,-58 -358,-121 -410,-140c-52,-18 -314,-111 -583,-206l-487,-172l0,-39c0,-26 4,-38 14,-38c15,0 269,87 721,248c154,55 379,130 500,166c823,251 1239,399 1790,636c105,45 386,162 625,260c793,324 1082,462 1825,868c584,319 988,558 1485,881c140,90 309,198 374,238l119,72l169,-164c93,-91 173,-165 178,-165c5,0 29,12 53,26l43,26l-169,166c-154,153 -167,168 -150,180c29,22 319,166 423,210c132,56 351,128 640,211c592,169 958,257 2045,492c105,23 487,115 849,205c994,248 1100,271 1776,388c207,36 427,76 490,90c62,15 114,25 116,24c8,-9 69,-208 93,-306c44,-172 101,-525 101,-621c0,-19 123,-8 210,20c36,11 96,27 134,35c38,8 146,39 239,69c94,30 176,55 184,55c26,0 33,47 24,177c-4,71 -7,129 -6,131c2,2 88,25 192,52c279,71 956,268 1398,407c771,241 1709,659 2369,1056c521,312 848,577 1132,919c605,726 1043,1791 1134,2758c12,123 15,549 5,603c-6,31 -3,36 70,95c128,106 205,231 242,392c20,90 28,491 14,699c-23,335 -66,658 -142,1071c-51,277 -184,933 -248,1226c-43,196 -50,248 -53,357l-3,129l148,48c355,117 530,238 621,430c36,77 46,167 24,220c-20,47 -132,187 -156,194c-19,6 -20,21 -26,254c-17,643 -60,1226 -131,1797c-115,914 -316,1513 -679,2025c-270,382 -614,690 -997,894l-106,56l-7,89c-6,79 -22,165 -41,212c-4,11 16,29 75,67c91,60 292,250 382,361c205,254 342,546 394,841c27,149 20,436 -12,542c-4,12 22,37 93,91c393,299 775,724 1116,1242c58,88 112,167 120,175c7,8 74,65 148,126c74,61 182,157 242,214l107,102l76,-68c454,-413 919,-693 1504,-907c829,-302 1846,-386 2672,-221l127,26l103,-47c228,-105 508,-204 790,-279l157,-42l-86,-11c-156,-22 -258,-90 -315,-209c-31,-67 -51,-164 -43,-205c6,-24 -2,-31 -97,-89c-274,-168 -611,-408 -863,-615c-581,-476 -906,-877 -1136,-1400c-168,-382 -278,-822 -489,-1946c-100,-532 -154,-791 -266,-1278c-175,-761 -340,-1406 -425,-1667c-27,-83 -49,-157 -49,-165c0,-22 95,-165 167,-251c75,-91 177,-187 279,-264c54,-40 74,-61 74,-78c0,-13 -20,-223 -45,-467c-156,-1563 -295,-3196 -525,-6199c-44,-580 -83,-1074 -86,-1097c-6,-49 11,-42 -224,-97c-368,-87 -827,-251 -1690,-603c-594,-242 -1140,-499 -1491,-701c-376,-217 -654,-405 -775,-526c-180,-180 -200,-308 -59,-381c56,-28 65,-30 174,-29c104,0 129,4 241,38c234,69 551,207 1060,460l255,127l-50,-48c-28,-26 -154,-130 -280,-229c-353,-279 -553,-452 -751,-649c-248,-246 -345,-383 -375,-522c-22,-110 26,-210 128,-259c55,-27 65,-29 188,-29c163,1 265,25 420,100c106,51 152,81 460,302c184,131 814,576 833,587c11,6 13,5 7,-5c-21,-35 -101,-133 -186,-229c-431,-482 -674,-843 -686,-1020c-4,-56 -2,-70 19,-100c29,-42 72,-72 146,-102c48,-18 77,-22 177,-23c125,0 174,9 276,51c232,95 519,343 880,759c339,392 683,718 1044,990c135,101 317,226 322,221c5,-4 -486,-837 -856,-1450c-355,-589 -367,-610 -393,-676c-29,-75 -36,-197 -13,-256c33,-88 139,-169 253,-193c72,-15 119,-14 209,5c206,42 370,152 554,372c197,234 405,534 609,872c225,375 313,493 530,709c127,126 468,432 675,604c66,55 155,129 198,166c91,77 167,121 211,121c50,0 156,-57 412,-221c275,-176 481,-285 604,-319c109,-30 281,-33 379,-7c184,50 323,156 390,297c21,45 26,69 26,135c0,134 -28,168 -220,260c-71,35 -165,87 -207,117c-42,29 -249,202 -459,383c-547,472 -770,656 -863,711c-99,59 -226,108 -323,124c-40,6 -73,16 -73,21c0,5 34,204 75,442c160,912 323,1898 440,2662c26,165 48,301 50,303c1,2 35,-18 74,-43c44,-29 73,-54 76,-68c2,-12 12,-83 21,-157c72,-600 230,-1280 418,-1798c342,-942 841,-1659 1498,-2154c726,-547 2122,-1193 3828,-1773c381,-129 930,-304 1182,-376l77,-22l78,49c585,362 1090,801 1548,1347l108,127l371,-188c786,-401 1417,-744 2366,-1287c900,-516 1296,-721 1820,-945c973,-415 2416,-865 3533,-1101l208,-44l-6,-25c-4,-14 -9,-91 -12,-172c-5,-159 4,-213 53,-310c33,-65 133,-169 214,-223c269,-179 685,-291 1375,-369c650,-75 917,-91 1065,-67c257,42 483,163 691,371c166,166 295,347 430,605c337,644 630,1717 734,2690c21,198 17,187 68,208c79,32 204,116 266,178c40,40 73,86 98,136c37,74 38,81 40,191c2,77 7,122 16,136c36,55 42,99 42,301c0,211 -21,391 -66,561c-56,213 -181,378 -360,474c-33,18 -62,37 -65,43c-2,7 -15,86 -29,177c-13,91 -32,212 -41,270c-8,58 -29,139 -46,180c-16,41 -39,102 -50,135c-31,95 -88,194 -146,256c-41,45 -77,70 -160,112c-245,125 -513,179 -775,156c-492,-43 -869,-315 -1117,-808c-38,-77 -43,-82 -68,-77c-15,3 -119,21 -232,40c-486,83 -796,168 -1020,280c-58,29 -181,103 -275,165c-334,222 -531,290 -797,278c-111,-5 -118,-4 -118,14c0,73 -90,1244 -151,1969c-172,2052 -366,3724 -525,4532c-254,1294 -647,1968 -1248,2143c-397,115 -857,49 -1441,-205c-577,-252 -1097,-591 -1610,-1051c-120,-108 -406,-393 -534,-532l-53,-58l-62,40c-73,48 -110,63 -133,54c-32,-12 -167,-105 -244,-169c-81,-67 -280,-270 -326,-332c-65,-88 -248,-284 -422,-454c-103,-101 -249,-248 -323,-327l-136,-144l14,59c15,64 12,80 -22,169c-13,33 -71,188 -129,345c-253,680 -603,1512 -726,1727c-27,47 -31,67 -40,180c-14,191 -36,368 -68,558c-16,94 -35,220 -41,280c-111,1057 -416,2258 -822,3235c-49,118 -112,272 -138,342c-46,119 -233,544 -286,650c-13,26 -24,51 -24,56c0,5 53,12 118,14c313,14 721,162 1103,399c285,177 548,388 1029,824c398,360 825,831 872,961c10,29 17,34 57,40c303,41 470,139 517,300c12,44 13,72 5,171c-33,377 -171,854 -400,1382l-38,87l114,130c581,657 1113,1457 1641,2469c521,998 970,2085 1475,3570c58,171 115,331 125,356l20,45l144,-4c366,-11 613,78 819,296c205,216 314,512 349,947c6,72 14,294 19,495c8,323 11,374 30,445c54,203 121,296 441,615c311,309 403,428 500,650c141,321 99,596 -97,633c-84,16 -266,-54 -395,-152c-162,-123 -441,-431 -696,-768c-68,-90 -124,-163 -126,-163c-2,0 7,51 19,113c30,143 58,344 90,622c13,121 36,315 49,430c60,500 62,888 6,1076c-38,129 -112,189 -219,176c-145,-17 -254,-127 -340,-342c-53,-136 -81,-243 -145,-561c-57,-281 -283,-1304 -289,-1311c-2,-2 -7,52 -11,119c-16,296 -68,1099 -106,1643c-25,353 -87,577 -191,690c-67,72 -108,90 -209,90c-75,0 -93,-4 -154,-33c-123,-58 -219,-176 -297,-366c-114,-276 -147,-560 -129,-1094c6,-163 17,-488 25,-720c18,-502 18,-584 4,-560c-46,81 -148,385 -204,613c-44,179 -54,233 -159,815c-107,591 -147,744 -247,941c-89,177 -241,243 -394,170c-176,-83 -275,-331 -275,-687c0,-230 37,-446 136,-801c30,-109 89,-319 131,-468c90,-324 283,-1088 276,-1095c-2,-3 -9,3 -14,13c-32,56 -148,196 -239,288c-269,271 -531,398 -800,387c-94,-4 -115,-8 -166,-34c-41,-20 -68,-43 -89,-72c-27,-40 -30,-51 -30,-125c0,-208 124,-391 470,-691c365,-316 399,-374 499,-842c33,-151 57,-228 103,-322c30,-61 53,-89 135,-165c97,-90 99,-93 94,-129c-15,-96 -267,-643 -527,-1141c-401,-772 -838,-1519 -1396,-2390c-277,-433 -1132,-1707 -1178,-1756c-9,-9 -40,-14 -92,-15c-82,-2 -129,-19 -201,-74c-78,-59 -175,-217 -233,-377c-28,-80 -32,-105 -37,-225l-4,-135l-82,-104c-120,-155 -525,-565 -541,-549c-3,2 19,51 48,109c425,838 558,1816 372,2724c-7,30 -6,31 48,42c166,35 290,149 388,357c179,383 132,960 -113,1389c-141,247 -295,388 -482,442c-73,21 -229,22 -311,0c-86,-22 -230,-95 -302,-154l-63,-51l-16,38c-71,167 -167,521 -209,764c-50,297 -59,426 -59,813c1,198 5,389 10,425l9,65l57,-80c97,-135 200,-353 258,-543c29,-97 57,-136 97,-140c18,-2 41,2 53,8c63,34 131,284 160,590c31,327 -77,696 -282,958c-26,34 -45,62 -42,62c15,0 163,-96 240,-156c45,-35 171,-150 280,-257c110,-106 223,-212 253,-236c182,-143 232,-99 197,175c-30,230 -70,365 -162,544c-102,197 -266,395 -422,513c-35,26 -58,47 -52,47c24,0 255,-72 390,-122c176,-64 418,-184 500,-248c108,-84 137,-102 177,-106c57,-7 98,23 133,99c81,175 81,450 0,787c-85,350 -164,527 -324,726c-204,254 -551,483 -887,585c-39,12 -67,25 -62,30c12,12 190,75 321,113c242,70 474,113 766,141c87,8 165,20 172,26c38,31 2,109 -92,199c-310,296 -632,445 -1059,491c-108,11 -356,7 -439,-7l-39,-7l76,77c215,217 397,633 358,816c-14,64 -34,94 -76,114c-76,36 -161,14 -303,-81c-190,-127 -409,-225 -740,-329c-16,-5 -13,0 59,96c181,243 308,543 360,850c17,99 17,365 0,460c-19,107 -65,247 -100,303c-58,90 -137,113 -195,55zm6699,-1807c90,-41 181,-178 230,-346c31,-108 61,-314 75,-515c36,-526 81,-1239 95,-1505c19,-375 25,-429 45,-433c9,-1 23,3 32,10c11,9 79,301 238,1018c122,553 233,1041 247,1085c51,162 131,280 227,335c88,51 144,34 190,-58c44,-88 58,-181 64,-408c7,-318 -6,-468 -107,-1264c-50,-394 -83,-593 -121,-725c-11,-38 -20,-73 -20,-77c0,-13 45,-9 62,5c8,6 94,118 190,247c243,326 354,458 552,656c207,207 290,267 412,299c72,19 117,8 161,-37c107,-111 85,-331 -62,-633c-86,-177 -154,-263 -446,-560c-146,-148 -283,-297 -306,-330c-134,-199 -173,-354 -173,-700c0,-416 -26,-711 -80,-921c-104,-404 -316,-664 -628,-770c-142,-49 -218,-58 -424,-50l-178,6l-16,-26c-10,-14 -68,-173 -129,-352c-403,-1174 -730,-2016 -1086,-2792c-141,-309 -452,-928 -604,-1204c-502,-910 -1005,-1622 -1603,-2270c-148,-160 -398,-406 -413,-406c-11,0 -144,219 -239,395c-332,612 -543,1167 -654,1716c-45,219 -60,177 191,540c457,664 1043,1548 1380,2088c600,957 1178,2016 1483,2719c118,272 130,304 130,346c0,27 -6,36 -38,54c-93,52 -212,218 -260,363c-17,52 -45,169 -62,261c-16,92 -40,198 -51,235c-50,163 -155,306 -349,476c-334,291 -443,410 -514,557c-32,67 -41,98 -44,153c-7,118 44,201 140,228c125,34 426,-72 632,-224c101,-75 313,-287 387,-387c31,-41 84,-135 119,-207l64,-133l165,0c540,0 933,-140 1229,-437c56,-57 102,-101 102,-98c0,15 -58,118 -102,182c-228,331 -742,521 -1247,463c-47,-5 -87,-8 -89,-5c-2,2 -26,97 -52,212c-85,369 -171,697 -342,1313c-161,581 -192,753 -193,1055c0,232 13,308 75,443c46,98 134,194 193,210c93,26 176,-45 262,-222c114,-236 192,-539 295,-1151c98,-584 177,-881 306,-1151c56,-118 120,-173 151,-131c6,7 0,251 -14,637c-33,898 -38,1231 -24,1375c34,333 128,574 290,748c55,59 92,86 140,103c49,18 69,17 116,-5zm-7845,-3126c75,-172 228,-471 307,-603c157,-259 370,-509 482,-565c138,-69 229,4 239,190l4,83l93,-149c96,-154 187,-293 276,-421l51,-75l-6,-65c-22,-237 -28,-378 -23,-590c15,-560 90,-980 262,-1453c59,-165 138,-340 353,-787c319,-665 387,-840 472,-1221c25,-111 67,-340 76,-413c3,-28 7,-62 9,-76c30,-211 30,-671 0,-920c-45,-371 -133,-721 -272,-1075c-69,-177 -219,-478 -283,-570c-27,-38 -94,-137 -148,-220c-197,-296 -292,-413 -528,-649c-472,-472 -1064,-864 -1724,-1141c-440,-184 -894,-325 -1365,-424c-132,-28 -271,-57 -310,-66c-82,-18 -302,-48 -495,-67c-88,-8 -272,-13 -530,-12c-343,0 -419,3 -575,22c-99,12 -205,27 -235,32c-30,5 -109,19 -175,29c-314,52 -714,173 -1040,317c-393,173 -924,497 -1272,776c-219,176 -384,355 -500,543c-36,57 -57,81 -76,86c-35,9 -40,-1 -32,-69c30,-262 -219,-541 -557,-622c-442,-106 -1010,205 -1453,795c-239,318 -381,676 -415,1048c-32,340 77,689 272,873c102,97 205,145 351,164c278,37 654,-114 957,-384c58,-52 100,-70 114,-48c14,23 -310,1537 -449,2102c-24,96 -43,176 -41,177c1,1 23,-38 50,-87c102,-193 232,-369 352,-479c137,-125 199,-148 254,-93c63,64 85,231 77,592c-9,365 -34,652 -98,1098c-17,118 -29,216 -26,218c2,2 19,-37 37,-88c72,-205 181,-395 253,-438c108,-66 185,35 287,375c113,374 222,860 309,1370c37,220 39,228 45,170c25,-227 40,-342 57,-425c59,-289 117,-400 207,-400c67,1 104,48 197,250c87,190 179,436 258,695c67,217 248,835 289,985l22,84l17,-139c52,-429 161,-817 294,-1044c95,-162 227,-222 336,-153c62,40 117,105 229,273c107,162 252,441 354,680c69,164 309,780 392,1006c27,73 50,131 51,129c2,-1 -6,-97 -18,-212c-25,-262 -36,-728 -20,-912c19,-227 54,-323 134,-361c52,-25 79,-26 138,-6c73,25 171,108 312,263c222,245 366,434 629,822c166,245 292,457 390,654c44,88 77,148 74,131c-60,-344 -150,-704 -256,-1030c-65,-199 -80,-262 -80,-329c0,-108 48,-153 154,-143c293,27 941,690 1321,1351c119,209 209,404 285,625l47,133l12,-103c27,-226 108,-574 174,-749c98,-257 192,-412 286,-471c62,-40 101,-38 150,6c52,47 77,111 101,252c32,198 42,362 44,730c0,194 4,349 7,345c4,-4 30,-61 59,-127zm-17364,-3465c210,-671 560,-1226 961,-1525c101,-75 300,-177 388,-199c129,-33 196,28 230,209c32,165 30,394 -10,1055c-8,135 -17,286 -20,335l-5,90l61,-114c383,-715 885,-1226 1285,-1308c128,-26 194,14 233,141c28,92 45,294 37,461l-6,140l80,-185c103,-238 345,-725 450,-905c210,-359 425,-651 612,-831c108,-105 177,-119 267,-54c85,62 189,234 266,440l28,74l103,-489c203,-962 325,-1481 384,-1634c42,-110 107,-181 164,-181c91,0 149,66 261,299c119,247 162,327 172,321c4,-2 27,-56 51,-120c55,-151 164,-371 242,-489l62,-94l-25,-46c-82,-151 -121,-303 -121,-476c-1,-123 14,-244 35,-276c18,-28 25,10 16,93c-10,98 3,235 35,353l21,80l14,-58c7,-31 20,-71 29,-88c25,-49 94,-119 157,-160c96,-62 257,-86 327,-49c23,12 28,71 8,88c-7,5 -68,19 -136,31c-145,25 -222,59 -276,122c-41,48 -76,133 -76,185c0,35 33,114 48,114c5,0 32,-29 61,-64c59,-73 131,-117 156,-96c20,17 19,35 -9,116c-25,70 -56,207 -56,243c0,21 95,111 117,111c7,0 13,-7 13,-16c0,-30 128,-398 185,-533c92,-218 214,-452 331,-634c24,-37 44,-70 44,-72c0,-2 -33,-26 -72,-53c-485,-326 -1096,-361 -1403,-80c-36,33 -67,59 -69,57c-1,-2 -15,-47 -30,-99l-28,-96l-86,-56c-48,-30 -161,-97 -252,-148c-406,-228 -471,-266 -576,-335c-459,-305 -954,-830 -1172,-1245c-62,-117 -130,-292 -167,-425l-28,-100l-132,-64c-205,-98 -295,-178 -437,-389l-70,-104l-111,-53c-152,-72 -454,-191 -671,-265c-1324,-448 -2694,-496 -4079,-144c-510,130 -1096,340 -1425,510c-946,491 -1626,1099 -1968,1760c-117,228 -197,466 -239,714c-23,136 -30,391 -16,535c15,147 19,167 84,435l52,215l6,-145c10,-238 60,-437 150,-596c52,-93 170,-218 246,-260c56,-31 59,-44 10,-44c-36,0 -153,-30 -207,-54c-33,-14 -25,-15 110,-9c165,7 277,-5 408,-43c136,-40 227,-85 422,-213l24,-16l-19,33c-46,78 -144,163 -257,222l-72,38l45,12c225,60 438,314 553,661c124,372 112,714 -41,1184c-138,424 -269,584 -533,651c-76,19 -205,15 -286,-10c-156,-48 -287,-202 -412,-480l-47,-106l-7,342c-8,434 -31,725 -94,1188c-26,194 -101,656 -132,823l-19,98l106,86c58,48 194,175 302,282l195,196l-34,-130c-62,-239 -55,-400 21,-473c41,-39 75,-52 142,-52c269,0 908,446 1588,1109l137,134l-45,-96c-77,-163 -83,-243 -18,-268c126,-49 627,107 1093,340c435,218 780,462 1106,783l101,100l6,-204c6,-230 24,-374 72,-564c76,-298 200,-534 356,-679c167,-154 311,-148 394,16c53,103 86,278 135,704c38,327 52,428 87,610l26,140l19,-70c11,-38 40,-135 64,-215zm19770,-74c182,-48 361,-226 497,-494c176,-345 231,-762 147,-1119c-68,-289 -231,-501 -408,-529l-39,-6l-13,53c-24,103 -102,345 -158,489c-30,80 -61,173 -68,208l-12,63l47,-8c96,-16 168,0 238,53c54,41 92,139 77,199l-6,26l-30,-40c-48,-66 -139,-115 -213,-115c-38,0 -94,17 -117,36c-25,21 -29,33 -39,121c-12,107 -8,251 10,308c26,85 89,143 169,155c42,6 126,-3 192,-22c25,-7 25,-7 6,15c-11,12 -48,36 -83,53c-88,43 -183,45 -263,6c-107,-53 -159,-156 -169,-336l-6,-114l-162,334c-144,294 -163,340 -163,383c0,63 23,101 91,155c142,112 335,163 475,126zm-24598,-3628c166,-53 317,-217 401,-438c47,-123 48,-131 7,-79c-69,87 -167,139 -261,139c-203,0 -402,-270 -487,-663c-19,-86 -22,-133 -22,-297c0,-180 2,-203 27,-294c57,-211 157,-355 294,-423c68,-34 82,-37 156,-37c54,1 96,7 121,17c21,10 41,17 44,17c4,0 -27,-34 -68,-76c-143,-144 -299,-217 -471,-218c-91,-1 -99,1 -171,37c-172,84 -288,292 -342,607c-104,615 57,1312 371,1599c65,60 164,119 218,131c43,9 111,1 183,-22zm11357,-118c8,-69 27,-187 42,-262l26,-137l-54,-49l-54,-50l-8,56c-11,73 -2,368 14,497c8,55 14,93 16,85c1,-8 9,-71 18,-140zm-12059,-356c-13,-32 -38,-105 -56,-161c-17,-57 -34,-103 -37,-103c-9,0 9,101 24,139c27,68 86,191 90,188c1,-2 -8,-30 -21,-63zm956,42c211,-102 339,-467 308,-877c-13,-163 -24,-220 -61,-323c-101,-279 -319,-407 -521,-308c-167,82 -286,304 -304,566c-6,87 6,325 14,261c6,-53 31,-132 47,-145c12,-10 15,-37 15,-125c0,-192 47,-325 149,-425c87,-84 175,-107 280,-73c43,13 50,19 45,35c-4,13 4,29 28,51c49,47 125,142 147,185c85,167 65,551 -37,710c-25,41 -89,107 -116,121c-20,11 -24,22 -28,80c-6,84 -40,161 -89,206c-38,34 -55,39 -109,37c-19,-1 -13,5 25,24c41,20 61,24 110,21c33,-2 77,-11 97,-21zm-189,-149c57,-58 78,-169 53,-287c-39,-184 -165,-340 -276,-340c-66,0 -120,94 -120,209c0,102 72,284 146,370c77,89 140,104 197,48zm24977,-400c52,-301 147,-607 292,-942c289,-668 714,-1276 1287,-1838l161,-158l-19,-37c-32,-61 -191,-271 -303,-398c-281,-318 -958,-925 -1338,-1199c-449,-324 -951,-538 -1316,-561l-101,-7l-100,189c-195,368 -454,780 -686,1093c-118,158 -247,315 -254,308c-2,-3 101,-191 230,-419c631,-1113 1100,-1993 1222,-2292c494,-1211 810,-2641 855,-3866c21,-559 7,-1221 -35,-1725c-18,-216 -17,-208 -5,-200c6,4 8,-5 5,-22c-3,-15 -14,-89 -26,-163c-65,-425 -196,-910 -340,-1266c-470,-1164 -1288,-1884 -2459,-2163c-585,-139 -1274,-158 -2015,-55c-428,60 -759,142 -994,248c-584,264 -1062,771 -1407,1491c-214,448 -375,972 -474,1535c-25,149 -73,511 -67,516c1,1 43,18 92,39c146,60 301,144 352,189l47,43l-14,115c-38,332 24,889 205,1854c119,632 170,1052 196,1634c17,382 -4,984 -46,1335c-16,131 -64,365 -75,365c-3,0 -1,-42 6,-92c36,-264 36,-288 -13,-588c-300,-1862 -581,-3151 -728,-3344c-124,-163 -542,-276 -1166,-316c-161,-10 -169,-10 -290,15c-499,105 -920,308 -1238,597c-62,55 -63,58 -59,100c3,24 16,81 30,128c37,122 184,737 272,1135c86,389 187,872 346,1660c160,793 232,1074 357,1390c72,183 200,433 296,576c330,496 869,974 1635,1453c118,74 142,82 142,50c0,-8 23,-83 50,-167c148,-448 456,-893 815,-1177c383,-303 755,-434 1189,-417c392,15 737,163 1011,432c263,259 348,480 347,905c0,178 -16,309 -58,498c-28,127 -38,160 -109,360c-45,129 -50,172 -21,172c27,0 424,113 602,171c1178,384 2087,999 2714,1834c54,72 127,175 162,230c91,140 149,205 308,345c152,133 368,351 451,454c29,36 54,64 57,62c2,-3 12,-52 22,-109zm-28744,-2238c77,-38 228,-181 299,-283c36,-51 282,-386 303,-411c4,-5 46,-61 92,-124c47,-63 136,-183 197,-265c62,-83 119,-160 127,-171c8,-11 44,-60 81,-110c36,-49 93,-130 127,-180c33,-49 64,-92 67,-95c4,-3 56,-79 116,-170c59,-91 116,-176 125,-190c41,-62 154,-270 232,-430c84,-171 120,-253 200,-455c21,-55 46,-116 53,-135c28,-68 64,-174 61,-178c-2,-2 -46,40 -97,93c-51,53 -135,129 -187,168c-269,208 -346,252 -587,336l-136,48l-29,79c-138,387 -350,718 -770,1204c-278,322 -412,536 -501,800c-29,85 -33,111 -37,239c-5,164 4,208 52,248c43,36 118,30 212,-18zm23859,-1034c5,-11 31,-56 57,-99c149,-245 156,-633 18,-922c-82,-170 -219,-297 -393,-364c-208,-81 -455,-89 -686,-24c-128,36 -310,131 -416,217c-225,183 -377,462 -432,787c-16,99 -25,541 -11,555c4,4 65,0 135,-9c290,-37 362,-41 748,-40c393,0 596,13 880,57l80,12l6,-75c3,-41 10,-84 14,-95zm-23157,-1022l82,-6l110,-221c61,-121 110,-226 110,-232c0,-9 -24,-3 -71,16c-85,35 -152,74 -296,172c-24,16 -93,55 -156,87c-214,109 -331,103 -391,-22c-70,-144 -51,-366 47,-531c74,-127 178,-239 293,-316c63,-42 72,-54 90,-118c19,-63 54,-107 97,-121c18,-5 84,-17 147,-25c203,-26 331,-103 376,-227c19,-53 21,-179 4,-265c-10,-52 -15,-62 -34,-62c-11,0 -79,-18 -151,-40c-343,-105 -436,-98 -677,54c-96,61 -220,175 -274,254c-72,104 -126,243 -161,416c-25,124 -25,498 -1,629c23,120 63,258 94,323c54,111 177,198 319,226c75,15 308,20 443,9zm9917,-185c9,-29 18,-80 22,-114l6,-61l-44,-35c-70,-56 -145,-103 -469,-298c-472,-283 -615,-386 -752,-542c-82,-95 -143,-180 -212,-298l-54,-92l-22,48c-38,85 -117,334 -144,457c-15,65 -39,195 -55,289c-20,118 -35,178 -48,197c-11,14 -22,43 -26,63c-7,45 -22,40 183,63c451,51 1041,185 1470,334c63,22 118,40 122,40c4,1 14,-23 23,-51zm-10252,-7c13,-5 86,-53 163,-107c278,-196 326,-220 580,-290c254,-70 319,-106 587,-327c151,-124 286,-256 323,-313c11,-16 26,-37 36,-47c29,-33 116,-219 153,-328c78,-234 113,-460 124,-789l7,-215l50,-76c28,-41 89,-119 137,-173c165,-185 385,-443 722,-846c187,-223 454,-540 595,-705c425,-497 690,-823 809,-992c24,-35 50,-63 57,-63c6,0 48,-39 91,-87c43,-49 117,-128 163,-177c47,-48 96,-105 110,-124c14,-20 36,-49 49,-64c52,-60 28,-14 -63,124l-95,143l65,3c164,7 378,-56 663,-198c396,-197 551,-336 551,-494c0,-37 -5,-58 -14,-63c-8,-4 -53,-66 -101,-138c-322,-479 -656,-784 -980,-893c-227,-77 -458,-59 -664,50c-64,34 -163,98 -181,118c-3,3 -30,25 -60,49c-55,45 -81,69 -244,222c-290,274 -592,606 -806,889c-14,18 -35,44 -48,59c-27,30 -269,347 -328,430c-22,31 -66,90 -97,131c-59,78 -67,89 -105,142c-13,18 -51,72 -85,120c-34,47 -69,96 -77,108c-8,12 -29,41 -46,64c-17,22 -48,68 -69,101c-22,33 -42,62 -45,65c-8,7 -364,541 -369,554c-2,6 -23,38 -45,71c-23,33 -47,69 -53,80c-47,75 -129,206 -148,235c-28,45 -100,162 -135,220c-15,25 -51,83 -80,130c-64,105 -123,210 -118,214c1,2 28,20 58,41c56,38 145,124 137,131c-3,3 -33,-14 -67,-37c-79,-52 -163,-90 -265,-120c-65,-19 -104,-23 -205,-23c-112,0 -134,3 -205,28c-78,27 -188,79 -270,126c-152,86 -377,291 -520,474c-16,21 -40,50 -53,65c-12,14 -56,69 -97,123l-75,96l28,18c15,10 40,31 55,48c28,29 30,29 73,18c89,-24 188,-11 280,36c71,37 176,135 233,217c42,62 59,79 75,77c115,-16 234,3 406,65c145,53 151,55 167,72c18,18 19,28 -12,-169c-21,-131 -15,-335 14,-460c23,-98 63,-223 56,-172c-11,79 -26,463 -21,532c3,42 24,138 46,214c54,187 62,242 50,349c-26,227 -129,343 -410,461c-52,22 -107,48 -122,58c-14,10 -29,18 -32,18c-11,0 -170,102 -246,158c-195,145 -297,313 -308,508c-4,84 -3,93 21,130c61,95 149,136 230,105zm-518,-118c-21,-51 -47,-148 -61,-228c-22,-123 -30,-495 -15,-620c35,-271 136,-487 312,-666c68,-68 193,-147 299,-188c36,-14 67,-30 68,-36c4,-26 -120,-162 -187,-204c-25,-16 -75,-39 -111,-51c-149,-50 -272,-2 -461,183c-122,118 -177,195 -258,362c-195,399 -239,909 -99,1140c84,138 210,232 393,294c106,36 130,39 120,14zm7874,-179c2,-2 -16,-4 -42,-4c-25,0 -48,4 -51,9c-5,8 84,3 93,-5zm-8513,-376c-14,-78 -18,-288 -7,-386c30,-253 127,-521 270,-742c81,-125 228,-268 357,-347c19,-11 19,-11 -1,-27c-11,-9 -51,-25 -88,-37c-156,-49 -310,-4 -445,130c-315,311 -427,951 -227,1286c36,59 121,155 138,155c5,0 7,-15 3,-32zm11527,-247l-6,-112l-101,-49c-121,-59 -206,-87 -304,-102c-82,-12 -105,-3 -100,41c3,22 36,46 228,161c124,74 239,145 255,157c17,12 31,20 32,19c2,-1 0,-53 -4,-115zm-2609,34c9,-25 -4,-85 -35,-161c-17,-40 -32,-85 -35,-100c-5,-33 -50,-102 -76,-118c-27,-17 -52,5 -56,47c-3,39 4,56 92,219c63,119 95,151 110,113zm-7404,-149c0,-4 -7,-5 -16,-2c-9,3 -29,6 -45,6c-29,0 -79,37 -79,59c0,5 31,-5 70,-22c38,-18 70,-36 70,-41zm7066,-233c-16,-72 -36,-201 -42,-266c-7,-85 4,-134 46,-200c44,-69 156,-134 208,-120c10,2 47,46 82,96c79,113 274,309 355,357c131,77 249,97 364,61c97,-30 148,-68 274,-202c28,-31 58,-22 142,42c91,68 274,161 354,179c85,20 187,9 266,-29c134,-62 237,-150 416,-352c72,-81 148,-159 169,-174c46,-32 104,-54 144,-55c23,0 27,-3 21,-17c-44,-115 -97,-380 -116,-576c-15,-161 -6,-607 15,-766c48,-361 90,-506 199,-683c20,-34 26,-54 22,-70c-16,-53 -123,-193 -217,-284c-292,-285 -357,-352 -423,-438c-16,-21 -52,-66 -79,-100c-49,-61 -216,-309 -216,-320c0,-3 -16,-30 -35,-60c-156,-245 -290,-646 -336,-1011c-19,-150 -16,-471 6,-570c62,-287 194,-601 305,-728c73,-82 142,-105 210,-68l35,18l61,-186c119,-363 253,-561 410,-603l42,-12l12,-75c43,-273 161,-594 311,-848c96,-162 161,-223 237,-223c64,0 113,75 138,209c7,42 18,191 23,331c9,216 30,412 46,428c2,3 11,-3 20,-12c20,-19 18,-19 60,-2c48,20 183,158 228,233c120,198 226,512 297,878c28,143 26,139 52,150c47,21 178,296 243,510c18,60 36,110 40,109c3,-1 80,-34 169,-75l163,-73l14,-210c8,-126 13,-323 11,-490c-2,-154 1,-354 7,-445c6,-91 13,-225 17,-296l6,-130l-83,-56c-305,-203 -606,-482 -1163,-1078c-526,-563 -528,-565 -958,-1081c-135,-162 -302,-356 -370,-430c-111,-119 -479,-473 -529,-508c-15,-10 -65,-11 -261,-2c-697,29 -947,61 -1508,191c-250,58 -352,86 -476,130c-347,122 -520,286 -596,564c-19,71 -22,105 -22,305c0,205 3,249 37,495c20,149 40,306 44,349l6,80l51,-180c30,-106 52,-169 54,-155c2,14 -1,81 -7,150c-6,70 -22,269 -36,445c-21,273 -59,581 -125,1021c-55,363 -115,980 -140,1450c-29,535 -29,1709 0,2202c37,633 111,1239 186,1528c58,224 179,546 286,758c162,324 337,576 543,783c103,104 262,232 288,234c5,0 6,-12 3,-27zm5911,-43c442,-238 829,-654 1141,-1225c242,-443 369,-932 452,-1735c64,-629 88,-985 97,-1449c6,-336 6,-344 -13,-338c-10,4 -3,-5 16,-20c61,-47 128,-122 152,-171c17,-36 23,-64 23,-117c0,-91 -28,-149 -111,-233c-88,-88 -244,-160 -500,-230l-72,-20l-6,96c-4,54 -9,121 -13,151c-6,60 -15,56 72,35l29,-7l-32,43c-22,31 -55,56 -114,87c-69,37 -130,57 -368,118c-320,83 -413,102 -708,146c-349,52 -637,51 -990,-2c-73,-11 -137,-17 -144,-13c-7,5 -8,3 -3,-6c6,-10 2,-12 -16,-7c-29,8 -209,-78 -209,-100c0,-10 5,-11 18,-5c9,5 41,12 71,16l54,7l-7,-192c-4,-106 -9,-195 -11,-198c-7,-6 -118,26 -215,62c-98,37 -92,18 -65,207c22,156 31,598 16,767c-18,193 -43,309 -133,632l-52,184l38,601l38,601l81,75c109,100 315,306 350,350c149,186 284,420 336,580c50,155 69,301 53,410c-9,60 -8,66 12,79c43,30 171,158 244,246c145,172 272,394 322,562l25,81l35,-14c19,-8 67,-32 107,-54zm-6488,-379c-125,-178 -161,-232 -211,-320c-97,-167 -245,-478 -282,-591c-49,-151 -120,-437 -165,-666c-139,-700 -201,-1512 -201,-2648l0,-448l-22,5c-13,4 -42,9 -65,13c-24,4 -43,9 -43,12c0,3 11,24 25,48c35,60 58,156 50,207c-13,79 -54,148 -139,233c-123,122 -299,229 -542,328c-214,87 -390,125 -584,126l-105,1l-62,82c-34,45 -94,122 -133,171c-38,49 -68,91 -66,93c2,2 25,12 52,22c31,12 48,25 50,38c5,27 218,558 289,718c86,194 242,520 381,795c273,545 472,841 748,1115c269,268 584,487 916,637c119,53 128,56 109,29zm4816,-2058c-6,-46 -42,-513 -51,-677l-7,-119l-78,209c-72,193 -116,329 -134,412c-5,23 -3,32 7,32c7,0 67,40 133,89c66,49 123,90 128,90c4,1 5,-16 2,-36zm22778,-1357c659,-107 1104,-810 1366,-2156c128,-660 303,-2085 440,-3600c45,-497 48,-536 35,-534c-206,31 -311,38 -544,38c-274,-1 -380,-11 -595,-59c-245,-54 -480,-147 -687,-272l-118,-71l-21,72c-49,168 -141,461 -280,896c-300,932 -388,1248 -455,1638l-25,147l10,325c18,534 24,981 16,1045l-8,60l-14,-40c-45,-128 -88,-364 -106,-589l-12,-143l-259,-207c-549,-439 -926,-765 -1342,-1162l-171,-163l-66,117c-389,688 -638,1510 -722,2384c-14,148 -15,170 -1,195c44,84 498,563 736,777c551,496 1105,853 1700,1099c258,106 481,172 680,201c127,18 335,19 443,2zm-21112,-1136c256,-26 527,-90 969,-228c118,-37 125,-41 131,-68c11,-48 10,-991 -1,-1389c-22,-797 -25,-855 -56,-932c-65,-163 -209,-405 -338,-568c-31,-38 -71,-89 -90,-113c-99,-124 -490,-527 -666,-688c-96,-87 -282,-248 -370,-319c-47,-38 -94,-78 -105,-88c-11,-10 -45,-37 -75,-60c-30,-23 -69,-53 -86,-67c-18,-14 -45,-35 -60,-46c-78,-59 -222,-165 -249,-184c-16,-12 -59,-43 -95,-69c-80,-59 -374,-256 -493,-331c-49,-30 -112,-70 -140,-89c-55,-35 -391,-240 -492,-299c-33,-19 -107,-71 -165,-116c-96,-73 -197,-149 -367,-275c-33,-25 -102,-75 -153,-111c-50,-36 -138,-102 -195,-147c-57,-46 -108,-83 -113,-83c-5,0 -21,26 -35,58c-15,31 -24,48 -21,37c16,-55 16,-206 0,-307c-68,-432 -308,-770 -696,-981c-248,-134 -733,-264 -1397,-373c-374,-61 -487,-98 -678,-223c-100,-65 -149,-103 -244,-190c-170,-154 -246,-235 -357,-381c-164,-216 -350,-358 -536,-410c-134,-37 -265,-17 -288,45c-40,104 15,220 232,491c57,71 139,181 183,244c298,433 386,515 786,736c409,226 390,247 -34,36c-379,-188 -539,-333 -810,-733c-116,-173 -133,-196 -217,-304c-142,-183 -204,-290 -231,-400c-13,-53 -22,-68 -110,-192c-53,-74 -62,-81 -156,-130c-119,-62 -158,-71 -202,-48c-51,26 -71,69 -71,150c0,52 7,85 26,130c112,264 222,551 304,788c74,217 103,283 173,390c66,101 147,189 292,317c61,53 184,166 275,251c91,85 209,194 263,243c94,86 126,127 70,90c-30,-18 -214,-164 -223,-175c-3,-3 -34,-30 -70,-59c-36,-30 -72,-61 -81,-69c-62,-62 -208,-181 -351,-288c-24,-17 -70,-58 -104,-90c-173,-166 -251,-328 -424,-883c-29,-91 -73,-217 -98,-280c-38,-96 -55,-124 -99,-169c-29,-30 -70,-81 -90,-113c-85,-132 -101,-148 -210,-204c-42,-21 -140,-21 -181,0c-18,9 -39,34 -52,62c-40,82 -19,166 120,474c29,63 100,261 160,440c119,360 154,450 242,623c67,131 139,236 236,346c64,72 321,291 612,523c80,64 172,144 205,178l60,62l-105,-71c-58,-38 -110,-74 -116,-79c-5,-5 -39,-29 -73,-53c-35,-24 -80,-56 -100,-71c-20,-15 -47,-35 -61,-45c-14,-9 -50,-38 -81,-63c-30,-25 -70,-56 -89,-70c-18,-14 -41,-32 -50,-40c-10,-8 -37,-31 -60,-50c-23,-19 -50,-42 -60,-50c-80,-68 -103,-85 -114,-85c-52,-1 -383,-317 -536,-511c-67,-86 -155,-235 -238,-407c-55,-113 -117,-231 -137,-263c-39,-61 -175,-203 -255,-265c-147,-116 -260,-128 -332,-36c-29,36 -33,48 -32,98c1,47 9,74 52,160c28,57 65,142 83,189c18,47 118,256 223,466c105,209 219,438 252,510c121,256 294,441 609,651c115,76 209,131 590,344c516,287 763,397 1076,478c238,62 373,86 939,167c817,117 818,117 1193,120c257,3 339,7 379,19c29,8 64,15 80,15c15,0 28,4 28,9c0,9 -172,31 -240,31l-39,0l297,298c415,415 673,698 1181,1297c693,817 1079,1206 1516,1527c126,93 275,209 275,215c0,2 -17,-8 -39,-21l-38,-24l-7,306c-4,169 -12,492 -17,717c-5,226 -14,448 -19,495c-5,47 -13,205 -16,351l-7,266l59,6c82,8 435,27 574,30c301,7 396,6 491,-3zm5044,-658c262,-103 462,-139 839,-148c316,-9 623,11 820,52l29,6l-7,-113c-37,-617 -162,-1776 -307,-2829c-140,-1023 -453,-3002 -694,-4383c-30,-176 -55,-330 -55,-343c0,-23 3,-24 63,-25c186,-2 333,-78 612,-320c500,-433 981,-839 1035,-874c36,-23 112,-66 169,-95c240,-120 276,-158 269,-280c-9,-158 -148,-332 -319,-401c-77,-31 -213,-37 -315,-14c-169,37 -323,114 -666,332c-301,190 -353,216 -441,221c-61,4 -75,1 -131,-28c-84,-42 -205,-134 -351,-267c-66,-59 -194,-173 -285,-252c-223,-195 -581,-554 -663,-666c-36,-49 -108,-159 -159,-243c-247,-407 -320,-526 -390,-632c-285,-432 -568,-694 -818,-756c-203,-51 -394,78 -394,266c0,86 31,163 133,330c317,522 530,877 809,1350c173,294 319,537 324,538c25,10 71,59 90,96c26,50 29,146 6,191c-21,40 -56,71 -67,59c-4,-5 -19,-51 -31,-101c-13,-51 -26,-97 -29,-101c-3,-5 -55,-42 -116,-82c-229,-153 -561,-417 -799,-635c-163,-150 -434,-429 -576,-595c-259,-303 -405,-446 -588,-577c-237,-170 -427,-225 -597,-172c-73,22 -144,81 -147,122c-5,73 5,108 56,212c138,279 500,750 760,987c239,219 1228,1180 1221,1186c-9,9 -266,-152 -379,-237c-210,-158 -431,-359 -614,-560c-104,-115 -101,-113 -702,-537c-826,-582 -878,-615 -1065,-669c-108,-32 -245,-43 -301,-25c-81,26 -124,78 -139,167c-8,49 13,140 49,210c78,156 353,435 771,783c331,275 439,357 562,426c163,90 402,252 563,380c153,122 401,360 358,345c-121,-44 -426,-230 -643,-391c-162,-121 -859,-474 -1292,-655c-260,-109 -525,-184 -599,-170c-65,12 -124,85 -124,152c1,109 206,304 585,558c394,263 777,453 1635,810c102,42 205,86 230,97c90,41 479,201 615,255c460,179 900,314 1188,363c54,10 67,16 67,31c0,14 28,379 75,989c3,36 7,88 10,115c3,28 7,84 10,125c100,1392 505,6111 560,6517l6,42l92,-49c51,-27 137,-66 192,-88zm15075,-1600c0,-44 9,-168 20,-278c58,-578 132,-878 500,-2019c240,-743 307,-970 464,-1556c179,-670 337,-1322 323,-1336c-1,-1 -45,-10 -97,-21c-189,-39 -303,-103 -377,-210c-93,-136 -118,-311 -93,-652c5,-74 17,-279 25,-455c16,-329 34,-543 61,-700c19,-116 53,-269 70,-319c8,-22 12,-41 10,-43c-2,-2 -145,77 -317,175c-1358,775 -2426,1342 -3463,1838c-512,245 -765,369 -765,375c-1,3 25,16 57,29c116,47 451,223 602,315c180,112 392,262 575,408c495,396 1129,1049 1604,1652l103,130l-7,110c-32,558 -117,1100 -251,1590c-26,94 -49,182 -51,196c-5,27 42,70 412,380c159,134 579,469 587,469c4,0 8,-35 8,-78zm-34845,-872c398,-21 792,-63 1123,-119c156,-27 172,-32 236,-71c38,-23 170,-91 294,-151c332,-161 554,-300 823,-515c405,-323 818,-796 1203,-1378c228,-344 360,-578 489,-866c119,-269 163,-405 273,-845c41,-165 77,-308 80,-319c7,-23 30,-26 -476,74c-771,153 -1212,259 -1510,361c-113,39 -316,109 -453,155c-227,77 -442,158 -542,203c-22,10 -98,40 -170,66c-239,88 -219,71 -400,330c-496,710 -934,1253 -1335,1655c-80,80 -170,166 -200,191c-60,51 -249,179 -375,254c-100,60 -319,206 -363,242c-29,23 -35,25 -48,12c-13,-13 -10,-20 23,-53c37,-37 173,-143 279,-216c28,-19 80,-55 115,-79c310,-214 524,-430 1010,-1016c392,-473 657,-832 1056,-1431c325,-486 582,-896 928,-1474c87,-146 182,-303 211,-350c30,-46 50,-87 46,-91c-4,-3 -59,-30 -122,-59c-525,-239 -1088,-554 -1663,-929l-188,-123l-22,19c-226,200 -546,505 -1302,1243c-695,679 -793,773 -1035,995c-96,87 -236,222 -310,299c-74,76 -265,260 -423,409c-306,286 -439,426 -525,550c-191,277 -263,595 -249,1107c11,408 78,714 218,998c45,91 151,253 198,302c9,9 37,39 62,66c41,44 100,99 157,145c152,126 416,240 682,295c225,46 620,91 985,113c204,12 999,13 1220,1zm3045,-355c412,-62 546,-93 1530,-344c107,-27 303,-73 435,-101c593,-127 1032,-261 1479,-450c91,-38 254,-104 363,-146c109,-42 290,-116 403,-164c113,-48 223,-94 245,-102c46,-18 52,-32 31,-81c-23,-56 -63,-72 -176,-71c-138,3 -197,21 -636,202c-355,147 -722,245 -1414,377c-320,62 -361,72 -595,150c-137,46 -412,132 -610,190c-435,128 -547,164 -689,222c-181,73 -408,194 -621,331l-50,33l35,-6c19,-3 141,-21 270,-40zm12767,-2c56,-26 139,-109 197,-197c56,-84 226,-417 226,-443c0,-32 -63,-161 -105,-218c-53,-70 -58,-110 -13,-110c36,1 26,-15 -59,-96c-193,-182 -561,-349 -997,-454c-353,-85 -863,-165 -1281,-200c-72,-6 -82,-15 145,119c695,408 925,586 1150,891c285,386 365,488 450,578c131,138 202,171 287,130zm21501,-1653c109,-6 221,-15 250,-21c62,-12 115,-54 131,-102c15,-44 82,-843 151,-1787c17,-228 33,-431 36,-450c8,-47 -11,-62 -111,-85c-259,-58 -463,-161 -821,-412c-59,-42 -115,-57 -190,-50c-117,11 -245,79 -354,188c-97,97 -133,174 -165,354c-29,166 -244,1030 -385,1548c-55,202 -100,371 -100,376c0,13 168,121 285,182c139,73 310,140 469,183c178,49 297,66 584,85c13,0 112,-4 220,-9zm-29808,-835c0,-3 -64,-37 -142,-76c-253,-126 -545,-299 -871,-513c-155,-102 -238,-166 -329,-254l-56,-55l-8,48c-10,68 9,159 42,202c29,38 64,56 140,73c61,14 371,138 478,192c45,22 169,90 276,151c177,100 444,237 463,237c4,0 7,-2 7,-5zm-6125,-679c240,-109 969,-384 1170,-442c326,-94 1146,-276 1702,-378c160,-30 296,-57 301,-60c15,-9 55,-147 45,-156c-4,-4 -53,-22 -108,-40c-169,-55 -877,-307 -1110,-395c-282,-106 -468,-181 -734,-294c-118,-50 -215,-90 -216,-89c-1,2 -125,210 -277,463c-317,531 -494,816 -730,1178c-92,142 -168,260 -168,263c0,7 -6,9 125,-50zm30102,-985c1596,-750 2498,-1232 4858,-2594c391,-225 720,-414 733,-420c12,-6 22,-14 22,-18c0,-4 -33,-52 -74,-106c-283,-377 -455,-834 -523,-1393c-13,-110 -18,-221 -18,-463c0,-207 -3,-316 -10,-314c-5,2 -50,16 -100,31c-232,71 -824,267 -1035,343c-682,246 -1451,585 -1879,827c-42,24 -130,74 -196,111c-66,38 -259,150 -430,250c-537,316 -883,510 -1455,818c-680,365 -890,472 -2300,1170c-51,25 -64,36 -62,52c4,27 190,303 297,440c450,579 998,1028 1610,1320c99,47 187,90 195,95c8,5 18,9 22,9c4,1 159,-70 345,-158zm5752,-3113c109,-60 1140,-651 1239,-711l84,-50l-6,-46c-3,-25 -8,-59 -11,-76c-3,-16 -8,-84 -10,-150c-5,-147 9,-240 72,-470c39,-144 46,-184 47,-270c1,-135 -8,-192 -53,-332c-68,-210 -166,-386 -273,-490l-53,-52l-230,50c-431,93 -1333,327 -1404,363c-50,26 -79,70 -87,132c-11,94 2,567 21,704c61,453 177,807 377,1147c24,40 61,98 83,129c66,92 120,163 124,164c2,0 38,-19 80,-42zm1046,-337c115,-6 282,-11 371,-11c89,0 182,-3 207,-6l46,-7l-62,-40c-94,-60 -189,-162 -229,-246l-34,-70l-339,194c-186,107 -342,198 -346,202c-5,5 33,5 84,1c50,-4 186,-12 302,-17z"/>
    <path stroke="#17b2b2" fill="url(#svg_41)" id="svg_6" d="m5085016.908819,-3389301.78059c-383,-60 -675,-382 -740,-817c-35,-234 -5,-518 63,-594c51,-57 127,-36 169,45c8,16 30,89 49,163c72,287 219,530 399,658c77,55 134,80 229,100c94,19 141,19 248,0c122,-21 239,-64 384,-139c69,-36 155,-75 191,-86c77,-24 165,-27 182,-6c56,67 -215,347 -494,511c-227,134 -482,195 -680,165z"/>
    <path stroke="#17b2b2" fill="url(#svg_41)" id="svg_7" d="m5085505.908819,-3390390.78059c-213,-34 -370,-172 -507,-446c-81,-163 -134,-341 -158,-537c-17,-144 -7,-463 20,-612c75,-417 325,-804 639,-988c89,-52 228,-111 245,-104c7,2 5,5 -5,5c-30,2 -212,99 -279,150c-99,76 -248,236 -326,352c-154,231 -224,426 -258,715c-52,446 39,887 238,1154c231,309 484,377 803,217c323,-163 592,-506 763,-975c88,-240 124,-430 125,-658l1,-161l-76,-80c-41,-43 -89,-99 -106,-124c-74,-108 -153,-298 -182,-441l-12,-56l-77,-40c-109,-56 -201,-83 -322,-92l-105,-9l125,4c112,3 221,22 293,50c15,6 17,1 17,-39c0,-67 20,-237 34,-293l13,-48l12,105c78,648 269,983 684,1200c37,19 67,38 67,41c0,15 -173,-27 -251,-61l-86,-37l-6,146c-12,308 -83,571 -232,871c-209,417 -502,699 -805,774c-80,19 -218,28 -286,17z"/>
    <path stroke="#17b2b2" fill="url(#svg_41)" id="svg_8" d="m5085329.908819,-3390830.78059c-72,-28 -112,-56 -172,-122c-257,-277 -252,-907 9,-1428c166,-329 394,-511 642,-511c271,0 480,185 564,500c31,114 34,389 6,520c-106,493 -445,943 -786,1044c-74,22 -202,20 -263,-3zm-79,-355c44,-23 97,-89 122,-152c19,-49 23,-78 23,-169c0,-143 -20,-208 -92,-287c-93,-103 -191,-90 -251,35c-75,155 -62,395 27,507c59,73 115,95 171,66zm781,-136c20,-11 42,-64 34,-85c-15,-37 -69,-19 -90,31c-22,52 7,80 56,54zm134,-249c88,-171 128,-329 128,-506c0,-167 -37,-282 -123,-380c-38,-43 -95,-79 -114,-71c-11,4 -2,23 39,81c93,128 123,244 113,430c-7,126 -38,260 -96,424c-23,63 -41,123 -41,134c0,20 1,20 25,-3c13,-13 45,-62 69,-109z"/>
    <path stroke="#17b2b2" fill="url(#svg_41)" id="svg_9" d="m5080386.908819,-3391187.78059c-90,-20 -216,-81 -281,-136c-147,-126 -246,-308 -312,-573c-36,-143 -40,-166 -52,-317c-10,-137 -1,-217 35,-289c38,-74 83,-88 146,-46c48,32 90,108 138,249c108,312 253,520 424,605c93,47 166,63 283,63c154,0 330,-45 434,-110c128,-81 263,-127 295,-100c22,18 18,76 -8,140c-83,202 -348,416 -613,496c-78,23 -110,27 -254,30c-122,3 -183,-1 -235,-12z"/>
    <path stroke="#17b2b2" fill="url(#svg_41)" id="svg_10" d="m5081100.908819,-3392222.78059c-321,-76 -629,-485 -728,-969c-48,-231 -53,-554 -12,-747c40,-186 118,-371 223,-527c60,-90 184,-225 258,-282c27,-21 48,-39 47,-41c-2,-1 -50,-9 -108,-18c-209,-31 -393,-89 -568,-180c-92,-47 -146,-83 -106,-70c11,4 72,19 135,35c519,129 969,136 1430,20c123,-31 344,-102 449,-144c36,-14 66,-24 69,-22c7,8 -202,143 -288,186l-84,42l83,42c291,143 469,469 500,915c25,355 -49,711 -220,1052c-164,329 -393,567 -634,660c-44,17 -109,37 -145,45c-71,15 -244,17 -301,3zm305,-19c278,-71 562,-336 740,-691c179,-357 263,-775 225,-1116c-44,-400 -232,-696 -531,-838l-75,-36l-79,30c-176,67 -375,101 -606,105l-157,3l-50,42c-239,201 -431,537 -488,855c-22,125 -22,403 1,560c53,368 186,667 387,868c201,201 413,275 633,218z"/>
    <path stroke="#17b2b2" fill="url(#svg_41)" id="svg_11" d="m5080950.908819,-3392635.78059c-167,-46 -311,-200 -390,-417c-107,-292 -100,-669 21,-1030c140,-420 387,-649 700,-649c153,0 284,50 394,152c78,71 122,129 170,224c182,363 116,892 -162,1314c-63,94 -190,233 -268,290c-150,112 -323,155 -465,116zm18,-345c99,-45 154,-218 120,-377c-27,-128 -96,-233 -181,-273c-89,-44 -156,-18 -202,75c-24,49 -29,74 -32,154c-5,117 9,189 53,278c40,78 87,128 141,147c50,18 51,18 101,-4zm673,-201c10,-5 23,-24 29,-41c20,-59 -26,-92 -69,-49c-54,54 -23,124 40,90zm120,-273c46,-118 70,-230 77,-357c10,-209 -39,-369 -151,-485l-58,-60l27,45c81,138 100,217 98,410c-1,165 -17,288 -58,451c-14,54 -25,108 -25,121c1,22 3,21 31,-12c16,-19 43,-70 59,-113z"/>
    <path stroke="#17b2b2" fill="url(#svg_41)" id="svg_12" d="m5084960.908819,-3393915.78059c-122,-34 -247,-117 -327,-219c-55,-68 -112,-156 -112,-170c0,-5 41,29 90,76c145,138 277,206 421,215c212,13 427,-135 490,-339c24,-75 25,-220 4,-304c-47,-184 -177,-353 -346,-450c-50,-28 -44,-31 24,-10c185,56 331,191 410,381c36,85 50,165 50,274c-1,217 -107,392 -294,490c-42,22 -105,46 -140,55c-77,18 -206,18 -270,1z"/>
    <path stroke="#17b2b2" fill="url(#svg_41)" id="svg_13" d="m5086502.908819,-3394859.78059c-98,-283 -248,-568 -414,-786c-76,-100 -247,-278 -349,-362c-270,-225 -643,-406 -1028,-499c-287,-69 -504,-95 -855,-102c-319,-6 -736,15 -760,39c-10,10 26,134 59,202c31,63 31,66 12,66c-23,0 -79,-31 -115,-64c-65,-60 -105,-203 -89,-323c11,-77 26,-117 71,-187l32,-50l7,39c4,22 7,90 7,152c1,61 3,118 6,125c5,12 29,10 143,-14c288,-60 425,-72 792,-72c294,0 353,3 477,22c484,73 868,225 1202,472c106,78 276,243 360,349c219,276 376,610 456,972c14,62 24,113 22,115c-1,1 -17,-41 -36,-94z"/>
    <path stroke="#17b2b2" fill="url(#svg_41)" id="svg_14" d="m5076986.908819,-3394909.78059c-84,-26 -140,-57 -196,-109c-123,-115 -174,-285 -135,-448l12,-50l7,75c25,265 182,420 426,420c162,0 327,-82 453,-225c36,-40 38,-48 53,-159c34,-259 9,-393 -88,-487c-23,-21 -66,-48 -96,-59c-85,-33 -236,-28 -337,10l-29,11l35,-36c74,-76 223,-123 335,-105c78,13 137,42 194,95c97,91 136,200 129,359l-4,89l34,-74c44,-97 127,-333 169,-484l33,-120l-6,145c-16,415 -187,818 -428,1009c-70,56 -177,111 -256,134c-91,26 -234,30 -305,9z"/>
    <path stroke="#17b2b2" fill="url(#svg_41)" id="svg_15" d="m5066116.908819,-3392201.78059c-250,-37 -492,-207 -710,-501c-76,-102 -178,-267 -234,-378l-31,-60l57,-32c36,-21 58,-28 61,-21c11,33 138,198 217,281c208,219 415,325 630,323c112,-1 185,-20 300,-77c153,-75 314,-213 427,-366c65,-88 82,-103 132,-124c43,-18 90,-13 120,14c23,20 46,72 46,106c0,14 3,25 7,25c4,0 30,-22 58,-50l50,-50l53,35l52,35l-26,43c-101,161 -256,351 -383,468c-278,256 -560,368 -826,329z"/>
    <path stroke="#17b2b2" fill="url(#svg_41)" id="svg_16" d="m5062904.908819,-3392939.78059c-132,-47 -246,-205 -328,-456c-54,-167 -54,-161 1,-180c26,-9 53,-16 60,-16c7,0 32,36 55,79c108,203 223,285 325,233c45,-24 117,-96 163,-165c30,-44 112,-209 174,-349c20,-44 32,-59 53,-64c42,-11 76,6 89,46l12,35l6,-27l7,-26l57,17c57,17 58,18 56,53c-7,115 -158,454 -269,600c-145,193 -312,273 -461,220z"/>
    <path stroke="#17b2b2" fill="url(#svg_41)" id="svg_17" d="m5066256.908819,-3393361.78059c-320,-46 -489,-238 -659,-752c-90,-269 -133,-495 -140,-738c-2,-74 -2,-115 0,-90c19,199 72,459 134,655c40,126 111,308 117,302c2,-3 0,-14 -5,-24c-20,-36 -81,-261 -106,-389c-41,-207 -56,-345 -62,-574c-9,-328 23,-578 106,-835c111,-339 308,-581 559,-684c154,-64 354,-84 486,-48c32,9 60,15 61,14c2,-1 -6,-23 -18,-47c-29,-64 -68,-224 -68,-279c0,-46 0,-46 54,71c93,202 159,298 317,459c152,153 242,219 469,336l65,34l-81,-5c-56,-3 -105,-14 -159,-35c-43,-17 -80,-29 -82,-28c-1,2 18,52 42,113c131,323 182,749 126,1059c-48,267 -117,484 -245,769c-114,254 -189,378 -290,485c-164,172 -405,262 -621,231zm209,-115c238,-50 441,-237 586,-540c161,-335 280,-804 280,-1099c0,-454 -148,-871 -396,-1119c-177,-177 -372,-263 -578,-255c-92,3 -108,7 -179,41c-339,161 -567,762 -567,1497c0,624 177,1139 472,1375c141,112 224,134 382,100z"/>
    <path stroke="#17b2b2" fill="url(#svg_41)" id="svg_18" d="m5066518.908819,-3393955.78059c-280,-104 -484,-615 -464,-1161c17,-442 188,-804 442,-936c94,-49 159,-63 261,-56c174,10 312,114 409,307c81,161 118,355 119,620c0,263 -28,456 -98,665c-64,192 -141,323 -255,435c-104,103 -166,133 -286,137c-60,2 -103,-1 -128,-11zm261,-56c198,-97 360,-382 427,-750c26,-145 32,-489 11,-616c-33,-194 -99,-336 -208,-450c-92,-96 -203,-141 -326,-131c-257,19 -479,280 -557,657c-19,91 -38,321 -29,356c6,22 9,16 28,-40c13,-36 36,-83 53,-103c28,-35 30,-45 36,-143c11,-211 81,-386 201,-505c100,-99 146,-120 266,-120c85,0 101,3 154,30c32,16 53,31 47,33c-22,7 -10,39 44,107c67,86 118,173 147,251c20,53 22,78 22,249c0,180 -2,196 -31,306c-44,165 -101,277 -182,359c-36,36 -82,74 -102,83c-33,15 -36,21 -48,82c-37,206 -153,332 -278,305l-38,-9l30,25c89,72 214,81 333,24zm-277,-183c70,-47 119,-170 119,-300c0,-258 -162,-527 -318,-527c-39,0 -50,5 -87,43c-57,57 -79,128 -77,257c2,212 110,453 237,531c40,25 85,24 126,-4z"/>
    <path stroke="#17b2b2" fill="url(#svg_41)" id="svg_19" d="m5064426.908819,-3395954.78059c6,-50 5,-56 -29,-100c-39,-52 -51,-117 -20,-117c47,0 109,126 95,192c-20,87 -56,107 -46,25z"/>
    <path stroke="#17b2b2" fill="url(#svg_41)" id="svg_20" d="m5063945.908819,-3396132.78059c-62,-24 -138,-88 -163,-138c-44,-87 -53,-227 -21,-358c53,-221 204,-395 402,-464c82,-29 98,-23 98,33c0,24 -4,48 -8,54c-4,6 -48,34 -98,63c-222,124 -309,224 -350,397c-25,111 -1,205 77,289c24,26 60,55 80,65c40,21 139,40 207,40c60,0 57,25 -4,34c-84,11 -167,6 -220,-15z"/>
    <path stroke="#17b2b2" fill="url(#svg_41)" id="svg_21" d="m5068031.908819,-3397088.78059c0,-11 25,-51 47,-74l25,-27l-84,-69c-490,-411 -1083,-709 -1693,-852c-294,-68 -491,-92 -830,-98c-367,-7 -587,12 -858,72c-83,19 -113,22 -132,13c-20,-9 -43,0 -167,62c-78,40 -186,98 -238,129c-52,31 -102,59 -110,63c-8,4 -53,33 -98,63c-46,31 -82,52 -80,48c35,-76 64,-118 132,-187c103,-104 122,-118 232,-171c98,-47 148,-63 236,-75c35,-5 70,-18 90,-33c42,-31 129,-80 328,-184c58,-31 141,-75 185,-98c103,-55 451,-220 625,-297c611,-269 1208,-438 1543,-438c93,0 246,21 326,45c103,31 286,129 339,182c8,7 29,25 48,40c81,61 227,270 289,411c42,98 61,154 90,272c45,181 50,234 50,495c-1,239 -9,334 -47,517c-2,8 18,15 58,19c59,7 136,37 149,58c3,6 -14,15 -37,21c-24,6 -49,13 -56,15c-54,19 -362,85 -362,78zm188,-223c20,-92 35,-202 47,-343l6,-68l-168,-167c-254,-254 -505,-433 -818,-583c-307,-147 -531,-214 -756,-226c-258,-14 -465,58 -637,221c-76,72 -168,195 -154,207c4,3 59,11 123,17c691,69 1405,353 2004,797c61,45 157,120 214,168c58,48 108,84 112,80c4,-5 16,-51 27,-103zm-35,-797c-3,-21 -11,-65 -19,-98c-8,-33 -17,-71 -20,-85c-22,-101 -115,-309 -185,-411c-51,-75 -144,-175 -212,-227c-93,-72 -239,-141 -329,-157c-17,-3 -35,-8 -39,-10c-4,-3 -41,-8 -83,-11l-76,-6l20,46c11,25 29,67 40,92c35,79 127,229 204,332c92,121 282,307 404,392c87,61 279,179 294,180c4,0 4,-17 1,-37z"/>
    <path stroke="#17b2b2" fill="url(#svg_41)" id="svg_22" d="m5068908.908819,-3406305.78059c-8,-19 -1,-24 28,-18c14,2 25,11 25,18c0,18 -46,18 -53,0z"/>
   </g>
  </g>
  <path stroke="#000" id="svg_25" d="m212.68367,108.58438" opacity="0.5" stroke-width="1.5" fill="#fff"/>
  <path id="svg_33" d="m230.650364,123.960514" opacity="0.5" stroke-width="1.5" stroke="#000" fill="#fff"/>
 </g>
</svg>