<svg xmlns="http://www.w3.org/2000/svg" width="520.1" height="129.8" viewBox="0 0 520.1 129.8" enable-background="new 0 0 520.1 129.8"><path fill="#063342" d="M185.7 78.8h-12.1l-2.4 9.7c-.4 1.7-1.1 2.1-2.9 2.1h-8.2c-1.5 0-2.1-.7-1.7-2.2l13.3-48.2c.4-1.7.9-2.3 3.3-2.3h9.4c2 0 2.8.7 3.2 2.3l13.7 48.2c.4 1.5 0 2.2-1.3 2.2h-9.1c-2 0-2.5-.6-2.9-2.5l-2.3-9.3zm-6-27.8l-1.5 7.7c-.9 4.2-1.6 7.7-2.2 10.3h7.4l-2-10.2c-.6-2.9-1-5.5-1.3-7.8h-.4zM216.4 51.5l.2.2c2.1-.7 4.1-1 6-1 6.3 0 10.3 1.7 12.5 5.6 2.1 3.7 2.8 7.9 2.8 14.3 0 6.7-.8 11.2-3.3 15.1-2.3 3.8-6.7 5.7-13.4 5.7-6.3 0-11-.8-14.4-2.4-1.7-.8-2.5-2.1-2.5-4v-48.7c0-1.2.7-1.7 2.2-1.7h7.8c1.4 0 2.1.6 2.1 1.7v15.2zm4.4 9.6c-1.3 0-2.9.3-4.4.9v18.2c.9.2 2.1.4 3.7.4 3.4 0 5.3-2.1 5.3-9.6 0-7.6-1.4-9.9-4.6-9.9zM241.7 79.6c0-8.8 4.7-13.2 14.1-13.2h7.1v-1.1c0-3.4-1.2-4.7-5.4-4.7-1 0-4.6.3-10.6.9-.9.1-1.4-.5-1.7-1.5l-.7-3.9c-.2-1.1 0-1.9.7-2.5 1.3-.9 3.3-1.6 6.2-2.1 2.9-.6 5.5-.8 7.8-.8 6.7 0 10.8 1.3 12.9 4.1s2.7 6 2.7 11.1v12.2c0 3.3.1 3.7 1.9 3.8 1.8.2 2.1.5 2.1 1.3v4.4c0 1-.4 1.8-1.1 2.2-1.3.7-3.1 1-5.6 1-4.4 0-6.7-1.1-8-4-.1 0-.2 0-.2-.1-3.3 2.9-7.2 4.3-11.8 4.3-8.5.2-10.4-5.4-10.4-11.4zm21.1-5.4h-5.2c-2.3 0-3.5 1.6-3.5 4.7 0 2.5.6 3.2 2.3 3.2 2 0 4.1-.9 6.4-2.6v-5.3zM284.5 85c-2.1-4.1-2.8-8-2.8-14.1 0-5.4.7-9.4 2.9-13.6 2.2-4.2 6.9-6.7 13.6-6.7 1.8 0 4 .2 6.6.8 2.6.6 4.4 1.1 5.6 1.8.9.5 1.3 1.3 1 2.3l-.9 4.9c-.2 1.3-.7 1.7-1.7 1.6-5.2-.5-8.2-.7-8.9-.7-3.9 0-5.8 3.1-5.8 9.3 0 7.5 1.4 10 5.6 10 2.9 0 5.7-.2 8.3-.6 1.3-.4 2.4-.2 2.7 1.3l.8 4.4c.3 1.6.2 1.9-1 2.8-1.1.8-2.9 1.4-5.3 1.9s-4.7.7-7 .7c-6.9.1-11.4-2-13.7-6.1zM336.1 87.1l-.4-.1c-2.9 2.8-6.3 4.2-9.9 4.2-4.5 0-7.5-1.3-8.9-3.8-1.3-2.6-1.7-4.9-1.7-8.7v-25.6c0-1.2.6-1.7 2-1.7h8.1c1.3 0 2.1.6 2.1 1.7 0 2.3 0 5.8-.1 10.5v10.5c0 4.7 1 5.8 3.2 5.8 1.4 0 3.3-.6 5.7-1.9v-24.9c0-1.1.7-1.7 2.1-1.7h7.9c1.6 0 2 .6 2 1.7v35.8c0 1.2-.3 1.7-1.9 1.7h-8.3c-1.9 0-1.8-1-1.8-1.7l-.1-1.8zM378.5 88.2c-3 2.1-6.8 3.1-11.4 3.1-4.4 0-8.2-.6-11.3-1.8-2.5-1-3.1-1.8-2.7-3.8l.7-3.8c.3-1.6.9-1.8 3.1-1.4 3.4.7 6.7 1 9.8 1 2.7 0 4-1 4-2.9 0-2.2-.7-2.8-3.3-3.1-4.7-.7-7-1.3-9.9-3-2.9-1.8-4.3-4.7-4.3-9.1 0-8.2 6-12.7 14.9-12.7 4.4 0 8 .6 11 1.7 2.3 1 3.1 1.7 2.9 3.3l-.9 4.1c-.2 1.1-.6 1.9-2.9 1.4-4.3-.6-7.5-.9-9.8-.9-2.5-.1-3.1.7-3.1 2.6 0 1.8 1.4 2.4 3.7 2.6 4.2.6 6.7 1.3 9.6 3.1 2.9 1.7 4.4 4.9 4.4 9.4.1 4.7-1.4 8.1-4.5 10.2z"/><path fill="#EF3E2F" d="M425.2 60.3l15.4 29.1c.3.6.1 1.1-.6 1.1h-4.8c-.9 0-1.4-.4-1.8-1.1l-12.1-23.6-7.1 10.1v13.3c0 .9-.4 1.3-1.3 1.3h-3.4c-1 0-1.4-.5-1.4-1.3v-49.9c0-1 .5-1.4 1.4-1.4h3.4c.9 0 1.3.5 1.3 1.4v26.8l.2.1c1.3-2.1 4-6.2 8.1-12l10.7-15.4c.4-.6 1-.9 1.8-.9h4.8c.7 0 1 .6.6 1.1l-15.2 21.3z"/><path fill="#50B848" d="M449.3 38.2c1.3 0 2.2.3 2.7.9 1 1 1 4 0 5.2-.5.6-1.3.9-2.7.9-2.6 0-3.3-1.3-3.3-3.6-.1-2.3 1-3.4 3.3-3.4zm3 51c0 .9-.4 1.3-1.3 1.3h-3.3c-1 0-1.4-.5-1.4-1.3v-36c0-.9.5-1.3 1.4-1.3h3.3c.9 0 1.3.5 1.3 1.3v36z"/><path fill="#8D288F" d="M482.7 52.7v-16.6c0-1 .5-1.5 1.4-1.5h3.2c1 0 1.3.3 1.3 1.5v53.1c0 .9-.5 1.3-1.3 1.3h-3.3c-.9 0-1.3-.5-1.3-1.3v-1.9l-.2-.2c-4 2.6-7.7 4-11.3 4-8.7 0-11.6-6-11.6-19.3 0-14 3.4-20.6 13.8-20.6 3.1 0 6.1.6 9.1 1.7l.2-.2zm-10.7 32.8c1.5 0 3.3-.4 5.5-1.1 2.1-.7 3.9-1.5 5.2-2.3v-24.1c-3.1-1-6.2-1.4-9.2-1.4-5.6 0-7.6 4-7.6 15.2-.1 12 2.2 13.7 6.1 13.7z"/><path fill="#FFC20E" d="M506.9 91.2c-4.8 0-8.4-.6-10.9-1.8-.8-.4-1.1-1-.9-1.7l.3-1.7c.2-1 .6-1.1 1.9-1 4.8.6 8 .8 9.8.8 4.7 0 6.7-1.7 6.7-5.6 0-2.3-.4-3.8-1.3-4.7-.9-.9-2.5-1.5-5.1-1.9-3.6-.6-5.9-1.3-8.4-2.9s-4-4.4-4-8.1c0-7.3 4.7-11.4 12.5-11.4 4.4 0 7.9.6 10.6 1.8.6.3.9.8.8 1.5l-.3 2.1c-.1.7-.8 1-2.1.8-4.2-.4-7.2-.6-9-.6-4.8 0-6.3 1.5-6.3 5.6 0 3.7 1.4 4.4 6.8 5.4 3.6.7 5.6 1.3 8.1 3 2.6 1.7 3.9 4.6 3.9 8.7.2 8.2-5.5 11.7-13.1 11.7z"/><path fill="#BACAD3" d="M104 0h-85.3c-10.3 0-18.7 8.4-18.7 18.7v90.7c0 10.3 8.4 18.7 18.7 18.7h85.3c10.3 0 18.7-8.4 18.7-18.7v-90.7c0-10.3-8.3-18.6-18.7-18.7zm13.3 18.7v22.9h-21.3v-36.2h8c7.3 0 13.3 5.9 13.3 13.3zm-58.6 27.9v76.1h-26.7v-76.1h26.7zm-26.7-5v-36.2h26.7v36.2h-26.7zm32 5h26.7v76.1h-26.7v-76.1zm0-5v-36.2h26.7v36.2h-26.7zm-45.3-36.2h8v36.2h-21.3v-22.9c0-7.3 5.9-13.3 13.3-13.3zm0 117.3c-7.3 0-13.3-5.9-13.3-13.3v-62.8h21.3v76.1h-8zm85.3 0h-8v-76.1h21.3v62.8c0 7.3-5.9 13.3-13.3 13.3z"/><path fill="#8D288F" d="M33.7 47.7h-8.6l-11.2 9.1 11.2 9.1h8.6l11.2-9.1z"/><path fill="#EF3E2F" d="M65.4 72.8h-8.5l-11.2 9.1 11.2 9.2h8.5l11.2-9.2z"/><path fill="#FFC20E" d="M97.7 97.3h-8.6l-11.2 9.1 11.2 9.2h8.6l11.2-9.2z"/><path fill="#50B848" d="M97.7 72.8h-8.6l-11.2 9.1 11.2 9.2h8.6l11.2-9.2z"/><path fill="#EF3E2F" d="M97.7 47.7h-8.6l-11.2 9.1 11.2 9.1h8.6l11.2-9.1z"/><path fill="#FFC20E" d="M65.4 47.7h-8.5l-11.2 9.1 11.2 9.1h8.5l11.2-9.1z"/><path fill="#50B848" d="M65.4 21.7h-8.5l-11.2 9.1 11.2 9.1h8.5l11.2-9.1z"/><path fill="#063442" d="M425.3 117.8c-1 1.5-3.1 2.5-5.9 2.5h-2.9v8.4c0 .5-.2.7-.7.7h-2.6c-.5 0-.8-.2-.8-.7v-22.2c0-.4.2-.6.8-.6h5.6c4.8 0 7.9 2.2 7.9 7.1 0 1.7-.4 3.2-1.4 4.8zm-6.3-8.4h-2.5v7.4h2.6c2.3 0 3.4-1.3 3.4-3.8.1-2.4-1.1-3.6-3.5-3.6zM445.2 125.4c-.7 2.6-2.6 4.1-6.5 4.2-2.4 0-4.3-.9-5.2-2-.5-.6-.8-1.3-1.1-2.2-.5-1.8-.6-3.1-.6-5 0-5.9 2.3-8.8 6.9-8.8 2.4 0 4.2.8 5.2 1.9.5.5.9 1.2 1.2 2.1.6 1.6.7 2.9.7 4.8 0 2-.1 3.2-.6 5zm-9.4-4.8c0 4 .6 5.6 2.9 5.6 2.4 0 3.1-1.6 3.1-5.6s-.6-5.6-3.1-5.6c-2.2 0-2.9 1.8-2.9 5.6zM453.4 127.9c-.5-.5-.9-1.2-1.1-2-.6-1.7-.7-3.1-.7-5.3 0-2 .1-3.4.7-5 .8-2.3 2.6-4 6-4 2 0 3.7.3 5.1 1 .3.1.5.4.4.9l-.2 1.5c-.1.4-.4.6-.9.5-2-.2-3.4-.3-4-.3-2.3 0-3.1 1.5-3.1 5.4 0 4.3.8 5.7 3.1 5.7 1.3 0 2.7-.1 4-.3.6-.1.9 0 1 .5l.2 1.3c.1.4-.1.7-.4 1-1.1.6-2.9 1-5.2 1-2.3-.1-3.9-.9-4.9-1.9zM470.8 127.9c-.5-.5-.9-1.2-1.1-2-.6-1.7-.7-3.1-.7-5.3 0-2 .1-3.4.7-5 .8-2.3 2.6-4 6-4 2 0 3.7.3 5.1 1 .3.1.5.4.4.9l-.2 1.5c-.1.4-.4.6-.9.5-2-.2-3.4-.3-4-.3-2.3 0-3.1 1.5-3.1 5.4 0 4.3.8 5.7 3.1 5.7 1.3 0 2.7-.1 4-.3.6-.1.9 0 1 .5l.2 1.3c.1.4-.1.7-.4 1-1.1.6-2.9 1-5.2 1-2.2-.1-3.9-.9-4.9-1.9zM496.7 118.7c-.4.5-1 1.5-1.9 3l-4.5 7.1c-.2.5-.7.7-1.3.7h-1.6c-.5 0-.7-.2-.7-.7v-15.9c0-.5.2-.8.7-.8h2.4c.5 0 .8.2.8.8v9.5h.2c.7-1.2 1.5-2.7 2.6-4.4l3.3-5.3c.3-.4.7-.6 1.2-.6h1.9c.5 0 .7.2.7.7v15.9c0 .5-.2.7-.8.7h-2.3c-.5 0-.8-.2-.8-.7v-10h.1zM509.6 121.6c-1.7-.6-2.6-2-2.6-4.2 0-3.5 2.4-5.5 6.1-5.5h6.1c.6 0 .9.2.9.7v16c0 .5-.3.7-.9.7h-2.2c-.6 0-.9-.2-.9-.7v-6h-2.5c-1.1 0-1.7.6-2.3 2.6l-1 3.4c-.2.6-.4.8-1.1.8h-2.2c-.6 0-.8-.2-.6-.8l1.1-3.8c.4-1.5 1.1-2.6 2.1-3.2zm3.8-2h2.8v-4.4h-2.8c-1.4 0-2.5.8-2.5 2.2 0 1.5.9 2.2 2.5 2.2z"/></svg>
