<?xml version="1.0" encoding="UTF-8"?>
<svg xmlns="http://www.w3.org/2000/svg" xmlns:xlink="http://www.w3.org/1999/xlink" width="27px" height="20px" viewBox="0 0 20 20" version="1.1">
<g id="surface1">
<path style=" stroke:none;fill-rule:nonzero;fill:rgb(0%,14.117647%,49.019608%);fill-opacity:1;" d="M 0 5.03125 L 0 7.222656 L 3.125 7.222656 Z M 2.589844 17.222656 L 7.222656 17.222656 L 7.222656 13.980469 Z M 12.777344 13.980469 L 12.777344 17.222656 L 17.410156 17.222656 Z M 0 12.777344 L 0 14.96875 L 3.128906 12.777344 Z M 17.410156 2.777344 L 12.777344 2.777344 L 12.777344 6.019531 Z M 20 14.96875 L 20 12.777344 L 16.871094 12.777344 Z M 20 7.222656 L 20 5.03125 L 16.871094 7.222656 Z M 7.222656 2.777344 L 2.589844 2.777344 L 7.222656 6.019531 Z M 7.222656 2.777344 "/>
<path style=" stroke:none;fill-rule:nonzero;fill:rgb(81.176471%,10.588235%,16.862745%);fill-opacity:1;" d="M 13.964844 12.777344 L 19.363281 16.554688 C 19.625 16.285156 19.816406 15.949219 19.914062 15.585938 L 15.902344 12.777344 Z M 7.222656 12.777344 L 6.03125 12.777344 L 0.636719 16.554688 C 0.925781 16.851562 1.296875 17.0625 1.714844 17.160156 L 7.222656 13.300781 Z M 12.777344 7.222656 L 13.96875 7.222656 L 19.363281 3.445312 C 19.066406 3.144531 18.695312 2.9375 18.285156 2.839844 L 12.777344 6.699219 Z M 6.03125 7.222656 L 0.636719 3.445312 C 0.375 3.714844 0.183594 4.050781 0.0859375 4.417969 L 4.09375 7.222656 Z M 6.03125 7.222656 "/>
<path style=" stroke:none;fill-rule:nonzero;fill:rgb(93.333333%,93.333333%,93.333333%);fill-opacity:1;" d="M 20 11.667969 L 11.667969 11.667969 L 11.667969 17.222656 L 12.777344 17.222656 L 12.777344 13.980469 L 17.410156 17.222656 L 17.777344 17.222656 C 18.375 17.222656 18.945312 16.980469 19.363281 16.554688 L 13.964844 12.777344 L 15.902344 12.777344 L 19.914062 15.585938 C 19.964844 15.398438 20 15.203125 20 15 L 20 14.96875 L 16.871094 12.777344 L 20 12.777344 Z M 0 11.667969 L 0 12.777344 L 3.128906 12.777344 L 0 14.96875 L 0 15 C 0 15.605469 0.242188 16.15625 0.636719 16.554688 L 6.03125 12.777344 L 7.222656 12.777344 L 7.222656 13.300781 L 1.714844 17.15625 C 1.878906 17.195312 2.046875 17.222656 2.222656 17.222656 L 2.589844 17.222656 L 7.222656 13.980469 L 7.222656 17.222656 L 8.332031 17.222656 L 8.332031 11.667969 Z M 20 5 C 20 4.417969 19.769531 3.859375 19.363281 3.445312 L 13.96875 7.222656 L 12.777344 7.222656 L 12.777344 6.699219 L 18.285156 2.839844 C 18.121094 2.800781 17.949219 2.78125 17.777344 2.777344 L 17.410156 2.777344 L 12.777344 6.019531 L 12.777344 2.777344 L 11.667969 2.777344 L 11.667969 8.332031 L 20 8.332031 L 20 7.222656 L 16.871094 7.222656 L 20 5.03125 Z M 7.222656 2.777344 L 7.222656 6.019531 L 2.589844 2.777344 L 2.222656 2.777344 C 1.625 2.777344 1.054688 3.019531 0.636719 3.445312 L 6.03125 7.222656 L 4.09375 7.222656 L 0.0859375 4.417969 C 0.03125 4.605469 0.00390625 4.800781 0 5 L 0 5.03125 L 3.125 7.222656 L 0 7.222656 L 0 8.332031 L 8.332031 8.332031 L 8.332031 2.777344 Z M 7.222656 2.777344 "/>
<path style=" stroke:none;fill-rule:nonzero;fill:rgb(81.176471%,10.588235%,16.862745%);fill-opacity:1;" d="M 11.667969 8.332031 L 11.667969 2.777344 L 8.332031 2.777344 L 8.332031 8.332031 L 0 8.332031 L 0 11.667969 L 8.332031 11.667969 L 8.332031 17.222656 L 11.667969 17.222656 L 11.667969 11.667969 L 20 11.667969 L 20 8.332031 Z M 11.667969 8.332031 "/>
</g>
</svg>
