<?xml version="1.0" encoding="UTF-8"?>
<svg xmlns="http://www.w3.org/2000/svg" xmlns:xlink="http://www.w3.org/1999/xlink" width="30px" height="30px" viewBox="0 0 30 29" version="1.1">
<g id="surface1">
<path style=" stroke:none;fill-rule:nonzero;fill:rgb(0%,0%,0%);fill-opacity:1;" d="M 10.96875 2.597656 C 6.398438 2.597656 2.683594 6.191406 2.683594 10.605469 C 2.683594 12.742188 3.546875 14.753906 5.109375 16.265625 C 6.675781 17.777344 8.753906 18.609375 10.96875 18.609375 C 13.179688 18.609375 15.257812 17.777344 16.824219 16.265625 C 18.386719 14.753906 19.25 12.742188 19.25 10.605469 C 19.25 6.191406 15.535156 2.597656 10.96875 2.597656 Z M 16.085938 15.554688 C 14.71875 16.875 12.902344 17.601562 10.96875 17.601562 C 9.03125 17.601562 7.214844 16.875 5.847656 15.554688 C 4.480469 14.230469 3.726562 12.472656 3.726562 10.605469 C 3.726562 6.746094 6.976562 3.605469 10.96875 3.605469 C 14.957031 3.605469 18.207031 6.746094 18.207031 10.605469 C 18.207031 12.472656 17.453125 14.230469 16.085938 15.554688 Z M 16.085938 15.554688 "/>
<path style=" stroke:none;fill-rule:nonzero;fill:rgb(0%,0%,0%);fill-opacity:1;" d="M 29.03125 23.558594 L 22.503906 17.246094 L 21.425781 18.289062 L 19.875 16.789062 C 23 12.597656 22.535156 6.792969 18.722656 3.105469 C 16.652344 1.101562 13.898438 0 10.964844 0 C 8.035156 0 5.28125 1.101562 3.210938 3.105469 C -1.066406 7.242188 -1.066406 13.96875 3.210938 18.101562 C 7.023438 21.789062 13.03125 22.234375 17.367188 19.214844 L 18.914062 20.714844 L 17.839844 21.753906 L 24.367188 28.066406 C 25.011719 28.6875 25.855469 29 26.699219 29 C 27.542969 29 28.390625 28.6875 29.03125 28.066406 C 29.65625 27.464844 29.996094 26.664062 29.996094 25.8125 C 29.996094 24.960938 29.65625 24.160156 29.03125 23.558594 Z M 28.296875 27.355469 C 27.414062 28.203125 25.984375 28.203125 25.105469 27.355469 L 19.3125 21.753906 L 20.90625 20.214844 L 20.171875 19.5 L 19.652344 20 L 17.453125 17.878906 L 17.089844 18.15625 C 13.148438 21.152344 7.496094 20.824219 3.945312 17.390625 C 0.078125 13.648438 0.078125 7.558594 3.945312 3.820312 C 5.820312 2.007812 8.316406 1.007812 10.964844 1.007812 C 13.617188 1.007812 16.113281 2.007812 17.988281 3.820312 C 21.535156 7.25 21.875 12.714844 18.777344 16.527344 L 18.492188 16.875 L 21.425781 19.714844 L 22.503906 18.671875 L 28.296875 24.273438 C 28.722656 24.683594 28.957031 25.230469 28.957031 25.8125 C 28.957031 26.394531 28.722656 26.941406 28.296875 27.355469 Z M 28.296875 27.355469 "/>
<path style=" stroke:none;fill-rule:nonzero;fill:rgb(0%,0%,0%);fill-opacity:1;" d="M 26.578125 25.929688 L 25.109375 24.507812 L 24.371094 25.21875 L 25.84375 26.644531 C 26.152344 26.941406 26.511719 26.984375 26.699219 26.984375 C 26.886719 26.984375 27.25 26.941406 27.558594 26.640625 L 26.820312 25.929688 C 26.753906 25.992188 26.644531 25.992188 26.578125 25.929688 Z M 26.578125 25.929688 "/>
<path style=" stroke:none;fill-rule:nonzero;fill:rgb(0%,0%,0%);fill-opacity:1;" d="M 6.832031 6.609375 C 5.726562 7.675781 5.117188 9.097656 5.117188 10.605469 L 6.160156 10.605469 C 6.160156 9.367188 6.660156 8.199219 7.570312 7.320312 C 8.480469 6.441406 9.683594 5.957031 10.964844 5.957031 L 10.96875 5.957031 L 10.96875 4.949219 C 10.96875 4.949219 10.96875 4.949219 10.964844 4.949219 C 9.40625 4.949219 7.9375 5.539062 6.832031 6.609375 Z M 6.832031 6.609375 "/>
</g>
</svg>
